<?xml version="1.0" encoding="UTF-8"?>
<!DOCTYPE svg PUBLIC "-//W3C//DTD SVG 1.1//EN" "http://www.w3.org/Graphics/SVG/1.1/DTD/svg11.dtd">
<svg xmlns="http://www.w3.org/2000/svg" xmlns:xlink="http://www.w3.org/1999/xlink">
	<symbol id="logo-motio-vertical" viewBox="0 0 354 1252">
		<g fill="none" stroke="#00ffd3" stroke-miterlimit="10"><path stroke-width="62.6" d="M233.5 209.4c49.2 0 89-40 89-89 0-49.2-40-89-89-89-49.2 0-89 39.8-89 89"/><path stroke-width="65.8" d="M111.3 330H234"/><circle cx="39.9" cy="329.6" r="39.15" fill="#00ffd3" stroke="none"/><path stroke-width="62.6" d="M39.3 497.7H248c40-.2 67.3-16 73-49.6 2.3-13.4 1-25.2 1-38.6"/><path stroke-width="57.6" d="M140 572.8V409.4"/><path stroke-width="62.6" d="M322.4 722.5c0-49.2-40-89-89-89-49.3 0-89 39.8-89 89s39.8 89 89 89"/><path stroke-width="62.6" d="M302 1071.3h-84.3c-33.3-.3-70.5-24.2-70.5-73 0-48 37-71.7 70-71.7H354"/><path stroke-width="62.6" d="M353.8 1217.8h-136c-33.4-.3-70.6-24.2-70.6-73 0-48 37-71.7 70-71.7H302"/><path stroke-width="62.6" d="M116.2 1220.8h237.6"/></g>
	</symbol>
	<symbol id="logo-motio-o" viewBox="0 0 100 100">
		<path fill="none" stroke-width="24" stroke-miterlimit="10" d="M12 50c0-21 17-38 38-38s38 17 38 38-17 38-38 38"/>
	</symbol>
	<symbol id="logo-facebook" viewBox="0 0 15 15">
		<path d="M8.68 15H5.86V7.5H3.98V4.92h1.88V3.38c0-2.12.57-3.4 3.05-3.4H11v2.58H9.7c-.95 0-1 .37-1 1.04v1.3H11l-.28 2.58H8.7L8.68 15z"/>
	</symbol>
	<symbol id="logo-twitter" viewBox="0 0 15 15">
		<path d="M4.72 13.19c5.66 0 8.76-4.38 8.76-8.17l-.01-.37c.6-.41 1.12-.91 1.53-1.49-.56.23-1.16.39-1.77.45.64-.36 1.12-.92 1.35-1.59-.6.34-1.26.57-1.95.7-1.16-1.16-3.11-1.21-4.35-.13-.8.7-1.14 1.75-.89 2.74-2.47-.11-4.78-1.21-6.34-3C.23 3.64.65 5.32 2 6.16c-.49-.01-.98-.14-1.4-.36v.04c0 1.37 1.03 2.54 2.47 2.82-.45.11-.93.13-1.39.05.4 1.17 1.56 1.97 2.88 2-1.09.8-2.44 1.23-3.82 1.23-.25 0-.49-.01-.73-.04 1.4.84 3.03 1.29 4.71 1.29"/>
	</symbol>
	<symbol id="logo-instagram" viewBox="0 0 15 15">
		<path d="M7.5 1.34c2 0 2.24.01 3.03.04.73.03 1.13.15 1.39.26.35.14.6.29.86.56.26.27.42.51.56.86.1.27.22.66.26 1.39.04.79.04 1.03.04 3.03s0 2.24-.04 3.03c-.03.73-.15 1.12-.26 1.39-.14.34-.3.6-.56.86-.26.26-.51.42-.86.56-.26.1-.66.23-1.39.26-.79.04-1.03.04-3.03.04s-2.24-.01-3.03-.04c-.73-.03-1.13-.15-1.39-.26-.35-.13-.6-.29-.86-.56-.26-.26-.42-.52-.56-.86-.11-.27-.23-.66-.26-1.39-.04-.8-.04-1.03-.04-3.03s0-2.24.04-3.03c.04-.73.16-1.13.26-1.39.13-.35.29-.6.56-.86.26-.26.51-.42.86-.56.27-.1.66-.23 1.39-.26.79-.02 1.03-.04 3.03-.04M7.5 0C5.46 0 5.21 0 4.41.04 3.6.08 3.06.21 2.58.4c-.48.18-.9.44-1.32.86-.43.41-.68.83-.87 1.32C.2 3.07.08 3.62.04 4.41 0 5.21-.02 5.46-.02 7.5s.01 2.29.05 3.09c.04.79.16 1.34.35 1.82.19.49.45.91.87 1.33.41.42.83.68 1.33.87.48.19 1.02.31 1.82.35.81.04 1.06.04 3.1.04s2.29-.01 3.09-.05c.8-.03 1.35-.16 1.83-.35.49-.19.91-.45 1.33-.87s.67-.83.87-1.33c.18-.48.31-1.03.35-1.82.04-.8.05-1.05.05-3.09 0-2.03-.01-2.29-.05-3.09-.04-.8-.16-1.34-.35-1.82-.19-.49-.45-.91-.87-1.32-.42-.42-.83-.68-1.33-.87C11.95.2 11.4.08 10.59.04 9.79 0 9.54 0 7.5 0zm0 3.65c-2.13 0-3.85 1.72-3.85 3.85s1.72 3.85 3.85 3.85 3.85-1.72 3.85-3.85S9.63 3.65 7.5 3.65zm0 6.35C6.12 10 5 8.88 5 7.5S6.12 5 7.5 5 10 6.12 10 7.5 8.88 10 7.5 10zm4.89-6.5c0 .49-.4.9-.9.9s-.9-.41-.9-.9c0-.5.4-.9.9-.9s.9.4.9.9z"/>
	</symbol>
	<symbol id="arrow-right" viewBox="0 0 12 12">
		<path stroke-miterlimit="10" d="M10 5.5L5.3.8M10 5.5l-4.7 4.8M1 5.5h8.3" stroke-linecap="round"/>
	</symbol>
	<symbol id="la-rochelle" viewBox="0 0 500 260">
		<path d="M178.934 69.57c-2.148 1.494-2.268 2.271-2.002 14.648l.27 13.041-3.197.948c-3.15.907-3.152.928-.414 1.005 5.102.171 5.592-.492 5.225-7.009-.463-8.08 5.076-11.669 11.377-7.375 8.541 5.788 14.842 2.715 14.357-6.982-.172-3.708-.563-6.735-.855-6.737-.293 0-2.053.439-3.932.978-2.93.832-3.787.612-6.152-1.563-3.25-3.024-11.015-3.518-14.677-.954m12.55 2.176c2.635 2.199 4 2.613 7.223 2.177l3.959-.517v5.666c0 7.836-3.055 9.496-9.426 5.08-2.34-1.613-3.811-3.203-3.295-3.543.533-.34 1.316-1.803 1.756-3.224.805-2.61.783-2.61-1.438-.632-1.221 1.1-2.223 2.684-2.223 3.516 0 1.121-.73 1.34-2.734.83-1.809-.463-3.344-.145-4.539.95-2.199 1.979-2.564-7.3-.371-9.62 1.467-1.563 2.813-1.753 1.904-.267-.363.584-.215 1.049.322 1.049.557 0 1.242-.95 1.537-2.099.757-2.858 3.47-2.634 7.325.634M94.537 91.545c-9.791 1.929-14.09 4.444-14.09 8.25 0 1.856-1.928 1.638-7.666-.899-11.646-5.15-29.226 11.889-25.243 24.461l.73 2.293 33.062-.684c18.186-.369 35.887-1.1 39.33-1.609 4.76-.687 2.879-.807-7.838-.442-31.373 1.024-54.543.707-55.492-.777-1.347-2.147-1.077-4.007.586-4.007.9-.046 1.73-.486 2.266-1.218.444-.736.272-.909-.463-.445-.688.418-1.217.124-1.217-.707 0-.804 1.189-2.075 2.611-2.854 1.439-.758 2.611-1.783 2.611-2.27 0-.466.734-.857 1.635-.857 1.025 0 1.342-.486.854-1.315-.559-.903-.266-.858.953.12 4.002 3.247 19.043 1.025 15.697-2.314-.365-.369.051-.664.932-.664.898 0 2.213.709 2.945 1.588 1.082 1.317 1.033 1.488-.289.977-.879-.341-1.883-.17-2.221.389-.926 1.469 3.471 2.299 8.199 1.543 3.326-.537 3.74-.81 2.082-1.465-1.832-.709-1.76-.808.561-.882 1.904-.071 2.223-.34 1.174-1.001-.785-.51-1.131-1.393-.779-2 .365-.587.09-1.707-.639-2.466-1.734-1.833-2.17-4.714-.828-5.544.607-.367 1.072.271 1.072 1.488 0 1.176.609 2.15 1.344 2.15 1.563 0 5.541 4.299 5.148 5.566-.268.854 5.645-.049 7.496-1.125.492-.314.125-.998-.807-1.514-.951-.535-1.438-1.439-1.072-2.025.391-.637-.293-.928-1.709-.73-1.295.195-2.564-.224-2.809-.953-.268-.76.441-1.316 1.732-1.316 1.197 0 2.174-.514 2.174-1.148 0-.634-.707-.879-1.563-.541-.953.366-1.563 0-1.563-.947 0-2.004 4.057-1.98 4.836.045.34.856 1.242 1.563 2.002 1.563 2.174 0 6.418 6.204 10.229 14.993 3.783 8.689 4.859 10.374 4.859 7.543 0-1.002-2.102-6.227-4.688-11.6-6.929-14.426-14.113-19.014-26.144-16.65m75.949 10.962c-.977 1.564-1.168 4.518-.656 10.84l.709 8.69-6.666 1.103a519.007 519.007 0 0 1-11.596 1.826c-7.695 1.076-9.234 7.447-4.201 17.313 1.928 3.759 3.295 34.666 1.879 42.231l-.682 3.594h-7.959c-10.477 0-9.037 1.244 1.754 1.516l8.398.219v-4.908c0-4.686.148-4.953 3.395-5.715l3.395-.805-3.373-.633-3.369-.635.246-15.406c.125-8.471-.119-15.405-.539-15.405-2.24 0-.656-6.372 1.809-7.3 4.787-1.83 34.789-3.467 41.166-2.266 3.221.629 8.91 1.385 12.645 1.704 6.152.513 14.674 2.368 18.846 4.103 1.297.537 1.518-.074 1.201-3.369a26.26 26.26 0 0 1 .658-7.813c.756-2.712.707-4.053-.17-4.762-1.369-1.122-17.652-4.322-21.973-4.322-1.66 0-2.76-.558-2.662-1.316.486-3.688-.199-9.133-1.148-9.133-.686 0-.83 1.859-.391 5.225l.688 5.225-8.744-.023c-9.961-.022-11.643-.707-11.938-4.857-.488-6.74-.002-7.154 7.91-6.96 8.469.197 16.16-1.388 8.859-1.828a127.569 127.569 0 0 0-10.182.022l-6.027.269v-3.708c0-3.298-1.098-5.496-2.197-4.398-.221.221-.172 4.908.121 10.425.365 7.032.17 10.011-.658 10.01-.656 0-2.662.294-4.488.659l-3.301.658.73-11.107c.757-11.746.636-12.38-1.489-8.963m-88.185 1.565c-.34.342-1.973.438-3.588.219l-2.977-.393 2.613-1.146c2.444-1.051 5.348-.096 3.952 1.32m21.654 3.609c-.387.59.662 1.03 2.473 1.03 1.73 0 3.438-.465 3.783-1.03.387-.609-.66-1.048-2.488-1.048-1.715-.002-3.422.464-3.768 1.048m342.1 8.031c-.006 5.057-.732 11.771-1.596 14.943-.879 3.152-2.268 8.793-3.076 12.527-.826 3.732-2.949 12.84-4.729 20.237-1.764 7.396-2.984 13.671-2.715 13.941.273.291 1.025-1.539 1.682-4.029 3.006-11.695 2.467-11.063 10.232-11.719 12.063-1.023 13.379-.418 13.695 6.129.096 1.928-.682 2.121-10.348 2.416-9.674.316-10.381.197-9.818-1.563.514-1.586.438-1.635-.512-.34-.613.877-1.127 1.854-1.146 2.195-.025 1.096 8.982 2.688 11.033 1.953 1.365-.486 2.246-.17 2.732.977.637 1.539.709 1.539.781-.023.074-2.027 4.025-2.98 7.277-1.781 1.777.658 2.25 1.559 2.002 3.736-.174 1.585.168 2.805.762 2.707.604-.117 1.164.756 1.236 1.902.125 1.736-.1 1.861-1.393.787-.857-.709-3.199-1.223-5.221-1.148-2.861.117-3.838-.365-4.588-2.176-.713-1.781-.936-1.9-.982-.512-.07 1.54-1.096 1.807-6.787 1.711-5.32-.074-6.592-.416-6.152-1.563.373-1.004.029-1.271-1.123-.809-.928.344-1.684 1.053-1.684 1.565 0 .533-.707.949-1.563.949-.877 0-1.584.516-1.584 1.146 0 .758 2.611 1.072 7.59.902a328.27 328.27 0 0 1 14.623-.119l7.057.145v3.713c0 2.221-.416 3.465-1.047 3.074-.564-.363-1.047-1.561-1.047-2.684 0-1.104-.494-2.027-1.105-2.027-.607 0-.83.439-.508.998.32.518.146 1.227-.391 1.566-.539.34-1.195-.445-1.441-1.738-.391-2.07-.465-1.998-.588.49-.146 3.125-2.195 4.031-2.297 1.049-.07-1.635-.166-1.635-.852.123-.729 1.854-.879 1.854-2.541.193-1.563-1.561-1.777-1.582-1.777-.143 0 2.586-2.074 1.924-2.182-.709-.117-2.227-.145-2.223-.85.268-.709 2.518-.76 2.541-1.955.516-1.051-1.832-1.221-1.855-1.246-.248-.043 2.053-2.1 2.543-2.143.516-.004-.805-.299-.902-.783-.268-1.271 1.734-6.498 1.363-6.521-.469a6.848 6.848 0 0 0-1.102-3.172c-.779-1.121-.9 1.418-.412 8.74.51 7.398.371 10.109-.443 9.596-1.799-1.1-1.365.879.664 3.174 6.254 7.08 6.125 6.301 1.66 8.664-2.199 1.15-3.395 2.127-2.658 2.15.752.025 2.803-.686 4.537-1.588 3.955-2.049 3.684-2.512 4.271 7.107.367 6.029.193 7.855-.707 7.104-.877-.709-1.197-.023-1.197 2.492 0 2.461.414 3.346 1.367 2.979.758-.293 1.346.219 1.346 1.17 0 .928-.705 1.684-1.564 1.684-.979 0-1.564.979-1.564 2.637 0 1.465.709 2.91 1.564 3.248 3.711 1.418 1.781 4.859-2.344 4.176a57.796 57.796 0 0 0-5.102-.658c-.76 0-1.418-4.98-1.928-14.625-.395-8.055-1.176-14.895-1.709-15.232-.582-.344-.686 1.854-.248 5.469.684 5.855.637 6.006-1.17 4.195-2.174-2.172-4.174-.973-3.391 2.055.41 1.563.533 1.467.631-.465.053-1.318.586-2.123 1.154-1.779 1.459.9 1.314 4.709-.172 4.709-.666 0-.859.344-.439.779.436.418 1.459-.123 2.268-1.244 1.416-1.928 1.49-1.877 1.66 1.051.758 13.916.631 14.334-4.467 13.844l-3.543-.318-.807-17.16-.826-17.139 2.904-3.199c1.879-2.074 2.074-2.512.559-1.225l-2.363 1.957v-5.396c0-4.225-.469-5.787-2.199-7.203a99.901 99.901 0 0 1-3.541-3.078c-.732-.703-3.225-2.246-5.564-3.467-2.318-1.219-4.783-2.879-5.469-3.709-.684-.828-1.953-1.49-2.811-1.49-2.002 0 1.76 3.008 7.57 6.084 9.594 5.072 9.521 4.9 9.717 24.24.119 9.473.486 20.143.854 23.73.635 6.424.611 6.52-1.951 6.52-3.072 0-3.883-3.195-3.885-15.402-.021-4.154-.367-7.57-.805-7.57s-.539 4.98-.268 11.082c.563 11.863.51 12.111-2.934 11.209-2.074-.539-2.293-1.316-2.391-8.57a277.667 277.667 0 0 0-.971-17.381c-.617-7.008-.711-4.934-.324 8.201.49 16.648.416 17.555-1.391 17.045-1.049-.271-11.184-1.102-22.533-1.811-19.826-1.244-20.631-1.391-20.652-3.49-.076-10.891-1.369-28.492-2.148-29.297-.607-.609-.977-.146-.977 1.244 0 2.76-.336 2.977-6.666 3.883l-5.104.73.49-16.26c.387-12.551.854-16.678 2.096-18.094.879-1.022 1.865-4.002 2.223-6.641l.611-4.809-5.959-.951-5.979-.932-.318-5.758c-.586-10.329.32-12.725 4.547-11.94 3.145.605 3.607.414 3.607-1.416 0-2.343-2.27-3.64-6.537-3.787l-2.863-.096V164.609l-15.939.076c-8.988.049-18.313.66-21.41 1.416l-5.473 1.34v4.35c0 2.414.711 5.396 1.611 6.664 1.271 1.83 1.539 4.785 1.295 14.064l-.313 11.785-8.617.295-8.6.295.123 2.832c.072 1.707.297 2.123.586 1.047.611-2.342 4.811-3.004 16.775-2.662 5.322.146 9.668-.094 9.668-.512 0-.438-1.881-.783-4.176-.783h-4.176V181.02l3.734-.439c4.764-.561 42.07-.314 42.604.291.219.246 0 3.494-.463 7.23-.488 3.734-.609 14.084-.291 22.975.826 22.605.83 23.922.117 24.633-.357.363-8.594-.193-18.309-1.221l-17.676-1.855-.219-12.061c-.295-16.09-1.148-16.285-1.148-.248 0 14.209.295 13.748-8.227 12.061-3.197-.652-3.27-.803-3.293-6.539-.004-4.18-.297-5.42-1.025-4.301-.541.855-1.025 3.566-1.025 6.006l-.002 4.426h-13.5c-16.922 0-16.75.07-16.971-6.621l-.193-5.393-.416 4.688c-.393 4.563-3.66 9.449-4.908 7.42-.338-.535-1.414-.783-2.414-.607a52.271 52.271 0 0 1-3.395.537c-.855.119 1.49.801 5.225 1.537 3.734.754 7.152 1.125 7.594.875 1.051-.631 19.48-.514 37.328.223 14.916.611 25.654 1.563 47.117 4.1 7.229.855 22.512 2.027 33.957 2.613 11.43.586 22.197 1.316 23.928 1.635 1.711.299 5.957.805 9.4 1.1s10.031 1.225 14.625 2.1c4.59.854 10.473 1.811 13.061 2.08 2.586.289 9.158 1.412 14.625 2.486a2699.145 2699.145 0 0 0 19.334 3.736c7.939 1.486 14.457 3.074 22.453 5.416.961.27.84-.016-.313-.758-3.781-2.414-15.303-5.102-44.814-10.498l-12.211-2.242-.588-5.373c-.316-2.955-.805-12.348-1.074-20.848l-.512-15.477 6.861-3.076c9.004-4.027 10.254-4.004 9.42.193a38.932 38.932 0 0 0-.684 6.006c-.023 2.369-.172 2.49-1.098.904-.588-1-1.834-1.813-2.783-1.813-1.486 0-1.443.178.221 1.416 1.25.906 1.686 2.057 1.242 3.248-.512 1.297-.291 1.662.758 1.271 1.172-.461 1.588 1.641 2.105 10.576 1.117 18.77 1.85 25.266 2.826 25.266 1.219 0 1.193-2.59-.123-9.473-.584-3.076-1.123-14.527-1.195-25.486-.092-10.939-.334-19.361-.557-18.703-.223.635-4.377 2.709-9.234 4.59-7.885 3.031-8.838 3.709-8.838 6.059v2.658l-2.998-2.834c-2.684-2.584-2.982-3.586-3.105-10.156l-.145-7.32 13.035.146 13.037.146-.588 2.76c-.514 2.439-.414 2.563.811 1.07.9-1.096 5.318-2.393 12.105-3.588 5.885-1.025 10.328-2.27 9.861-2.732-.463-.463-2.467-.369-4.465.195-6.982 2-7.078 1.902-7.57-7.572-.686-12.939-4.123-22.165-5.105-13.742-.531 4.441-2.73 4.246-3.535-.316-.389-2.176-2.117-9.377-3.832-15.993-1.73-6.615-3.566-13.819-4.1-16.039-.52-2.221-1.639-5.37-2.494-7.006-.922-1.76-1.531-5.883-1.531-10.254 0-4.026-.469-7.594-1.033-7.959-.665-.417-1.034 2.684-1.053 8.563m-339.58-5.687c-1.342 4.369-.414 5.203 3.734 3.371 3.076-1.345 3.078-1.369.516-1.469-2.076-.095-2.295-.314-1.029-1.121 1.248-.808 1.102-1.021-.801-1.025-1.274-.002-2.374.098-2.42.244m-22.12 2.541c-1.002.268-1.83.975-1.83 1.563s.754.805 1.658.441c.902-.344 2.318-.635 3.127-.635.826 0 1.488-.466 1.488-1.029-.001-1.073-1.228-1.17-4.443-.34m-71.93 3.857c-8.908 3.176-12.399 8.081-12.42 17.43l-.001 3.713 10.647.27c5.859.146 11.031.488 11.472.777.442.271 4.298.176 8.57-.217l7.764-.707.46-3.783c.518-4.498-.754-10.895-2.293-11.426-.609-.197-1.101-1.052-1.101-1.883.002-4.296-15.131-7.029-23.098-4.174m22.32 7.543c4.543 8.109 3.736 11.16-3.271 12.279-6.959 1.1-17.505-.363-17.065-2.363.221-1.031-.806-1.271-4.175-.904-2.466.269-3.689.293-2.734.07 1.755-.418 4.878-3.439 3.562-3.439-.388 0-.095-.637.637-1.418 1.123-1.199 1.538-1.17 2.613.248 1.146 1.508 1.293 1.414 1.319-.66.024-1.635.661-2.344 2.098-2.344 1.314 0 1.855-.515 1.512-1.42-.808-2.121 2.374-2.927 4.229-1.072.878.877 1.608 1.123 1.608.559 0-.583.828-1.268 1.831-1.534 1.122-.293.71-.517-1.05-.589-3.489-.146-3.69-1.339-.518-2.807 3.641-1.687 6.277-.194 9.404 5.394m17.212-.949c-.976.975-2.122 1.416-2.54.998-.438-.438-.096-1.22.757-1.756 2.541-1.609 3.664-1.126 1.783.758m125.635 5.028c0 2.587.023 5.054.049 5.492.045.418-1.371 1.075-3.127 1.42l-3.195.655-.193-5.348-.178-5.348-.389 5.543-.389 5.543-3.859-.318c-3.635-.313-3.904-.582-4.492-4.494l-.654-4.195-.146 4.342c-.123 3.736-.514 4.42-2.883 5.006-3.25.828-2.932 1.172-4.348-4.639l-1.146-4.709.195 5.223c.172 4.611-.072 5.271-2.006 5.543-1.949.289-4.586-5.227-4.586-9.55 0-.288 3.416-1.044 7.57-1.704 4.172-.641 9.467-1.587 11.764-2.054 2.295-.466 5.936-.925 8.084-.978l3.928-.123.001 4.693m8.351 1.047c0 8.646-5.836 9.036-6.422.419-.416-6.156-.414-6.177 3.467-6.177 2.905.002 2.955.146 2.955 5.758m13.668.515c.051 4.127.318 5.151.953 3.662.488-1.148.615-3.857.318-6.007-.514-3.589-.363-3.927 1.906-3.907 3.609.002 15.426 1.98 19.996 3.346l3.93 1.15-.613 5.321c-.877 7.47-1.072 7.835-3.66 7.177-2.123-.562-2.246-1.074-1.732-6.98.342-3.907.24-5.35-.291-3.762-.443 1.438-.881 4.147-.932 6.006-.24 7.229-4.25 4.42-4.49-3.125l-.195-6.541-.369 6.078c-.563 9.033-5.662 8.789-6.639-.32l-.611-5.758-.172 5.637-.168 5.617-3.908-.658a50.07 50.07 0 0 0-6.273-.641c-2.123-.021-2.369-.58-2.539-5.514l-.193-5.472-.391 4.958c-.611 7.766-6.545 7.691-6.545-.096 0-6.299.07-6.351 6.908-6.106l5.639.194.071 5.741m249.246 3.394c.293-.729.955-1.049 1.488-.729 1.834 1.146.93 2.562-1.658 2.562-1.807 0-2.611-.563-2.59-1.832.004-1.565.15-1.61 1.123-.267.831 1.194 1.223 1.265 1.637.266m5.543 12.67c.023 1.563-.27 1.709-1.438.734-1.125-.93-1.611-.904-2.102.143-.342.736-.396-.17-.123-2.046.66-4.445-.465-7.861-1.635-4.886-.734 1.859-.805 1.855-.875-.244-.105-3.809 2.436-3.467 4.346.563.995 2.074 1.804 4.662 1.827 5.736m-5.462-2.394c-1.006.586-1.834 1.736-1.834 2.564 0 .854-.516 1.533-1.15 1.533s-.875-.754-.516-1.658c.342-.9.617-2.074.617-2.609s1.068-.951 2.361-.93c2.104.03 2.156.149.522 1.1m-105.426 2.003c.439 1.32.268 1.346-1.172.17-.93-.757-2.174-1.097-2.783-.73-.59.367-1.078.146-1.078-.512.001-1.708 4.445-.781 5.033 1.072m-119.584 3.127c-.631 2.295-.779 4.176-.361 4.176.438 0 1.266-1.881 1.832-4.176.584-2.295.752-4.175.34-4.175-.393 0-1.198 1.88-1.811 4.175m225.931.196l5.352-.293.705 3.977c.389 2.176.93 4.715 1.195 5.619.688 2.366-11.207 2.268-12.281-.098-.564-1.271-.709-1.223-.777.268-.08 2.147-2.736 2.465-3.52.441-.877-2.275 1.561-11.161 2.832-10.331.633.37 3.561.563 6.494.417m-226.904 29.321c.391 13.354.902 25.705 1.145 27.418.223 1.73.709 8.199 1.051 14.377l.613 11.232-10.232-.076c-5.639-.049-17.771.393-26.975.979-9.182.586-24.465 1.393-33.939 1.779-9.492.393-19.357 1.076-21.945 1.539-5.354.955 13.232.441 45.971-1.266a1156.848 1156.848 0 0 1 45.07-1.248c13.033-.096 23.459-.512 23.191-.93-.268-.438-4.686-.801-9.813-.801-8.814 0-9.352-.123-9.84-2.346-.881-3.908-1.492-16.604-2.225-46.482-.439-17.678-1.1-28.469-1.756-28.469-.662.002-.783 8.446-.316 24.294m-51.467-13.574c.125 4.104.27 4.566.584 1.832.857-7.594 6.568-8.596 6.568-1.15 0 5.494-1.125 6.693-5.295 5.615-1.615-.436-2.125-.242-1.592.588 2.959 4.808 8.965.244 8.965-6.836v-5.542h-9.4l.17 5.493m168.02 2.834c3.293.605-.756.875-13.309.877-10.205.021-18.018-.391-18.018-.93.003-1.174 24.831-1.123 31.327.053m7.619 5.783c-.32 1.709-1.002 3.589-1.494 4.148-1.293 1.417-18.969.661-19.941-.855-.518-.83-.781-.728-.787.365-.043 1.393-.146 1.393-1.047 0-.561-.875-1.025-1.074-1.025-.484-.023 1.61-26.928 1.586-27.539-.006-.266-.677-.24-2.462.053-4l.537-2.783 25.924.244 25.926.24-.607 3.131m120.701 2.879l-.191 5.473-.396-4.641c-.293-3.341-.684-4.222-1.385-3.146-.738 1.195-.955 1-.959-.832-.021-1.393.594-2.344 1.541-2.344 1.218-.001 1.533 1.22 1.39 5.49m-303.81 2.859c0 1.217 3.539 1.217 7.303 0 2.146-.684 1.705-.854-2.346-.93-2.735-.07-4.957.346-4.957.93m12.548.342c.828.781 21.949 1.607 21.463.83-.223-.391-5.273-.854-11.207-1.002-5.91-.17-10.525-.098-10.256.172m25.584.56c1.148.438 5.615.465 9.916.121l7.836-.684-9.934-.1c-5.447-.067-8.964.247-7.818.663m189.946 7.081l-3.959 4.836-10.25-.611c-6.439-.391-10.01-.246-9.617.367.34.559 4.467 1.021 9.178 1.023 8.887.047 28.912 1.709 29.709 2.492.244.244-.854 1.902-2.438 3.682-3.271 3.666-15.969 5.254-12.941 1.637.732-.879 1.051-1.875.711-2.197-.928-.949-2.832.588-2.832 2.273 0 1.121-1.369 1.512-5.223 1.512-3.154 0-5.225-.465-5.225-1.174 0-.826-.467-.779-1.543.102-1.025.855-4.322 1.17-9.914.904-4.613-.221-8.395-.025-8.395.412 0 .439 9.986.779 22.213.758l22.193-.047 2.881-4.154c2.004-2.926 2.488-4.316 1.563-4.611-1.268-.416-15.602-2.639-17.041-2.639-.391 0 .439-1.537 1.854-3.395 5.625-7.52 4.982-8.372-.924-1.17m-73.975.562c-1.637 4.488-1.025 8.691 1.293 9.033 2.029.293 2.369-.17 2.494-3.395.094-2.053.217-4.301.266-5.01.146-1.8-3.442-2.339-4.053-.628m-51.467 7.645c.049 4.025.27 5.563.49 3.393.438-4.078.607-4.199 6.564-4.346 3.027-.074 3.713-.516 4.004-2.588.293-2.002 0-2.367-1.439-1.809-1.102.363-2.322.146-3.271-.539-1.053-.879-1.805-.904-2.613-.096-.807.809-.049 1.342 2.734 1.855 2.809.535 3.564 1.049 2.713 1.879-.832.832-1.688.807-3.15-.121-1.467-.904-2.221-.932-2.736-.076-.438.688-1.244-.045-2.07-1.855-1.224-2.779-1.319-2.463-1.226 4.303m54.055-3.057c0 2.201-.416 3.465-1.029 3.076-.582-.363-1.047-2.047-1.047-3.732s.465-3.074 1.047-3.074c.564-.003 1.029 1.679 1.029 3.73m-193.58-2.024c-.365.367-1.492.754-2.516.852-2.904.27-20.287 6.01-19.754 6.543.441.443 25.807-6.811 26.686-7.641.244-.219-.51-.414-1.658-.414-1.147-.002-2.391.293-2.758.66m75.682 1.124c4.643.729 5.443 10.766.834 10.766-1.709 0-2.027-.756-2.027-4.762 0-6.543-1.781-4.953-1.93 1.734l-.121 5.371 3.811-.609c5.102-.83 5.443-1.369 4.807-7.742l-.559-5.49-3.785.146c-2.956.123-3.177.265-1.03.586m157.203 4.613c-2.393 2.805-3.736 5.418-3.66 7.104.096 2.146.221 2.271.635.635.293-1.146 2.174-4.08 4.221-6.566 4.788-5.863 3.714-6.911-1.196-1.173m66.726-3.272c-.346.584.07 1.049.926 1.049s1.855-.465 2.219-1.049c.346-.563-.07-1.027-.926-1.027-.871 0-1.855.465-2.219 1.027m48.582 2.1c-1.346.877-1.32 1.021.197 1.023 1.316.021 1.861 1.146 2.17 4.467.375 4.248.408 4.199.586-1.049.18-5.613-.214-6.203-2.953-4.441m-47.922 1.976c-.074 1.369-.957 3.125-1.957 3.883-1.02.758-1.313 1.414-.658 1.416 1.979.07 3.711-2.855 3.223-5.395l-.459-2.396-.149 2.492m-17.505 11.084c.004 6.322.172 8.766.389 5.445.197-3.32.197-8.496 0-11.498-.218-2.982-.389-.269-.389 6.053m54.712-10.279c1.979.805 1.605 6.35-.518 7.547-1.609.924-1.559 1.023.518.877 3.143-.221 3.656-9.18.531-9.033-1.095.051-1.314.293-.531.609m-374.13 4.102c-5.688 1.906-10.84 3.957-11.445 4.564-1.637 1.637.246 1.344 6.645-1.049a530.277 530.277 0 0 1 10.441-3.76c2.588-.9 5.133-2.051 5.691-2.564 1.443-1.365.248-1.072-11.332 2.809m93.388.15c-2.002.242-4.246.945-4.957 1.535-1.563 1.295-1.777 10.865-.244 11.814.586.363.734 1.174.344 1.807-.463.756-.074.906 1.121.463 1-.391 3.127-.709 4.736-.709h2.908l-.123-7.834-.125-7.666c0 .098-1.652.366-3.66.59m2.078 7.592c0 3.811-.391 5.225-1.467 5.225-.828 0-2.172.268-3.002.584-1.49.563-3.367-8.301-2.15-10.252 2.197-3.541 6.619-.563 6.619 4.443m81.688 1.904l-.193 7.664-3.395-.709c-2.221-.465-3.029-.365-2.346.297 1.395 1.389 25.783 2.486 27.713 1.244 1.047-.658-.367-.979-4.418-.98l-5.936-.021-.414-3.906-.414-3.93-.172 3.904-.172 3.904-4.443-.293-4.443-.313-.605-7.252-.59-7.252-.172 7.643m95.439-4.078c-.322.533-.15 1.121.387 1.295 1.418.533 2.635 6.104 1.318 6.104-.588 0-1.293-1.053-1.539-2.346-.41-2.102-.463-2.072-.605.393-.102 1.951.482 2.926 1.951 3.297 1.707.459 2.096.045 2.074-2.223-.025-5.743-1.927-9.205-3.586-6.52m10.664-.176c-2.832.639-2.609 8.158.248 8.158 1.586 0 2.072-.658 1.977-2.641-.074-1.777-.271-2.049-.588-.828-.75 2.809-2.418 2.176-2.418-.881 0-1.975.418-2.563 1.539-2.145.832.338 1.783.17 2.1-.342.754-1.217-.586-1.83-2.858-1.321m10.448-.068c-2.436.635-2.656 9.475-.266 10.396 3.201 1.225 4.18-.244 3.809-5.76-.195-2.953-.66-5.301-1.049-5.246-.365.075-1.49.362-2.494.61m8.795 4.174l.193 5.031.393-4.443c.219-2.441.879-4.424 1.488-4.424.658 0 .949 1.883.709 4.689-.221 2.781.072 4.688.711 4.688 2.41 0 1.068-9.891-1.393-10.254-2.101-.291-2.275.076-2.101 4.713m-6.741 1.467c.174 2.979-.125 4.125-1.045 3.832-1.814-.588-2.328-8.105-.566-8.082.879-.002 1.465 1.564 1.611 4.25m-308.57 4.613c0 4.611.193 6.348.414 3.904.219-2.467.219-6.227-.004-8.371-.238-2.148-.412-.123-.41 4.467m343.773-5.227c-.361 1.393-.391 3.129-.096 3.881.293.734.564.051.611-1.535.049-1.564.611-2.859 1.25-2.859.678 0 .971 1.076.678 2.568-.27 1.416-.096 2.34.412 2.025 1.475-.906.982-5.375-.678-6.01-1.028-.412-1.761.245-2.177 1.93m53.42-.611c-.322.516.299.711 1.391.42 2.271-.588 3.881 7.881 1.76 9.322-.658.441-.316.76.854.779 1.684.004 1.857-.537 1.316-3.902a48.447 48.447 0 0 1-.664-5.74c-.018-1.926-3.604-2.61-4.657-.879m-11.283 1.223c-2.072 1.195-2.363 3.834-.682 6.18.834 1.195.979.756.535-1.832-.439-2.543-.217-3.395.953-3.395 2.242 0 2.002 5.881-.291 7.348-1.707 1.1-1.703 1.125.092.563 1.055-.318 2.105-.588 2.35-.588s.438-2.123.438-4.709c-.002-4.911-.395-5.325-3.395-3.567m-106.93 4.345c.316 2.441.73 8.324.949 13.061l.369 8.596-5.828-.658c-3.205-.367-5.889-.709-5.941-.762-.072-.07-.438-5.371-.805-11.813l-.682-11.695 3.93-.395 5.709-.586c1.323-.142 1.885.909 2.299 4.252m-37.554-2.609c-.998.707-1.143 2.635-.631 9.18.393 5.195 4.346 2.73 4.346-2.713 0-2.832.023-5.516.049-5.936.074-1.117-2.442-1.463-3.764-.531m155.183 2.879c0 2.021.387 3.66.834 3.66.461 0 .65-1.637.41-3.66-.236-2.004-.611-3.66-.832-3.66-.222 0-.412 1.656-.412 3.66m-152.857 2.17c-.709 5.348-1.756 5.715-1.756.613 0-2.418.51-4.348 1.143-4.348.685 0 .929 1.442.613 3.735m111.863.269c.246 1.662 1.096 2.953 1.934 2.953 1.559 0 3.242-4.488 2.096-5.613-.361-.365-.637.365-.637 1.611s-.48 2.27-1.049 2.27c-.58 0-1.049-.949-1.049-2.098s-.389-2.076-.857-2.076c-.463-.002-.676 1.32-.438 2.953m10.158 1.246c-.361.586-.098.93.609.781 2.148-.488 3.174 5.275 1.148 6.469-.953.561-1.199 1.025-.559 1.051 2.51.051 3.582-2.664 2.387-6.082-1.188-3.365-2.413-4.123-3.585-2.219m9.204 3.075c1.246 3.322.219 5.668-1.395 3.129-.807-1.271-.977-1.244-.977.293-.021 1.145.76 1.83 2.074 1.83 1.514 0 2.078-.707 2.078-2.52 0-3.121-.979-5.832-2.104-5.832-.46 0-.315 1.391.324 3.1m-89.555-.198c-1.611 1.594-.512 8.354 1.441 8.865 2.713.709 3.197.049 3.197-4.518.003-3.659-2.755-6.245-4.638-4.347m10.549-.119c-1.414 1.414-.654 6.936 1.146 8.301 2.934 2.225 3.393 1.734 3.393-3.781 0-5.059-2-7.057-4.539-4.52m19.679.344c-.361.563.096 1.049.979 1.049 1.17 0 1.635 1.027 1.635 3.641 0 2.023-.465 3.662-1.049 3.662-.564 0-1.029-1.148-1.029-2.541 0-1.395-.484-2.834-1.051-3.197-1.285-.783-1.387 3.613-.121 5.588 1.857 2.932 4.787.902 4.811-3.346-.001-4.026-2.731-7.204-4.175-4.856m-16.187 3.734c0 4.732-2.467 4.369-2.953-.416-.244-2.463.098-3.318 1.316-3.318 1.174 0 1.637 1.049 1.637 3.734m7.105-.072c-.436 3.756.609 5.758 3.025 5.758.91 0 1.365-1.561 1.365-4.709-.015-6.178-3.683-7.059-4.39-1.049m-17.75.856c.25 2.172-.025 2.658-1.313 2.17-1.957-.758-2.275-6.029-.322-5.393.731.242 1.446 1.685 1.635 3.223m21.092.777c0 1.686-.482 3.057-1.049 3.057-.584 0-1.049-1.662-1.049-3.713 0-2.221.416-3.445 1.049-3.074.584.363 1.049 2.025 1.049 3.73m-310.57-1.367c-.223.418-.098 3.369.314 6.521l.734 5.738.146-6.521c.146-6.102-.171-7.639-1.194-5.738m355.152.681c-1.732 4.494.635 6.643 3.514 3.178 1.002-1.221 1.029-1.904.121-2.811-.924-.928-1.221-.854-1.289.295-.049.953-.369.775-.855-.49-.735-1.875-.833-1.877-1.491-.172m44.463-.754c1.361.344 1.828 1.561 1.828 4.588 0 4.91-1.563 5.422-2.471.785-.871-4.25-1.611-3.492-.945.953.434 2.805.996 3.395 3.145 3.395 2.393 0 2.564-.295 1.979-3.252a35.81 35.81 0 0 1-.656-5.225c0-1.389-.707-1.93-2.348-1.854-1.78.101-1.901.247-.532.61m-10.844 1.268c.953.59 1.293 2.322 1.021 5.203-.314 3.172-.041 4.297 1.027 4.297.895 0 1.195-.633.809-1.658-.346-.902-.637-3.248-.637-5.225 0-2.709-.439-3.545-1.83-3.541-1.417.002-1.511.217-.39.924m-358.179 8.037c-17.996 1.535-35.303 4.174-65.284 9.982-22.532 4.35-31.007 6.271-30.399 6.855.275.293 2.767.049 5.542-.537 2.742-.588 8.771-1.807 13.362-2.709 4.609-.924 11.661-2.34 15.673-3.17 16.993-3.516 53.757-8.813 67.915-9.766 6.305-.439 10.549-1.025 9.4-1.32-1.17-.29-8.448.005-16.209.665m326.683.416c.295 1.168.053 2.096-.555 2.096-.594 0-1.301-.828-1.568-1.832-.369-1.439-.492-1.363-.588.416-.121 2.174 2.156 4.002 3.42 2.732.973-.953.754-4.248-.32-4.908-.512-.336-.703.346-.389 1.496m10.477-.885c.73.713 1.344 2.516 1.389 3.979.072 2.393.152 2.443.902.564 1.027-2.611.418-4.344-1.852-5.201-1.394-.533-1.488-.41-.439.658m4.855.295c-1.27 3.299.031 6.348 2.732 6.348 1.443 0 2.563-.586 2.492-1.316a196.021 196.021 0 0 1-.246-3.908c-.189-2.926-3.954-3.76-4.978-1.124m3.764 2.762c0 4.004-2.447 3.637-2.932-.416-.244-1.979.145-2.787 1.299-2.787 1.139 0 1.633.98 1.633 3.203m-10.426 1.754c-.002 1.295.459 2.346 1.025 2.346 1.316 0 1.316-1.1 0-3.129-.808-1.266-1.005-1.117-1.025.783"/>
	</symbol>
</svg>