<?xml version="1.0" encoding="UTF-8"?>
<!DOCTYPE svg PUBLIC "-//W3C//DTD SVG 1.1//EN" "http://www.w3.org/Graphics/SVG/1.1/DTD/svg11.dtd">
<svg xmlns="http://www.w3.org/2000/svg" xmlns:xlink="http://www.w3.org/1999/xlink">
	<symbol id="logo-studiomotio" viewBox="0 0 150.75 20">
		<path d="M4.57 6.75c1.23-.01 2.22.28 2.94.89.73.61 1.17 1.45 1.32 2.51l-.89.08c-.12-.85-.46-1.51-1.05-1.99-.58-.48-1.37-.71-2.35-.7-1.1-.02-1.93.22-2.5.71-.57.49-.85 1.16-.85 2.01 0 .24.03.45.08.63.05.19.11.34.16.47.06.13.17.25.34.37l.39.28c.09.07.27.14.54.21l.58.16c.12.04.36.09.71.17l.74.16c1.59.36 2.74.78 3.44 1.26.7.48 1.05 1.25 1.05 2.3 0 1.19-.42 2.09-1.24 2.73-.83.63-1.92.95-3.28.95-1.29 0-2.35-.3-3.18-.9-.82-.6-1.33-1.46-1.52-2.58l.89-.08c.17.9.59 1.58 1.27 2.04.68.46 1.54.7 2.59.7 1.1 0 1.97-.24 2.63-.71.65-.47.98-1.18.98-2.11 0-.85-.28-1.45-.85-1.8-.57-.36-1.6-.7-3.11-1.04-1.51-.34-2.49-.64-2.94-.92-.76-.49-1.15-1.26-1.17-2.31 0-1.07.37-1.92 1.1-2.56.73-.63 1.79-.94 3.18-.93zM17.21 19.01c.49 0 .95-.05 1.39-.15v.84c-.37.08-.88.13-1.52.13-1.01 0-1.82-.31-2.41-.91-.59-.61-.89-1.56-.89-2.84l.03-8.32h-2.44v-.81h2.44l.02-4.59h.91l-.02 4.59h3.83v.79h-3.83l-.05 8.2c0 2.05.85 3.07 2.54 3.07zM31.27 19.72h-.84v-2.36c-.29.68-.8 1.28-1.54 1.8-.73.53-1.64.79-2.73.79-1.41 0-2.54-.47-3.39-1.41-.85-.94-1.28-2.15-1.28-3.64v-7.95h.89v7.84c0 1.29.35 2.32 1.04 3.11.69.79 1.64 1.18 2.84 1.18 1.24 0 2.23-.42 2.98-1.27.75-.85 1.13-1.87 1.13-3.07v-7.79h.89v12.77zM47.56 19.72h-.86v-2.72c-.4.88-1.05 1.59-1.94 2.13-.89.54-1.96.81-3.21.81-1.78 0-3.25-.59-4.43-1.76-1.18-1.18-1.76-2.79-1.76-4.84 0-2.04.59-3.66 1.76-4.85s2.65-1.78 4.43-1.78c1.25 0 2.32.27 3.2.8.88.53 1.52 1.24 1.93 2.12v-9.63h.89v19.72zm-5.99-12.18c-1.54 0-2.81.51-3.82 1.54-1.01 1.02-1.51 2.44-1.51 4.25 0 1.83.5 3.25 1.51 4.28 1 1.02 2.28 1.54 3.82 1.54 1.51 0 2.73-.45 3.67-1.36.94-.9 1.41-2.23 1.41-3.97v-.94c0-1.74-.47-3.07-1.41-3.97-.94-.92-2.16-1.37-3.67-1.37zM53.09 1.14c.22 0 .41.08.56.23.15.15.23.34.23.56 0 .2-.08.38-.23.53-.15.15-.34.23-.56.23-.22 0-.4-.08-.54-.23-.15-.15-.22-.33-.22-.53 0-.22.08-.41.23-.56.15-.15.33-.23.53-.23zm.43 18.58h-.89v-12.77h.89v12.77zM64.01 6.73c1.81 0 3.32.6 4.54 1.8 1.22 1.2 1.83 2.8 1.83 4.8s-.61 3.6-1.83 4.81c-1.22 1.21-2.73 1.82-4.54 1.82-1.83 0-3.35-.6-4.56-1.8-1.21-1.2-1.81-2.81-1.81-4.82s.6-3.62 1.81-4.81c1.21-1.21 2.73-1.8 4.56-1.8zm3.89 2.37c-1.04-1.04-2.35-1.56-3.92-1.56-1.57 0-2.88.52-3.91 1.56-1.03 1.04-1.55 2.45-1.55 4.23 0 1.78.52 3.19 1.55 4.24 1.03 1.05 2.33 1.57 3.91 1.57 1.57 0 2.88-.52 3.92-1.57s1.56-2.46 1.56-4.24c0-1.78-.52-3.19-1.56-4.23z"/><path d="M124.41 9.51l-.02 4.87c0 .96.19 1.46.56 1.78.37.32.85.48 1.42.48.29 0 .67-.04 1.14-.13v3.3c-.71.1-1.4.15-2.05.15-1.49 0-2.66-.37-3.52-1.1-.85-.74-1.27-1.84-1.25-3.31l.03-6.04h-2.39v-3.2h2.41l.02-4.06h3.71l-.02 4.06h3.07v3.2h-3.11zM148.79 8.22c-1.31-1.25-2.98-1.88-5.01-1.88h-.02v3.17h.02c.96 0 1.74.33 2.33.98.59.65.89 1.54.89 2.68 0 1.13-.3 2.02-.89 2.67-.59.64-1.37.96-2.33.96-.97 0-1.74-.32-2.33-.96-.59-.64-.89-1.53-.89-2.66h-3.76c0 2.02.66 3.67 1.97 4.93 1.31 1.26 2.98 1.89 5.01 1.89s3.7-.63 5.01-1.89c1.31-1.26 1.97-2.91 1.97-4.94-.01-2.04-.66-3.69-1.97-4.95zM131.97 4.52c.63 0 1.15-.21 1.59-.65.43-.43.65-.95.65-1.56 0-.63-.21-1.16-.65-1.59-.43-.43-.96-.65-1.59-.65-.59 0-1.11.22-1.55.66-.44.44-.66.97-.66 1.57 0 .61.21 1.13.63 1.56.43.44.96.66 1.58.66zM130.12 6.3h3.7v6.91h-3.7zM114.95 8.22c-1.31-1.25-2.98-1.88-5.01-1.88s-3.7.63-5.01 1.88c-1.31 1.25-1.97 2.9-1.97 4.95h3.76c0-1.13.3-2.02.89-2.67.59-.65 1.37-.98 2.33-.98s1.74.33 2.33.98c.59.65.89 1.54.89 2.68 0 1.13-.3 2.02-.89 2.67-.59.64-1.37.96-2.33.96h-.05v3.19h.05c2.03 0 3.7-.63 5.01-1.89 1.31-1.26 1.97-2.91 1.97-4.94 0-2.04-.65-3.69-1.97-4.95zM98.79 7.78c-.91-.95-2.11-1.43-3.62-1.43-1.81 0-3.16.69-4.04 2.08-.9-1.39-2.27-2.08-4.11-2.08-1.63 0-2.77.53-3.45 1.6v-1.35h-3.5v13.12h3.71v-7.28c0-.8.21-1.43.63-1.92.42-.48 1-.72 1.73-.72.68 0 1.2.23 1.57.68.37.46.56 1.1.56 1.93v4.4h3.71v-4.83c.08-.68.33-1.21.72-1.6.4-.39.92-.58 1.56-.58.71 0 1.25.22 1.63.67.37.45.56 1.1.56 1.94v7.31h3.7v-8.05c0-1.63-.46-2.93-1.36-3.89z"/>
	</symbol>
	<symbol id="logo-motio-vertical" viewBox="0 0 354 1252">
		<g fill="none" stroke="#00ffd3" stroke-miterlimit="10"><path stroke-width="62.6" d="M233.5 209.4c49.2 0 89-40 89-89 0-49.2-40-89-89-89-49.2 0-89 39.8-89 89"/><path stroke-width="65.8" d="M111.3 330H234"/><circle cx="39.9" cy="329.6" r="39.15" fill="#00ffd3" stroke="none"/><path stroke-width="62.6" d="M39.3 497.7H248c40-.2 67.3-16 73-49.6 2.3-13.4 1-25.2 1-38.6"/><path stroke-width="57.6" d="M140 572.8V409.4"/><path stroke-width="62.6" d="M322.4 722.5c0-49.2-40-89-89-89-49.3 0-89 39.8-89 89s39.8 89 89 89"/><path stroke-width="62.6" d="M302 1071.3h-84.3c-33.3-.3-70.5-24.2-70.5-73 0-48 37-71.7 70-71.7H354"/><path stroke-width="62.6" d="M353.8 1217.8h-136c-33.4-.3-70.6-24.2-70.6-73 0-48 37-71.7 70-71.7H302"/><path stroke-width="62.6" d="M116.2 1220.8h237.6"/></g>
	</symbol>
	<symbol id="logo-motio-o" viewBox="0 0 100 100">
		<path fill="none" stroke-width="24" stroke-miterlimit="10" d="M12 50c0-21 17-38 38-38s38 17 38 38-17 38-38 38"/>
	</symbol>
	<symbol id="logo-facebook" viewBox="0 0 15 15">
		<path d="M8.68 15H5.86V7.5H3.98V4.92h1.88V3.38c0-2.12.57-3.4 3.05-3.4H11v2.58H9.7c-.95 0-1 .37-1 1.04v1.3H11l-.28 2.58H8.7L8.68 15z"/>
	</symbol>
	<symbol id="logo-twitter" viewBox="0 0 15 15">
		<path d="M4.72 13.19c5.66 0 8.76-4.38 8.76-8.17l-.01-.37c.6-.41 1.12-.91 1.53-1.49-.56.23-1.16.39-1.77.45.64-.36 1.12-.92 1.35-1.59-.6.34-1.26.57-1.95.7-1.16-1.16-3.11-1.21-4.35-.13-.8.7-1.14 1.75-.89 2.74-2.47-.11-4.78-1.21-6.34-3C.23 3.64.65 5.32 2 6.16c-.49-.01-.98-.14-1.4-.36v.04c0 1.37 1.03 2.54 2.47 2.82-.45.11-.93.13-1.39.05.4 1.17 1.56 1.97 2.88 2-1.09.8-2.44 1.23-3.82 1.23-.25 0-.49-.01-.73-.04 1.4.84 3.03 1.29 4.71 1.29"/>
	</symbol>
	<symbol id="logo-instagram" viewBox="0 0 15 15">
		<path d="M7.5 1.34c2 0 2.24.01 3.03.04.73.03 1.13.15 1.39.26.35.14.6.29.86.56.26.27.42.51.56.86.1.27.22.66.26 1.39.04.79.04 1.03.04 3.03s0 2.24-.04 3.03c-.03.73-.15 1.12-.26 1.39-.14.34-.3.6-.56.86-.26.26-.51.42-.86.56-.26.1-.66.23-1.39.26-.79.04-1.03.04-3.03.04s-2.24-.01-3.03-.04c-.73-.03-1.13-.15-1.39-.26-.35-.13-.6-.29-.86-.56-.26-.26-.42-.52-.56-.86-.11-.27-.23-.66-.26-1.39-.04-.8-.04-1.03-.04-3.03s0-2.24.04-3.03c.04-.73.16-1.13.26-1.39.13-.35.29-.6.56-.86.26-.26.51-.42.86-.56.27-.1.66-.23 1.39-.26.79-.02 1.03-.04 3.03-.04M7.5 0C5.46 0 5.21 0 4.41.04 3.6.08 3.06.21 2.58.4c-.48.18-.9.44-1.32.86-.43.41-.68.83-.87 1.32C.2 3.07.08 3.62.04 4.41 0 5.21-.02 5.46-.02 7.5s.01 2.29.05 3.09c.04.79.16 1.34.35 1.82.19.49.45.91.87 1.33.41.42.83.68 1.33.87.48.19 1.02.31 1.82.35.81.04 1.06.04 3.1.04s2.29-.01 3.09-.05c.8-.03 1.35-.16 1.83-.35.49-.19.91-.45 1.33-.87s.67-.83.87-1.33c.18-.48.31-1.03.35-1.82.04-.8.05-1.05.05-3.09 0-2.03-.01-2.29-.05-3.09-.04-.8-.16-1.34-.35-1.82-.19-.49-.45-.91-.87-1.32-.42-.42-.83-.68-1.33-.87C11.95.2 11.4.08 10.59.04 9.79 0 9.54 0 7.5 0zm0 3.65c-2.13 0-3.85 1.72-3.85 3.85s1.72 3.85 3.85 3.85 3.85-1.72 3.85-3.85S9.63 3.65 7.5 3.65zm0 6.35C6.12 10 5 8.88 5 7.5S6.12 5 7.5 5 10 6.12 10 7.5 8.88 10 7.5 10zm4.89-6.5c0 .49-.4.9-.9.9s-.9-.41-.9-.9c0-.5.4-.9.9-.9s.9.4.9.9z"/>
	</symbol>
	<symbol id="arrow-right" viewBox="0 0 12 12">
		<path stroke-miterlimit="10" d="M10 5.5L5.3.8M10 5.5l-4.7 4.8M1 5.5h8.3" stroke-linecap="round"/>
	</symbol>
	<symbol id="la-rochelle" viewBox="0 0 500 260">
		<path d="M182.273 64.521c-2.057 1.439-2.158 2.176-1.914 14.02l.258 12.5-3.059.891c-3.023.877-3.027.889-.39.979 4.872.164 5.357-.486 5.003-6.723-.439-7.73 4.854-11.162 10.89-7.061 8.167 5.549 14.201 2.617 13.751-6.684-.172-3.541-.54-6.439-.819-6.441-.278 0-1.974.42-3.768.934-2.804.805-3.63.594-5.889-1.5-3.114-2.887-10.557-3.372-14.063-.915m12.034 2.084c2.51 2.111 3.814 2.508 6.894 2.094l3.799-.51v5.428c0 7.508-2.93 9.09-9.021 4.869-2.234-1.549-3.655-3.08-3.156-3.402.499-.32 1.253-1.709 1.675-3.084.764-2.488.758-2.492-1.365-.596-1.173 1.049-2.133 2.561-2.133 3.36 0 1.066-.693 1.277-2.618.797-1.734-.438-3.198-.133-4.338.898-2.107 1.906-2.459-6.988-.365-9.211 1.406-1.49 2.698-1.668 1.821-.25-.34.551-.194 1 .324 1 .519 0 1.178-.898 1.466-2 .715-2.73 3.316-2.508 7.017.607M351 76.717c-.825.307-3.657 2.125-6.293 4.037-4.29 3.115-4.971 3.326-6.5 2.014-3.883-3.33-5.566-2.707-1.896.703l3.813 3.539 3.688-3.484c2.028-1.916 4.928-3.998 6.438-4.627 2.017-.836 4.271-3.379 2.5-2.818-.137.04-.925.327-1.75.636m-249.5 8.847C92.124 87.408 88 89.818 88 93.451c0 1.789-1.84 1.574-7.331-.852-11.151-4.93-27.984 11.381-24.165 23.414l.694 2.186 31.651-.652c17.408-.361 34.351-1.051 37.651-1.533 4.552-.666 2.743-.771-7.5-.438-30.037.982-52.226.676-53.118-.732-1.303-2.057-1.043-3.844.559-3.844.793 0 1.762-.52 2.154-1.154.443-.715.275-.883-.44-.441-.662.408-1.155.119-1.155-.676 0-.766 1.125-1.992 2.5-2.729s2.5-1.713 2.5-2.17.702-.83 1.559-.83c.981 0 1.281-.463.808-1.25-.521-.867-.239-.836.922.105 3.824 3.104 18.22.988 15.026-2.207-.357-.355.047-.648.896-.648s2.113.686 2.808 1.523c1.048 1.262 1.001 1.422-.276.932-.848-.324-1.806-.162-2.131.363-.874 1.416 3.331 2.215 7.852 1.492 3.188-.512 3.579-.785 2-1.402-1.747-.684-1.688-.777.536-.854 1.826-.064 2.128-.32 1.122-.959-.758-.48-1.091-1.336-.741-1.904.351-.566.071-1.629-.622-2.359-1.662-1.758-2.07-4.521-.786-5.316.576-.354 1.027.271 1.027 1.426 0 1.131.575 2.061 1.278 2.061 1.501 0 5.305 4.121 4.926 5.336-.254.813 5.417-.051 7.174-1.092.484-.287.137-.938-.771-1.445-.907-.508-1.365-1.381-1.019-1.941.376-.607-.284-.887-1.636-.688-1.246.182-2.458-.232-2.692-.92-.252-.736.429-1.25 1.657-1.25 1.146 0 2.083-.498 2.083-1.107 0-.607-.675-.848-1.5-.531-.914.352-1.5.002-1.5-.893 0-1.93 3.896-1.904 4.638.031.317.826 1.18 1.5 1.918 1.5 2.076 0 6.133 5.951 9.79 14.359 3.612 8.309 4.654 9.924 4.654 7.219 0-.965-2.021-5.967-4.491-11.111-6.612-13.782-13.507-18.165-25.009-15.906m168.979 7.674c-2.188 1.781-4.127 3.58-4.31 3.994-.183.416-2.319-.408-4.75-1.834-5.565-3.26-5.831-1.678-.325 1.926l4.094 2.682 4.547-4.002c2.5-2.203 4.935-4.004 5.406-4.004.473 0 .859-.449.859-1 0-1.693-1.381-1.133-5.521 2.238m-96.286 2.825c-.937 1.5-1.104 4.326-.613 10.375l.675 8.313-6.378 1.068c-3.507.588-8.5 1.367-11.095 1.734-7.378 1.041-8.855 7.129-4.024 16.582 1.841 3.6 3.157 33.178 1.799 40.416l-.648 3.449h-7.621c-10.033 0-8.664 1.191 1.671 1.455l8.041.203v-4.705c0-4.48.153-4.738 3.25-5.475l3.25-.771-3.237-.604-3.236-.605.236-14.75c.13-8.111-.101-14.75-.513-14.75-2.131.002-.622-6.098 1.73-6.99 4.593-1.746 33.302-3.316 39.419-2.154 3.081.584 8.526 1.313 12.101 1.617 5.883.502 14.042 2.285 18.029 3.938 1.249.52 1.461-.07 1.159-3.23-.202-2.125.08-5.49.629-7.479.717-2.598.672-3.875-.16-4.557-1.313-1.074-16.896-4.145-21.029-4.145-1.592 0-2.649-.518-2.553-1.25.459-3.537-.202-8.75-1.109-8.75-.664 0-.797 1.795-.372 5l.664 5-8.379-.016c-9.537-.018-11.137-.668-11.422-4.648-.462-6.461-.017-6.852 7.575-6.67 8.093.195 15.467-1.314 8.468-1.732-2.2-.133-6.588-.125-9.75.014l-5.75.256v-3.543c0-3.164-1.053-5.27-2.111-4.219-.214.211-.164 4.701.111 9.975.351 6.732.165 9.588-.625 9.586-.619 0-2.549.283-4.29.633l-3.165.633.687-10.633c.727-11.245.629-11.843-1.414-8.571m-84.418 1.496c-.326.326-1.871.418-3.434.205l-2.841-.387 2.5-1.084c2.346-1.018 5.125-.086 3.775 1.266M110.5 101c-.36.582.637 1 2.382 1 1.65 0 3.278-.449 3.618-1 .36-.582-.637-1-2.382-1-1.65 0-3.278.449-3.618 1m327.488 7.691c-.006 4.844-.698 11.283-1.537 14.309-.84 3.025-2.164 8.426-2.944 12s-2.809 12.291-4.51 19.369c-1.7 7.078-2.875 13.086-2.61 13.352.266.264.986-1.477 1.604-3.869 2.886-11.195 2.362-10.596 9.805-11.221 11.545-.971 12.8-.408 13.101 5.869.09 1.854-.639 2.023-9.895 2.314-9.273.293-9.947.186-9.4-1.5.489-1.514.408-1.566-.49-.314-.596.824-1.086 1.762-1.096 2.082-.027 1.047 8.6 2.58 10.565 1.877 1.292-.461 2.142-.158 2.599.928.621 1.475.688 1.473.75-.02.084-1.943 3.854-2.861 6.983-1.703 1.698.627 2.157 1.484 1.92 3.58-.171 1.516.153 2.674.72 2.574.568-.098 1.102.723 1.184 1.826.127 1.668-.101 1.799-1.338.77-.818-.678-3.063-1.176-4.986-1.104-2.746.104-3.689-.344-4.393-2.09-.685-1.703-.906-1.814-.957-.482-.053 1.475-1.037 1.725-6.488 1.643-5.079-.074-6.314-.393-5.891-1.5.373-.969.041-1.213-1.072-.783-.887.34-1.61 1.02-1.61 1.512 0 .49-.675.893-1.5.893s-1.5.496-1.5 1.104c0 .725 2.485 1.021 7.25.861 3.987-.133 10.288-.18 14-.104L453 171v3.559c0 2.119-.404 3.311-1 2.941-.55-.34-1-1.49-1-2.559 0-1.07-.477-1.941-1.059-1.941s-.801.42-.484.932.15 1.193-.369 1.514c-.52.322-1.141-.436-1.38-1.68-.377-1.961-.454-1.896-.571.484-.148 2.984-2.092 3.865-2.207 1-.063-1.57-.146-1.557-.806.123-.692 1.76-.838 1.77-2.431.178-1.487-1.488-1.693-1.502-1.693-.121 0 2.475-1.988 1.832-2.1-.68-.096-2.137-.135-2.125-.803.25-.68 2.42-.738 2.436-1.869.5-1.021-1.75-1.172-1.779-1.199-.25-.033 1.967-2.021 2.451-2.045.5-.01-.773-.295-.869-.75-.25-1.219 1.656-6.232 1.287-6.25-.461-.01-.846-.487-2.215-1.064-3.039-.744-1.064-.854 1.367-.382 8.371.479 7.09.356 9.682-.437 9.191-1.703-1.053-1.303.834.647 3.039 5.992 6.777 5.851 6.037 1.591 8.283-2.111 1.113-3.256 2.047-2.541 2.07s2.669-.664 4.344-1.529c3.781-1.955 3.515-2.404 4.08 6.82.354 5.77.182 7.504-.674 6.793-.828-.686-1.148-.016-1.148 2.396 0 2.336.393 3.197 1.3 2.85.733-.281 1.3.199 1.3 1.107 0 .885-.675 1.605-1.5 1.605-.938 0-1.5.947-1.5 2.531 0 1.395.675 2.791 1.5 3.107 3.555 1.363 1.703 4.656-2.25 4.004-2.063-.342-4.255-.625-4.872-.631-.739-.008-1.366-4.771-1.843-14.01-.396-7.699-1.137-14.256-1.646-14.57-.554-.342-.648 1.756-.24 5.234.656 5.594.615 5.742-1.119 4.008-2.079-2.08-3.983-.922-3.239 1.971.384 1.492.501 1.404.594-.453.064-1.27.566-2.031 1.116-1.691 1.393.859 1.257 4.5-.167 4.5-.642 0-.83.338-.418.748.412.412 1.387-.123 2.167-1.189 1.348-1.842 1.426-1.791 1.58 1.002.734 13.324.604 13.729-4.268 13.266l-3.395-.323-.777-16.416-.777-16.418 2.777-3.066c1.793-1.98 1.98-2.398.527-1.178l-2.25 1.889v-5.166c0-4.039-.46-5.543-2.111-6.904-1.162-.957-2.685-2.283-3.385-2.945-.699-.662-3.094-2.154-5.32-3.314-2.226-1.16-4.584-2.754-5.236-3.543-.655-.789-1.871-1.438-2.703-1.438-1.915 0 1.686 2.896 7.257 5.838 9.173 4.844 9.104 4.676 9.306 23.205.1 9.053.459 19.271.805 22.707.613 6.158.587 6.25-1.862 6.25-2.942 0-3.718-3.063-3.735-14.75-.007-3.986-.349-7.25-.762-7.252-.413 0-.525 4.77-.25 10.6.536 11.365.475 11.602-2.826 10.738-1.98-.518-2.183-1.25-2.279-8.201-.059-4.197-.472-11.684-.918-16.635-.606-6.713-.688-4.723-.321 7.842.465 15.939.394 16.813-1.331 16.332-1.003-.279-10.71-1.064-21.573-1.744-18.979-1.189-19.751-1.32-19.767-3.332-.073-10.436-1.309-27.285-2.053-28.047-.582-.592-.932-.145-.932 1.189 0 2.646-.326 2.836-6.386 3.715l-4.888.709.475-15.572c.365-12.023.82-15.975 2.001-17.33.841-.969 1.796-3.826 2.123-6.355l.594-4.596-5.709-.904-5.714-.908-.313-5.5c-.563-9.889.313-12.184 4.363-11.424 2.999.563 3.448.387 3.448-1.357 0-2.248-2.16-3.504-6.25-3.633L333 133.5l-.003 11-.003 11-15.247.078c-8.614.045-17.531.633-20.497 1.352L292 158.2v4.18c0 2.297.693 5.168 1.542 6.379 1.218 1.738 1.479 4.576 1.245 13.473l-.297 11.27-8.245.289-8.245.289.116 2.709c.069 1.633.296 2.027.567.994.588-2.236 4.604-2.875 16.065-2.547 5.088.145 9.251-.074 9.25-.486 0-.412-1.8-.75-4-.75h-4v-22.782l3.571-.416c4.568-.535 40.283-.297 40.787.27.209.236.009 3.354-.446 6.928s-.574 13.475-.265 22c.787 21.637.791 22.893.104 23.58-.335.334-8.224-.191-17.528-1.174l-16.918-1.781-.211-11.537c-.283-15.406-1.096-15.596-1.096-.256 0 13.604.291 13.176-7.875 11.543-3.053-.611-3.125-.754-3.141-6.25-.01-4.002-.295-5.191-.984-4.125-.533.824-.977 3.412-.984 5.75L291 220h-12.918c-16.206 0-16.039.064-16.257-6.357l-.175-5.143-.396 4.49c-.382 4.352-3.499 9.043-4.707 7.088-.306-.496-1.343-.75-2.303-.564-.96.182-2.421.412-3.246.508s1.425.754 5 1.463c3.575.711 6.849 1.084 7.271.83 1.006-.598 18.645-.49 35.729.221 14.269.594 24.542 1.484 45.094 3.92 6.927.818 21.552 1.945 32.5 2.504s21.257 1.258 22.906 1.557 5.7.771 9 1.053 9.601 1.186 14 2.01c4.399.826 10.024 1.729 12.5 2.006s8.774 1.348 14 2.379a2817.25 2817.25 0 0 0 18.5 3.568c7.62 1.438 13.854 2.939 21.5 5.182.92.27.804-.006-.3-.713-3.615-2.316-14.637-4.9-42.891-10.059l-11.689-2.133-.561-5.154c-.308-2.834-.772-11.813-1.035-19.955l-.479-14.803 6.57-2.947c8.605-3.861 9.811-3.838 9.008.178-.344 1.719-.639 4.307-.655 5.75-.026 2.266-.17 2.385-1.05.875-.561-.963-1.758-1.75-2.661-1.75-1.417 0-1.388.186.212 1.355 1.2.877 1.616 1.975 1.182 3.111-.481 1.254-.274 1.602.723 1.221 1.12-.432 1.521 1.582 2.029 10.137 1.064 17.953 1.76 24.176 2.697 24.176 1.166 0 1.137-2.479-.115-9.074-.559-2.941-1.074-13.914-1.148-24.387-.075-10.471-.313-18.533-.527-17.916-.216.617-4.197 2.594-8.851 4.393-7.537 2.912-8.458 3.545-8.458 5.813v2.543l-2.85-2.729c-2.568-2.461-2.863-3.426-2.979-9.727l-.13-6.994 12.473.141 12.475.141-.563 2.646c-.493 2.33-.399 2.453.783 1.014.853-1.037 5.083-2.289 11.59-3.428 5.636-.986 9.882-2.158 9.435-2.604-.446-.447-2.366-.367-4.267.178-6.687 1.918-6.774 1.828-7.256-7.26-.655-12.383-3.937-21.199-4.888-13.139-.5 4.24-2.613 4.053-3.377-.299-.366-2.098-2.021-8.988-3.672-15.314-1.653-6.324-3.416-13.232-3.918-15.354-.502-2.119-1.574-5.135-2.385-6.699-.884-1.709-1.472-5.639-1.472-9.836 0-3.846-.45-7.27-1-7.609-.635-.399-1.002 2.572-1.01 8.187m-325.065-5.441c-1.279 4.182-.392 4.984 3.577 3.234 2.933-1.293 2.944-1.324.5-1.418-1.993-.078-2.196-.293-1-1.066 1.213-.783 1.069-.973-.75-.984-1.237-.008-2.284.095-2.327.234m-21.173 2.439c-.963.252-1.75.922-1.75 1.49s.712.762 1.582.428 2.22-.607 3-.607c.78 0 1.418-.449 1.418-1 0-1.027-1.18-1.113-4.25-.311m-68.865 3.692c-8.525 3.045-11.865 7.734-11.879 16.678l-.006 3.56 10.199.254c5.609.143 10.548.473 10.975.734.428.266 4.121.178 8.207-.191l7.43-.676.428-3.619c.511-4.322-.713-10.445-2.187-10.938-.579-.193-1.053-1.01-1.053-1.814.001-4.109-14.475-6.719-22.114-3.988m292.615-.152c-1.65.588-4.271 2.127-5.827 3.42-3.394 2.822-3.506 2.828-6.673.352-1.375-1.074-3.175-1.949-4-1.943-1.109.006-.979.391.5 1.475 1.1.807 3.012 2.412 4.249 3.572l2.25 2.105 3.655-3.211c2.012-1.766 4.938-3.656 6.502-4.201 2.043-.713 4.545-3.332 2.594-2.717-.137.04-1.6.558-3.25 1.148m-271.248 7.365c4.356 7.768 3.58 10.688-3.123 11.748-6.668 1.055-16.756-.334-16.339-2.248.218-1.002-.777-1.219-4-.871-2.36.252-3.535.279-2.613.059 1.673-.398 4.663-3.279 3.406-3.279-.364 0-.087-.615.615-1.367 1.076-1.15 1.47-1.111 2.507.25 1.09 1.432 1.235 1.357 1.263-.633.022-1.563.635-2.25 2.001-2.25 1.256 0 1.778-.496 1.442-1.371-.776-2.023 2.286-2.789 4.06-1.018.841.842 1.529 1.08 1.529.531s.788-1.203 1.75-1.455c1.077-.281.692-.502-1-.574-3.333-.141-3.544-1.271-.5-2.684 3.494-1.618 6.009-.176 9.002 5.162m16.486-.905c-.93.93-2.026 1.355-2.436.947-.41-.41-.083-1.164.727-1.676 2.435-1.538 3.516-1.077 1.709.729M181 120.5c0 2.475.022 4.838.05 5.25.027.412-1.323 1.031-3 1.373l-3.05.623-.185-5.123-.185-5.123-.369 5.307-.369 5.307-3.696-.307c-3.474-.289-3.732-.547-4.304-4.307l-.608-4-.142 4.143c-.123 3.58-.497 4.229-2.76 4.797-3.125.785-2.812 1.119-4.162-4.439l-1.092-4.5.186 5c.164 4.402-.067 5.037-1.932 5.305-1.855.264-4.382-5.016-4.382-9.154 0-.258 3.262-.984 7.25-1.617 3.988-.631 9.05-1.518 11.25-1.971 2.2-.451 5.688-.875 7.75-.941l3.75-.119v4.496m8 1c0 8.277-5.592 8.656-6.153.416-.403-5.906-.398-5.916 3.32-5.916 2.767 0 2.833.127 2.833 5.5m13.069.5c.051 3.949.309 4.936.915 3.5.464-1.1.6-3.688.302-5.75-.496-3.436-.342-3.75 1.836-3.742 3.437.01 14.75 1.904 19.141 3.203l3.763 1.113-.594 5.088c-.833 7.143-1.02 7.51-3.498 6.861-2.027-.531-2.149-1.021-1.656-6.674.327-3.738.221-5.131-.273-3.602-.443 1.375-.85 3.965-.905 5.75-.213 6.924-4.071 4.227-4.289-3l-.189-6.25-.363 5.813c-.54 8.652-5.415 8.414-6.346-.313l-.587-5.5-.163 5.383-.163 5.382-3.75-.619c-2.062-.342-4.762-.625-6-.631-2.023-.012-2.268-.541-2.43-5.264l-.18-5.25-.375 4.75c-.587 7.447-6.265 7.371-6.265-.082 0-6.031.057-6.084 6.603-5.854l5.394.188.072 5.5m238.593 3.244c.279-.691.92-1.002 1.423-.691 1.767 1.092.89 2.447-1.585 2.447-1.721 0-2.495-.547-2.484-1.75.014-1.51.16-1.545 1.075-.25.804 1.135 1.184 1.193 1.571.244m5.313 12.127c.021 1.496-.258 1.639-1.377.709-1.078-.893-1.545-.863-2.011.127-.333.713-.389-.166-.124-1.945.637-4.268-.455-7.529-1.568-4.689-.701 1.799-.758 1.781-.824-.238-.117-3.637 2.316-3.314 4.154.545.947 1.989 1.734 4.464 1.75 5.491m-5.225-2.291c-.962.561-1.75 1.672-1.75 2.471 0 .797-.498 1.449-1.107 1.449-.607 0-.834-.713-.5-1.582s.607-1.994.607-2.5 1.012-.904 2.25-.889c2.009.03 2.063.141.5 1.051M339.834 137c.416 1.271.244 1.297-1.128.164-.89-.734-2.088-1.047-2.662-.691s-1.044.136-1.044-.485c0-1.644 4.256-.756 4.834 1.012m-114.488 3c-.588 2.199-.735 4-.329 4 .407 0 1.197-1.801 1.755-4s.706-4 .328-4-1.167 1.801-1.754 4m216.284.182l5.13-.275.674 3.797c.371 2.088.883 4.516 1.139 5.393.654 2.25-10.73 2.158-11.752-.096-.557-1.229-.691-1.182-.75.25-.082 2.045-2.619 2.363-3.363.426-.84-2.188 1.479-10.682 2.703-9.904.598.375 3.398.561 6.219.409M224.418 168.25c.374 12.787.866 24.6 1.092 26.25.227 1.65.681 7.84 1.008 13.758l.594 10.756-9.806-.082c-5.393-.047-17.006.381-25.806.949-8.8.566-23.425 1.334-32.5 1.703-9.075.367-18.525 1.031-21 1.473-5.135.916 12.672.428 44-1.207 11.275-.588 30.694-1.133 43.154-1.209 12.459-.078 22.446-.479 22.191-.891-.255-.412-4.478-.75-9.385-.75-8.436 0-8.95-.123-9.428-2.25-.845-3.748-1.427-15.902-2.134-44.5-.418-16.916-1.05-27.25-1.666-27.25-.648 0-.757 8.072-.314 23.25m-49.258-13c.12 3.941.259 4.379.556 1.75.822-7.264 6.284-8.227 6.284-1.107 0 5.264-1.087 6.42-5.06 5.381-1.557-.406-2.032-.23-1.537.568 2.844 4.604 8.597.225 8.597-6.541V150h-9l.16 5.25M336 157.969c3.139.572-.721.828-12.75.84-9.766.012-17.25-.377-17.25-.895 0-1.125 23.775-1.08 30 .055m7.289 5.531c-.305 1.65-.952 3.436-1.439 3.969-1.24 1.355-18.16.639-19.082-.811-.506-.795-.746-.688-.768.342-.027 1.332-.139 1.332-1 0-.533-.824-.977-1.025-.984-.445-.021 1.535-25.774 1.512-26.365-.023-.243-.637-.215-2.354.064-3.818l.51-2.662 24.81.227 24.81.225-.556 2.996m115.536 2.75l-.175 5.25-.394-4.449c-.28-3.186-.651-4.039-1.31-3-.715 1.131-.922.953-.934-.801-.01-1.34.592-2.25 1.484-2.25 1.169 0 1.465 1.172 1.329 5.25M168 169c0 1.156 3.386 1.156 7 0 2.038-.652 1.621-.818-2.25-.9-2.613-.055-4.75.349-4.75.9m12.016.326c.787.75 21.012 1.529 20.556.791-.229-.371-5.057-.805-10.729-.963-5.671-.16-10.093-.082-9.827.172m24.484.539c1.1.406 5.375.451 9.5.1l7.5-.643-9.5-.098c-5.225-.052-8.6.235-7.5.641m181.834 6.772l-3.799 4.637-9.803-.596c-6.164-.377-9.582-.242-9.207.361.326.529 4.277.973 8.783.986 8.502.027 27.683 1.633 28.43 2.379.234.236-.811 1.816-2.321 3.512-3.131 3.514-15.288 5.045-12.397 1.561.696-.838 1.006-1.785.689-2.1-.891-.893-2.709.572-2.709 2.182 0 1.063-1.313 1.441-5 1.441-3.029 0-5-.441-5-1.121 0-.783-.449-.75-1.48.105-.99.822-4.139 1.109-9.5.865-4.41-.201-8.02-.023-8.02.393s9.563.74 21.25.721l21.25-.039 2.76-3.988c1.922-2.777 2.377-4.117 1.5-4.408-1.216-.4-14.941-2.527-16.32-2.527-.373 0 .42-1.463 1.764-3.25 5.4-7.196 4.773-8.001-.87-1.114m-70.822.539c-1.562 4.289-.984 8.328 1.238 8.643 1.951.279 2.27-.152 2.4-3.248.082-1.965.193-4.127.25-4.807.138-1.705-3.293-2.225-3.888-.588m-49.263 7.324c.048 3.85.265 5.313.479 3.25.41-3.91.572-4.02 6.271-4.162 2.897-.072 3.56-.498 3.838-2.479.271-1.91-.007-2.258-1.377-1.732-.942.361-2.353.129-3.13-.518-1.021-.846-1.721-.871-2.504-.086-.783.783-.053 1.281 2.615 1.783 2.695.504 3.406.994 2.606 1.793-.8.801-1.626.77-3.028-.105-1.404-.877-2.115-.9-2.619-.086-.418.676-1.193-.025-1.965-1.771-1.178-2.672-1.266-2.367-1.186 4.113M318 181.559c0 2.119-.404 3.311-1 2.941-.55-.34-1-1.941-1-3.559 0-1.619.45-2.941 1-2.941s1 1.602 1 3.559m-185.302-1.924c-.349.35-1.437.711-2.416.801-2.778.26-19.41 5.77-18.914 6.268.43.43 24.711-6.518 25.549-7.309.229-.217-.484-.395-1.584-.395s-2.285.285-2.635.635m72.433 1.07c4.457.686 5.213 10.295.81 10.295-1.637 0-1.941-.713-1.941-4.559 0-6.268-1.71-4.732-1.854 1.664l-.116 5.15 3.649-.592c4.886-.793 5.21-1.314 4.595-7.416l-.528-5.25-3.623.15c-2.824.121-3.043.242-.992.558m150.488 4.428c-2.287 2.672-3.576 5.174-3.503 6.797.093 2.055.216 2.176.616.596.274-1.084 2.086-3.908 4.024-6.273 4.603-5.618 3.576-6.628-1.137-1.12M419.5 182c-.34.551.057 1 .882 1s1.778-.449 2.118-1-.057-1-.882-1-1.778.449-2.118 1m46.5 2c-1.292.836-1.266.971.193.984 1.261.012 1.789 1.098 2.074 4.266.365 4.063.391 4.02.558-1 .179-5.369-.203-5.945-2.825-4.25m-45.863 1.891c-.076 1.313-.925 2.986-1.887 3.717-.962.732-1.243 1.344-.622 1.361 1.892.053 3.552-2.727 3.085-5.164l-.441-2.305-.135 2.391M403.374 196.5c.002 6.051.167 8.396.366 5.213.199-3.182.197-8.133-.004-11s-.364-.264-.362 5.787m52.376-9.838c1.895.766 1.527 6.08-.5 7.232-1.538.875-1.479.977.5.838 2.996-.211 3.491-8.789.5-8.654-1.045.047-1.247.283-.5.584m-358.153 3.926c-5.447 1.824-10.374 3.789-10.95 4.365-1.574 1.574.236 1.287 6.367-1.004a475.984 475.984 0 0 1 9.986-3.598c2.475-.854 4.927-1.953 5.45-2.449 1.383-1.312.247-1.033-10.853 2.686m89.407.154c-1.923.232-4.06.891-4.75 1.461-1.497 1.244-1.69 10.41-.238 11.307.559.346.71 1.125.336 1.729-.444.721-.074.869 1.066.434.96-.369 3.002-.67 4.537-.67h2.792l-.123-7.496a4747.67 4747.67 0 0 0-.124-7.342c0 .087-1.573.345-3.496.577M189 198c0 3.65-.383 5-1.418 5-.78 0-2.069.25-2.864.555-1.429.549-3.216-7.939-2.064-9.805 2.095-3.389 6.346-.543 6.346 4.25m78.177 1.828l-.177 7.33-3.25-.684c-2.125-.449-2.904-.348-2.25.293 1.346 1.318 24.682 2.361 26.538 1.188.996-.631-.351-.93-4.228-.939l-5.689-.016-.393-3.75-.394-3.75-.168 3.734-.168 3.734-4.25-.281-4.25-.279-.573-6.955-.572-6.953-.176 7.328m91.376-3.914c-.311.504-.146 1.066.367 1.25 1.366.492 2.518 5.836 1.258 5.836-.57 0-1.234-1.012-1.472-2.25-.388-2.014-.448-1.973-.57.383-.096 1.859.451 2.787 1.864 3.156 1.631.428 1.997.033 1.986-2.133-.028-5.5-1.847-8.806-3.433-6.242m10.197-.166c-2.718.617-2.488 7.822.25 7.822 1.505 0 1.971-.627 1.884-2.535-.077-1.693-.268-1.955-.573-.785-.699 2.678-2.311 2.08-2.311-.857 0-1.881.409-2.449 1.468-2.043.808.311 1.716.164 2.017-.324.724-1.172-.558-1.77-2.735-1.278m10-.059c-2.32.605-2.534 9.072-.25 9.949 3.07 1.178 4.01-.238 3.652-5.514-.189-2.818-.639-5.072-1-5.012-.358.068-1.44.326-2.402.577m8.425 3.991l.175 4.82.383-4.25c.211-2.338.853-4.25 1.427-4.25.623 0 .897 1.814.685 4.5-.211 2.66.065 4.5.678 4.5 2.301 0 1.019-9.477-1.328-9.82-2.019-.293-2.181.068-2.02 4.5m-6.443 1.402c.164 2.857-.135 3.951-1 3.668-1.741-.572-2.244-7.752-.543-7.744.827.002 1.397 1.508 1.543 4.076M85.343 205.5c.003 4.4.179 6.076.39 3.725.212-2.354.209-5.953-.006-8-.215-2.049-.388-.125-.384 4.275m329.07-5.008c-.335 1.332-.375 3.004-.09 3.715.286.711.555.055.598-1.457s.581-2.75 1.196-2.75c.646 0 .918 1.035.645 2.471-.261 1.357-.088 2.23.383 1.939 1.428-.881.957-5.156-.635-5.768-.994-.382-1.692.233-2.097 1.85m51.146-.586c-.31.498.289.686 1.326.414 2.176-.568 3.709 7.531 1.688 8.914-.634.436-.304.742.808.75 1.618.014 1.794-.508 1.262-3.734-.342-2.063-.625-4.537-.631-5.5-.013-1.838-3.438-2.486-4.453-.844m-10.809 1.174c-1.971 1.148-2.248 3.678-.65 5.92.814 1.143.937.725.51-1.75-.422-2.449-.195-3.25.916-3.25 2.138 0 1.918 5.615-.274 7.025-1.634 1.051-1.629 1.088.082.551 1.007-.316 2.021-.576 2.25-.576s.417-2.025.417-4.5c-.001-4.705-.373-5.096-3.251-3.42m-102.346 4.17c.289 2.338.693 7.957.896 12.488l.368 8.24-5.584-.629c-3.07-.346-5.634-.678-5.695-.738-.063-.063-.406-5.146-.765-11.301l-.651-11.189 3.764-.393c2.07-.215 4.523-.467 5.453-.563 1.275-.124 1.816.874 2.214 4.085m-35.963-2.5c-.953.676-1.078 2.516-.599 8.787.382 4.961 4.156 2.602 4.156-2.6 0-2.715.022-5.275.053-5.689.076-1.057-2.345-1.391-3.61-.498M465 205.5c0 1.926.359 3.5.799 3.5s.616-1.574.393-3.5c-.227-1.926-.586-3.5-.801-3.5s-.391 1.574-.391 3.5m-146.316 2.066c-.69 5.125-1.684 5.48-1.684.6 0-2.32.479-4.166 1.082-4.166.663 0 .895 1.381.602 3.566m107.078.266c.235 1.602 1.04 2.834 1.852 2.834 1.49 0 3.094-4.293 2.008-5.379-.342-.342-.62.355-.62 1.545 0 1.193-.45 2.168-1 2.168s-1-.9-1-2-.372-2-.827-2-.641 1.275-.413 2.832m9.722 1.193c-.35.563-.088.9.578.75 2.063-.469 3.045 5.057 1.101 6.193-.915.533-1.156.982-.535 1.002 2.396.063 3.415-2.549 2.274-5.822-1.123-3.218-2.291-3.945-3.418-2.123m8.808 2.938c1.201 3.184.205 5.436-1.331 3.008-.779-1.234-.934-1.189-.945.279-.01 1.088.74 1.75 1.984 1.75 1.449 0 2-.668 2-2.418 0-2.977-.943-5.582-2.02-5.582-.444 0-.303 1.332.312 2.963m-85.733-.188c-1.543 1.541-.488 8.01 1.383 8.5 2.608.682 3.06.045 3.06-4.326-.002-3.506-2.636-5.98-4.443-4.174m10.108-.109c-1.347 1.348-.623 6.646 1.083 7.941 2.823 2.143 3.25 1.67 3.25-3.607 0-4.852-1.908-6.76-4.333-4.334m18.835.33c-.341.553.082 1.004.939 1.004 1.115 0 1.559.996 1.559 3.5 0 1.926-.45 3.5-1 3.5s-1-1.098-1-2.441c0-1.342-.45-2.719-1-3.059-1.219-.754-1.311 3.463-.115 5.348 1.784 2.816 4.592.859 4.604-3.207.011-3.854-2.598-6.893-3.987-4.645M372 215.582c0 4.52-2.361 4.176-2.813-.408-.232-2.346.094-3.174 1.25-3.174 1.127 0 1.563 1 1.563 3.582m6.811-.082c-.418 3.586.586 5.5 2.891 5.5.874 0 1.3-1.475 1.3-4.5-.002-5.91-3.52-6.752-4.191-1m-16.995.82c.246 2.078-.031 2.535-1.25 2.066-1.875-.721-2.185-5.756-.316-5.145.688.23 1.393 1.613 1.566 3.079m20.184.739c0 1.619-.45 2.941-1 2.941s-1-1.602-1-3.559c0-2.119.404-3.311 1-2.941.55.34 1 1.941 1 3.559M84.714 215.75c-.222.412-.087 3.225.3 6.25l.704 5.5.141-6.25c.132-5.842-.173-7.305-1.145-5.5m339.961.654c-1.649 4.303.614 6.361 3.36 3.053.97-1.168.999-1.822.123-2.699-.877-.877-1.176-.807-1.229.293-.045.908-.353.73-.824-.479-.701-1.787-.804-1.799-1.43-.168m42.575-.715c1.292.338 1.75 1.484 1.75 4.383 0 4.711-1.497 5.193-2.382.768-.816-4.08-1.534-3.344-.886.91.406 2.674.939 3.25 3.006 3.25 2.279 0 2.453-.289 1.887-3.125-.344-1.719-.625-3.969-.625-5 0-1.313-.675-1.84-2.25-1.76-1.693.088-1.816.231-.5.574m-10.384 1.207c.913.578 1.235 2.232.974 4.984-.289 3.029-.027 4.117.991 4.117.851 0 1.149-.607.776-1.58-.334-.871-.607-3.121-.607-5 0-2.596-.422-3.414-1.75-3.402-1.373.012-1.455.202-.384.881M114 224.598c-17.234 1.467-33.795 3.998-62.5 9.551-21.561 4.172-29.678 6.006-29.108 6.576.275.275 2.662.041 5.304-.521s8.404-1.729 12.804-2.598c4.4-.865 11.15-2.227 15-3.023 16.269-3.363 51.445-8.428 65-9.354 6.05-.412 10.1-.982 9-1.266s-8.075.002-15.5.635m312.71.4c.288 1.102.054 2.002-.521 2.002-.573 0-1.248-.787-1.5-1.75-.36-1.381-.481-1.297-.573.393-.113 2.08 2.079 3.83 3.286 2.621.916-.916.709-4.076-.311-4.705-.495-.311-.669.339-.381 1.439m10.04-.857c.688.691 1.282 2.408 1.32 3.811.063 2.287.15 2.346.861.549.988-2.498.402-4.158-1.76-4.98-1.339-.513-1.423-.39-.421.62m4.641.287c-1.216 3.164.034 6.072 2.609 6.072 1.387 0 2.455-.557 2.4-1.25-.057-.688-.168-2.375-.25-3.75-.168-2.795-3.787-3.609-4.759-1.072m3.609 2.654c0 3.826-2.355 3.484-2.816-.408-.225-1.895.141-2.674 1.25-2.674 1.084 0 1.566.951 1.566 3.082m-9.984 1.668c-.009 1.238.436 2.25.984 2.25 1.253 0 1.253-1.061 0-3-.784-1.213-.973-1.068-.984.75"/>
	</symbol>
</svg>