<?xml version="1.0" encoding="UTF-8"?>
<!DOCTYPE svg PUBLIC "-//W3C//DTD SVG 1.1//EN" "http://www.w3.org/Graphics/SVG/1.1/DTD/svg11.dtd">
<svg xmlns="http://www.w3.org/2000/svg" xmlns:xlink="http://www.w3.org/1999/xlink">
  <symbol id="logo-facebook" viewBox="0 0 15 15">
    <path d="M8.68 15H5.86V7.5H3.98V4.92h1.88V3.38c0-2.12.57-3.4 3.05-3.4H11v2.58H9.7c-.95 0-1 .37-1 1.04v1.3H11l-.28 2.58H8.7L8.68 15z"/>
  </symbol>
  <symbol id="logo-twitter" viewBox="0 0 15 15">
    <path d="M4.72 13.19c5.66 0 8.76-4.38 8.76-8.17l-.01-.37c.6-.41 1.12-.91 1.53-1.49-.56.23-1.16.39-1.77.45.64-.36 1.12-.92 1.35-1.59-.6.34-1.26.57-1.95.7-1.16-1.16-3.11-1.21-4.35-.13-.8.7-1.14 1.75-.89 2.74-2.47-.11-4.78-1.21-6.34-3C.23 3.64.65 5.32 2 6.16c-.49-.01-.98-.14-1.4-.36v.04c0 1.37 1.03 2.54 2.47 2.82-.45.11-.93.13-1.39.05.4 1.17 1.56 1.97 2.88 2-1.09.8-2.44 1.23-3.82 1.23-.25 0-.49-.01-.73-.04 1.4.84 3.03 1.29 4.71 1.29"/>
  </symbol>
  <symbol id="logo-instagram" viewBox="0 0 15 15">
    <path d="M7.5 1.34c2 0 2.24.01 3.03.04.73.03 1.13.15 1.39.26.35.14.6.29.86.56.26.27.42.51.56.86.1.27.22.66.26 1.39.04.79.04 1.03.04 3.03s0 2.24-.04 3.03c-.03.73-.15 1.12-.26 1.39-.14.34-.3.6-.56.86-.26.26-.51.42-.86.56-.26.1-.66.23-1.39.26-.79.04-1.03.04-3.03.04s-2.24-.01-3.03-.04c-.73-.03-1.13-.15-1.39-.26-.35-.13-.6-.29-.86-.56-.26-.26-.42-.52-.56-.86-.11-.27-.23-.66-.26-1.39-.04-.8-.04-1.03-.04-3.03s0-2.24.04-3.03c.04-.73.16-1.13.26-1.39.13-.35.29-.6.56-.86.26-.26.51-.42.86-.56.27-.1.66-.23 1.39-.26.79-.02 1.03-.04 3.03-.04M7.5 0C5.46 0 5.21 0 4.41.04 3.6.08 3.06.21 2.58.4c-.48.18-.9.44-1.32.86-.43.41-.68.83-.87 1.32C.2 3.07.08 3.62.04 4.41 0 5.21-.02 5.46-.02 7.5s.01 2.29.05 3.09c.04.79.16 1.34.35 1.82.19.49.45.91.87 1.33.41.42.83.68 1.33.87.48.19 1.02.31 1.82.35.81.04 1.06.04 3.1.04s2.29-.01 3.09-.05c.8-.03 1.35-.16 1.83-.35.49-.19.91-.45 1.33-.87s.67-.83.87-1.33c.18-.48.31-1.03.35-1.82.04-.8.05-1.05.05-3.09 0-2.03-.01-2.29-.05-3.09-.04-.8-.16-1.34-.35-1.82-.19-.49-.45-.91-.87-1.32-.42-.42-.83-.68-1.33-.87C11.95.2 11.4.08 10.59.04 9.79 0 9.54 0 7.5 0zm0 3.65c-2.13 0-3.85 1.72-3.85 3.85s1.72 3.85 3.85 3.85 3.85-1.72 3.85-3.85S9.63 3.65 7.5 3.65zm0 6.35C6.12 10 5 8.88 5 7.5S6.12 5 7.5 5 10 6.12 10 7.5 8.88 10 7.5 10zm4.89-6.5c0 .49-.4.9-.9.9s-.9-.41-.9-.9c0-.5.4-.9.9-.9s.9.4.9.9z"/>
  </symbol>
  <symbol id="logo-p2mv" viewBox="0 0 187 84">
    <path d="M8 19.58V30H1.78V0H14c6.35 0 10.54 3.42 10.54 9.81 0 6.36-4.19 9.77-10.54 9.77H8zM8 5.33v8.93h5.61c3.22 0 4.78-1.85 4.78-4.45 0-2.68-1.56-4.48-4.78-4.48H8zM57.77 28.13l-4.87-4.87L74.37 1.79l4.88 4.87zM109.26 14.95c0 2.53 1.81 3.85 4.14 4v6.45c-5.56-.59-9.72-4.5-9.72-10.4 0-6.3 3.53-10.07 8.94-10.07 3.77 0 6.7 2.89 9.91 5.96l6.22 5.76V4.6h5.42v20.75h-4.06l-10-9.51c-2.9-2.64-5-4.7-7.25-4.7-2.1 0-3.6 1.47-3.6 3.82M158.63 6.67l4.86-4.88 21.48 21.47-4.87 4.87zM0 59.53l4.87-4.88 21.48 21.47-4.88 4.87zM51.01 65.74l19.59-7.42H51v-5.86h30v7.43l-21.16 8L81 75.85v7.33H51v-5.9H70.6L51 69.98zM110.64 81l-4.88-4.87 21.47-21.47 4.87 4.87zM168.77 82.81l-11.24-29.98h6.6l7.77 21.68 7.77-21.68h6.44L174.82 82.8z"/>
  </symbol>
  <symbol id="logo-excelia" viewBox="0 0 99.29 28.37">
    <path d="M33.72 24.23h1.22v.2c0 .32-.07.53-.24.7-.2.22-.51.34-.86.34-.31 0-.6-.1-.8-.27-.27-.25-.3-.5-.3-1.4 0-.87.03-1.13.3-1.38.2-.17.5-.28.8-.28.45 0 .7.14 1.07.46l.08.06.55-.47-.1-.09a2.2 2.2 0 00-1.6-.62c-.52 0-1 .17-1.37.48-.51.44-.51.91-.51 1.84s0 1.4.51 1.84c.36.31.85.48 1.38.48.54 0 1.04-.19 1.4-.53.34-.3.48-.66.48-1.2v-.82h-2.01v.66zM40.71 22.85c0-.8-.65-1.32-1.62-1.32h-2.05v4.56h.78v-1.92h1.02l1.14 1.92h.93l-1.22-2c.64-.17 1.02-.64 1.02-1.24zm-2.89.67v-1.34h1.23c.26 0 .88.07.88.67 0 .6-.62.66-.88.66h-1.23v.01zM45.07 21.97a2.05 2.05 0 00-1.37-.48c-.53 0-1 .17-1.38.48-.51.44-.51.9-.51 1.84s0 1.4.52 1.84c.36.32.83.48 1.37.48.53 0 1-.17 1.37-.48.52-.44.52-.9.52-1.84s0-1.4-.52-1.84zm-.58 3.22c-.2.18-.48.28-.79.28-.3 0-.58-.1-.79-.28-.27-.24-.31-.5-.31-1.38s.04-1.14.32-1.39c.2-.17.48-.28.78-.28.3 0 .6.1.8.28.27.24.31.5.31 1.39 0 .88-.04 1.14-.32 1.38zM49.84 24.5c0 .59-.43.97-1.1.97s-1.1-.38-1.1-.96v-2.98h-.78v3.01c0 .92.79 1.59 1.88 1.59s1.89-.67 1.89-1.59v-3.01h-.79v2.98zM54.1 21.53h-2v4.56h.78V24.3h1.22c1 0 1.68-.56 1.68-1.39s-.68-1.38-1.68-1.38zm-.06 2.13h-1.16v-1.48h1.16c.28 0 .95.08.95.73 0 .67-.66.75-.95.75zM37.86 18.35c2.31 0 3.58-.61 4.95-1.78l-1.34-1.02a4.82 4.82 0 01-3.56 1.32c-2.58 0-3.99-1.46-3.99-4h9.14v-.78c0-3.44-2.06-5.6-5.56-5.6-3.44 0-5.56 2.19-5.56 5.93 0 4.1 2.35 5.93 5.92 5.93zm-3.52-8.68c.52-1.06 1.73-1.74 3.17-1.74s2.64.68 3.16 1.74c.3.64.36.99.42 1.93h-7.17c.06-.95.12-1.3.42-1.93zM45.57 18.21l3.3-4.49 3.25 4.49h2.4l-4.6-5.9 4.41-5.68h-2.4l-3.06 4.28-3.11-4.28h-2.4l4.42 5.68-4.6 5.9zM60.52 8a4 4 0 013.11 1.29l1.35-1.09a5.8 5.8 0 00-4.46-1.71c-3.41 0-6 1.97-6 5.93s2.59 5.93 6 5.93c1.88 0 3.06-.42 4.46-1.72l-1.35-1.1a4 4 0 01-3.1 1.32 3.92 3.92 0 01-3.15-1.32c-.63-.76-.88-1.65-.88-3.1 0-1.47.25-2.36.88-3.11A3.92 3.92 0 0160.52 8zM71.06 6.49c-3.44 0-5.56 2.19-5.56 5.93 0 4.1 2.33 5.93 5.92 5.93 2.3 0 3.57-.61 4.95-1.78l-1.35-1.02a4.82 4.82 0 01-3.54 1.32c-2.6 0-4-1.46-4-4h9.14v-.78c0-3.44-2.06-5.6-5.56-5.6zm-3.58 5.1c.06-.93.11-1.28.42-1.92.52-1.06 1.73-1.74 3.17-1.74 1.43 0 2.64.68 3.16 1.74.3.64.36.99.42 1.93h-7.17zM80.7 15.06V1.45H78.7v13.68c0 1.76 1.08 3.08 3.44 3.08h1.44v-1.46h-1.07c-1.38 0-1.83-.56-1.83-1.7zM84.94 6.63h1.98v11.58h-1.98zM85.93 1.12c-.74 0-1.35.6-1.35 1.24s.6 1.24 1.34 1.24c.75 0 1.38-.6 1.38-1.24 0-.63-.63-1.24-1.37-1.24zM93.86 6.49c-2.2 0-3.57.37-4.8 1.71l1.36 1.07c.8-.97 1.68-1.32 3.42-1.32 2.47 0 3.46.84 3.46 2.54v1.1h-4.07c-3.03 0-4.68 1.33-4.68 3.35 0 .92.36 1.79 1.02 2.35.86.75 1.96 1.06 3.82 1.06 1.82 0 2.82-.3 3.91-1.24v1.1h1.99v-7.86c0-2.52-1.8-3.86-5.43-3.86zm3.44 7.63c0 .96-.22 1.62-.68 2-.85.7-1.88.77-3.03.77-2.15 0-3.11-.63-3.11-1.97 0-1.35.99-2.05 3.02-2.05h3.8v1.24z"/><path d="M28.19 10.7c-.02-.03-.04-.07-.08-.06-.1 0-.08.11-.08.11A14.8 14.8 0 0110.3 26.47c-2.83-.58-5.24-2-7.19-3.87-.14-.13-.19-.17-.32-.31-.03-.03-.05-.03-.06-.03-.03 0-.06.03-.05.06l.03.06A14.27 14.27 0 0028.19 10.7zM6.33 19.77l.38-.15s.64-.3 1.1-.56l.17-.12H8c.67-.43 1.04-.72 1.38-.99.21-.14.44-.34.69-.56l-.93-1.55c-.5.41-1.09.84-1.42 1.09-.99.72-1.5.91-1.74 1.03-.84.38-3.11 1.13-4-1.42-1.1-3.17.05-6.27 1.18-8.34l.07-.16a13.84 13.84 0 0111.85-6.99 15.47 15.47 0 015.56.63.1.1 0 00.1-.1c0-.04-.05-.08-.08-.1-1.78-1-4.67-1.6-7.08-1.46A14.41 14.41 0 001.23 8.47S-.53 12.31.16 15.9l.1.48s.25 1.2 1 2.23c.62.78 2.16 2.12 5.07 1.16z"/><path d="M17.87 15.73c0 .37 0 .78.03 1.1-.24.24-.46.43-.82.67-2.36 1.6-3.04.62-3.64-.2l-1.13-1.78-.12-.2c2.11-2.37 4.34-5.28 4.34-5.28h-2.39l-1.9 2.46a18 18 0 01-.99 1.27c-.66-1.09-1.4-2.33-1.54-2.53-.7-1.28-1.96-1.2-1.96-1.2H6.52l3.2 5.36.93 1.56.67 1.12c1.48 2.34 3.2 2.77 5.63.76.38-.32.76-.65 1.13-.99.3 1.18 1.38 3.01 3.87 1.93.69-.3 1.06-.6 1.54-.98.44-.4 1.3-1.2 1.29-1.6 0-.17-.14-.07-.15-.06l-.1.07-.12.09c-1.09.79-1.72.95-1.92.98-2.24.48-2.44-1.22-2.54-1.64l-.08-.49c1.39-1.46 2.37-2.76 2.37-2.76 2.17-2.68 2.67-4.86 2.77-5.97.26-1.95-.62-2.92-.7-3-.8-.85-2.03-.45-2.52-.15-3.84 2.34-3.85 7.57-3.92 11.46zm4.36-10.77s1.48-.55 1.2 2.1-2.18 5.77-2.87 6.73c-.25.35-.5.7-.83 1.09-.17-2.15.2-4.48.63-6.7.54-2.87 1.88-3.22 1.88-3.22z"/>
  </symbol>
  <symbol id="logo-web2do" viewBox="0 0 100 100">
    <path d="M10.701 40.481h-.313c-5.323.089-9.348 4.294-9.348 9.841 0 3.937 1.564 6.264 5.188 7.829.536.223.895.715.895 1.297v.717h6.889v-.717c0-.582.357-1.074.896-1.297 3.623-1.521 5.188-3.893 5.188-7.829-.044-5.591-4.071-9.796-9.395-9.841zm3.848 16.865c-.806.359-1.342 1.119-1.387 1.969H7.973c-.045-.85-.581-1.609-1.387-1.969-3.31-1.387-4.696-3.444-4.696-7.067 0-2.505.894-4.786 2.46-6.442 1.61-1.654 3.803-2.594 6.173-2.594 4.922 0 8.679 3.892 8.679 8.992.044 3.666-1.344 5.724-4.653 7.111z"/><path d="M6.988 43.881c-.135 0-.269-.09-.358-.18-.134-.178-.044-.447.135-.537.357-.223.76-.402 1.162-.58.225-.09.447.043.493.223.089.223-.044.447-.224.492-.357.134-.716.313-1.073.492 0 .09-.045.09-.135.09zm-3.489 4.697H3.41c-.224-.044-.358-.268-.269-.492.447-1.611 1.297-2.997 2.46-4.072.179-.133.403-.133.537.045.134.18.134.403-.045.537-1.073.94-1.834 2.238-2.236 3.669 0 .223-.178.313-.358.313zm10.96-.76c-.134-.134-.269-.18-.403-.18s-.313.045-.402.18l-3.444 3.398c-.045.045-.134.09-.225.09-.089 0-.179-.043-.224-.09l-1.564-1.564c-.134-.134-.269-.179-.403-.179-.179 0-.313.044-.402.179-.224.224-.224.626 0 .85l2.236 2.191c.134.136.27.18.404.18.179 0 .313-.044.402-.18l4.115-4.069c.134-.134.179-.269.179-.403-.089-.135-.179-.27-.269-.403zm-2.147 15.657h-3.49c-.448 0-.805-.357-.805-.806 0-.446.358-.804.805-.804h3.489c.448 0 .806.358.806.804 0 .448-.357.806-.805.806zm.76-1.923h-5.01c-.716 0-1.297-.581-1.297-1.299 0-.715.581-1.296 1.297-1.296h5.01c.716 0 1.297.581 1.297 1.296 0 .717-.581 1.299-1.297 1.299zm-3.98 2.28c.133.67.76 1.164 1.477 1.164.716 0 1.297-.494 1.476-1.164H9.092zM19.782 40.973c-.089 0-.179-.045-.269-.09-.134-.133-.134-.357 0-.49l.939-.94c.135-.134.358-.134.536 0 .135.134.135.358 0 .492l-.939.938c-.043.045-.177.09-.267.09zm-9.17-3.444c-.269 0-.492-.223-.492-.492v-2.014c0-.269.224-.492.492-.492s.492.223.492.492v2.014c-.044.268-.223.492-.492.492zm-9.305 3.444c-.089 0-.179-.045-.268-.09l-.938-.938c-.134-.134-.134-.358 0-.492.133-.134.357-.134.535 0l.94.896c.133.134.133.357 0 .491-.045.088-.18.133-.269.133zM42.149 44.82c-.313 0-.626.133-.85.357s-.358.493-.358.85v5.682c0 .18-.044.358-.089.536-.09.179-.179.313-.313.448s-.268.224-.447.313c-.179.09-.357.09-.537.09-.223 0-.76-.046-.895-.09-.18-.09-.313-.179-.448-.313-.134-.135-.224-.27-.313-.448-.09-.179-.09-.357-.09-.536v-5.726c0-.313-.135-.626-.358-.85-.222-.225-.49-.358-.848-.358-.313 0-.626.134-.851.358-.224.224-.358.493-.358.85v5.638c0 .402-.179.76-.447 1.028s-.581.402-.984.402c-.179 0-.358-.044-.537-.088-.179-.091-.313-.179-.447-.314-.136-.135-.224-.269-.313-.447-.089-.179-.089-.358-.089-.536v-5.682c0-.313-.134-.625-.358-.85-.179-.18-.492-.313-.806-.313-.313 0-.626.133-.85.357s-.358.493-.358.85v5.682c0 .537.09 1.029.269 1.477.179.448.448.851.806 1.208.358.358.717.627 1.208.806.447.179.939.313 1.477.313.626 0 1.252-.135 1.744-.448.313-.179.581-.357.85-.627.269.226.537.449.85.627.537.27 1.477.448 2.147.448.537 0 1.028-.091 1.477-.313.447-.179.85-.448 1.208-.806.357-.357.626-.716.806-1.208.179-.447.313-.939.313-1.477v-5.726c0-.313-.134-.626-.358-.85-.226-.179-.539-.314-.853-.314zm11.05 1.566c-.492-.448-1.029-.85-1.655-1.118-.626-.27-1.297-.403-2.012-.403-.761.044-1.432.179-2.103.447-.626.269-1.208.671-1.699 1.118-.492.492-.85 1.029-1.119 1.654-.268.627-.401 1.344-.401 2.059 0 .76.134 1.477.401 2.102.27.626.672 1.209 1.163 1.655.493.447 1.029.85 1.655 1.073.626.269 1.342.403 2.058.403.762 0 1.478-.135 2.058-.357.627-.226 1.164-.627 1.656-1.164.223-.223.313-.492.313-.806s-.135-.625-.359-.85-.491-.357-.849-.357c-.313 0-.627.133-.806.313-.27.268-.581.493-.939.625-.36.138-.718.228-1.12.228-.358 0-.716-.044-1.028-.179-.313-.135-.627-.313-.896-.537s-.493-.492-.671-.761c-.044-.089-.09-.179-.134-.313h6.844c.313 0 .581-.09.806-.313.268-.224.402-.582.358-.984-.046-.716-.179-1.387-.492-2.014-.134-.536-.537-1.073-1.029-1.521zm-.984 2.55h-5.368c.044-.09.09-.179.134-.269.179-.313.358-.538.626-.761.27-.223.537-.402.896-.492.313-.134.67-.178 1.029-.178.358 0 .716.044 1.028.178.313.135.626.313.896.492.268.223.492.447.625.761.045.091.089.181.134.269zm13.598-.85c-.268-.626-.671-1.209-1.162-1.7-.493-.493-1.028-.85-1.655-1.163-.627-.268-1.299-.447-2.014-.447-.804.045-1.565.223-2.237.627-.223.134-.492.269-.671.447v-3.086c0-.313-.134-.627-.357-.851s-.492-.358-.851-.358c-.357 0-.625.135-.85.358-.223.224-.357.493-.357.851v7.291c0 .761.135 1.477.403 2.102.268.628.671 1.208 1.162 1.656.493.446 1.028.851 1.655 1.073.627.269 1.343.402 2.058.402.76 0 1.432-.134 2.103-.402.627-.27 1.208-.671 1.656-1.118.492-.493.85-1.029 1.117-1.656.269-.625.403-1.342.403-2.058.046-.626-.134-1.296-.403-1.968zm-4.875 5.011c-.401 0-.806-.09-1.118-.225-.358-.134-.67-.357-.939-.626-.269-.268-.492-.581-.627-.939-.133-.357-.223-.715-.223-1.118 0-.447.09-.804.27-1.208.179-.357.402-.67.625-.939.269-.268.582-.447.895-.625.359-.135.717-.225 1.118-.225.402 0 .807.09 1.164.225.357.133.671.357.938.625.27.27.492.582.627.939.134.358.223.761.223 1.162 0 .404-.088.807-.223 1.119-.135.357-.357.671-.627.939-.268.269-.581.492-.938.627-.359.179-.763.269-1.165.269zm14.806-.626h-4.919c.492-.537 1.609-1.164 3.175-2.058 1.835-1.028 3.223-2.014 3.223-4.742 0-.939-.494-1.925-1.344-2.64-.938-.805-2.192-1.252-3.622-1.252-2.908 0-5.145 1.835-5.145 4.205 0 .537.179.939.493 1.209.269.223.67.357 1.117.357.895 0 1.209-.493 1.434-1.252.357-1.208.938-1.7 2.058-1.7.445 0 .85.134 1.117.402.313.269.492.671.492 1.163 0 1.118-.535 1.477-2.371 2.595-.268.179-.581.357-.895.536-2.326 1.477-3.579 2.997-3.579 4.428 0 .806.537 1.655 1.791 1.655h6.842c1.434 0 1.655-.895 1.655-1.432 0-.938-.581-1.474-1.522-1.474zM87.376 41.689c-.313 0-.626.133-.851.357-.223.225-.357.493-.357.85v3.043c-.224-.18-.448-.313-.671-.447-.672-.403-1.432-.582-2.237-.627-.715 0-1.387.133-2.014.447-.625.27-1.207.671-1.653 1.162-.492.492-.851 1.029-1.164 1.701-.269.626-.448 1.342-.448 2.057 0 .717.135 1.387.404 2.059.268.626.671 1.208 1.117 1.655.492.491 1.029.85 1.656 1.118.625.27 1.342.402 2.102.402.716 0 1.387-.134 2.014-.402.625-.269 1.208-.627 1.7-1.118.492-.447.849-1.029 1.161-1.655.27-.626.404-1.342.404-2.103v-7.336c0-.313-.135-.626-.357-.85-.179-.18-.493-.313-.806-.313zM83.26 53.097c-.401 0-.805-.09-1.163-.225-.358-.134-.67-.357-.938-.626-.27-.268-.493-.581-.627-.939-.134-.357-.224-.715-.224-1.118 0-.401.09-.804.224-1.163.135-.357.357-.67.627-.939.269-.268.58-.49.938-.625.358-.134.762-.225 1.163-.225.403 0 .76.09 1.119.225.358.135.67.358.895.625.269.27.492.582.625.939.179.359.27.762.27 1.209 0 .402-.091.76-.224 1.118-.135.358-.358.671-.627.939s-.58.493-.938.626c-.315.089-.717.179-1.12.179zm16.328-5.011c-.268-.626-.671-1.209-1.164-1.654-.491-.494-1.028-.85-1.653-1.163-.627-.269-1.299-.449-2.014-.449-.76.045-1.431.18-2.103.448-.627.269-1.207.671-1.7 1.118-.492.492-.85 1.029-1.118 1.654-.268.627-.402 1.344-.402 2.059 0 .76.135 1.477.402 2.102.269.627.671 1.208 1.163 1.655s1.028.851 1.655 1.073c.625.27 1.343.403 2.059.403.759 0 1.431-.134 2.102-.403.627-.267 1.208-.671 1.656-1.117.492-.492.85-1.028 1.117-1.656.269-.625.403-1.341.403-2.057.045-.671-.09-1.386-.403-2.013zm-4.831 5.011c-.402 0-.805-.09-1.117-.225-.36-.134-.672-.357-.94-.626-.268-.268-.493-.581-.625-.939-.135-.357-.226-.715-.226-1.118 0-.401.091-.804.226-1.163.132-.357.357-.67.625-.939.269-.268.58-.49.94-.625.357-.134.715-.225 1.117-.225.403 0 .806.09 1.163.225.358.135.672.358.939.625.269.27.491.582.626.939.135.359.224.762.224 1.163 0 .403-.089.806-.224 1.118-.135.358-.358.672-.626.939-.268.269-.581.492-.939.626-.401.135-.76.225-1.163.225zM31.548 59.091c-.179 0-.358.134-.447.357-.134.225-.179.538-.179.939 0 .851.223 1.252.671 1.252.179 0 .403-.044.626-.179v.583c-.179.134-.402.223-.716.223-.402 0-.716-.179-.939-.492-.223-.314-.313-.806-.313-1.388 0-.58.135-1.073.358-1.387.224-.314.536-.493.939-.493.135 0 .269 0 .403.044.134.047.269.091.402.182l-.225.537c-.089-.045-.133-.09-.223-.134-.134.001-.223-.044-.357-.044zm1.833 1.699v1.433h-.67V58.6h.894c.358 0 .671.088.85.267.18.181.27.449.27.807 0 .447-.135.759-.448.984l.718 1.609h-.717l-.581-1.431h-.314v-.046h-.002zm0-.581h.18c.179 0 .269-.044.357-.135.09-.088.09-.223.09-.401 0-.18-.044-.314-.09-.404-.089-.09-.179-.134-.357-.134h-.18v1.074zm3.535 2.014H35.26V58.6h1.656v.536h-.985v.895h.896v.581h-.896v1.028h.985v.583zm2.236 0l-.224-.94h-.939l-.224.94h-.671l.895-3.67h.939l.895 3.67h-.671zm-.312-1.522l-.179-.85c0-.045-.045-.179-.09-.403-.046-.224-.045-.357-.09-.402 0 .134-.044.313-.089.492-.046.179-.134.581-.269 1.163h.717zm2.28 1.522h-.67v-3.087h-.716v-.583h2.058v.583h-.716v3.087h.044zm1.209 0V58.6h.626v3.623h-.626zm2.953-3.67h.67l-.85 3.625h-.85l-.85-3.625h.67l.492 2.239c.044.179.09.447.134.804.045-.313.09-.58.134-.804l.45-2.239zm2.639 3.67h-1.654V58.6h1.654v.536h-.984v.895h.895v.581h-.895v1.028h.984v.583zm3.443-1.03c0 .358-.088.581-.27.76-.179.179-.402.27-.759.27-.313 0-.581-.045-.805-.179v-.672c.268.18.535.268.76.268.135 0 .224-.044.313-.088.045-.091.089-.18.089-.313 0-.135-.044-.224-.134-.313-.089-.089-.224-.224-.402-.313-.135-.089-.27-.225-.359-.313-.089-.09-.134-.224-.178-.312-.044-.135-.044-.27-.044-.448 0-.314.088-.581.268-.76.179-.181.403-.27.716-.27.269 0 .535.089.805.224l-.223.536c-.091-.045-.179-.09-.271-.134-.088-.045-.179-.045-.268-.045-.09 0-.179.045-.27.089-.045.09-.089.18-.089.314 0 .133.044.224.089.313.091.089.18.18.358.313.224.18.402.313.493.492.137.178.181.358.181.581zm2.952-.805c0 .582-.135 1.073-.358 1.387-.223.313-.536.492-.981.492-.404 0-.762-.179-.985-.492-.224-.314-.357-.805-.357-1.388 0-.58.134-1.073.357-1.387.224-.314.537-.493.985-.493.401 0 .759.179.982.493.27.314.357.761.357 1.388zm-1.922 0c0 .404.044.716.179.939.091.225.27.313.448.313.401 0 .626-.401.626-1.252 0-.85-.225-1.252-.626-1.252-.225 0-.357.089-.448.313-.135.179-.179.491-.179.939zm2.46 1.835V58.6h.67v3.04h.94v.583h-1.61zm4.295-3.67v2.372c0 .448-.091.761-.313.984-.179.223-.492.357-.85.357s-.627-.135-.807-.357c-.179-.226-.268-.582-.268-.984v-2.327h.67v2.417c0 .446.135.716.448.716.135 0 .27-.047.313-.179.09-.136.135-.271.135-.494v-2.416h.671v-.089zm1.745 3.67h-.671v-3.087h-.716v-.583h2.059v.583h-.716v3.087h.044zm1.208 0V58.6h.625v3.623h-.625zm3.891-1.835c0 .582-.134 1.073-.358 1.387-.224.314-.537.492-.983.492-.404 0-.762-.179-.984-.492-.226-.314-.357-.805-.357-1.388 0-.58.132-1.073.357-1.387.223-.314.535-.493.984-.493.402 0 .76.179.983.493.268.314.358.761.358 1.388zm-1.925 0c0 .404.046.716.18.939.09.225.269.313.448.313.402 0 .627-.401.627-1.252 0-.85-.226-1.252-.627-1.252-.224 0-.358.089-.448.313-.134.179-.18.491-.18.939zm5.012 1.835h-.806l-1.119-2.641h-.044c.044.181.044.405.044.627v1.969h-.625v-3.625h.851l1.117 2.596h.044c-.044-.179-.044-.403-.044-.626v-1.97h.627v3.67h-.045zm2.281-1.03c0 .358-.09.581-.27.76-.179.179-.401.27-.759.27-.313 0-.581-.045-.807-.179v-.672c.27.18.537.268.761.268.134 0 .225-.044.313-.088.047-.091.091-.18.091-.313 0-.135-.044-.224-.135-.313-.089-.089-.223-.224-.402-.313-.134-.089-.269-.225-.357-.313-.09-.09-.135-.225-.181-.313-.044-.136-.044-.271-.044-.449 0-.313.09-.58.269-.76.18-.179.402-.27.716-.27.27 0 .535.091.805.226l-.224.535c-.09-.045-.179-.09-.27-.134-.089-.045-.179-.045-.27-.045-.088 0-.179.045-.267.089-.046.09-.091.18-.091.313 0 .135.045.224.091.313.088.089.179.181.357.313.223.18.402.313.493.493.136.179.181.359.181.582z"/>
  </symbol>
  <symbol id="logo-phonequest" viewBox="0 0 100 100">
    <path d="M2.662 56.155v.267H.323v1.795h1.946v.26H.323v1.852h2.338v.267H0v-4.441h2.662zM4.826 58.999L3.74 57.473h.286c.029 0 .051.006.064.019s.026.027.036.044l.917 1.324c.008-.035.026-.073.053-.113l.857-1.208c.01-.019.023-.034.039-.047s.034-.019.055-.019h.276l-1.092 1.51 1.136 1.613h-.285c-.029 0-.052-.009-.069-.027-.017-.018-.03-.035-.041-.052l-.948-1.381c-.01.042-.026.078-.047.106l-.91 1.281c-.015.019-.03.036-.045.05s-.035.022-.058.022h-.268l1.13-1.596zM7.611 61.701v-4.228h.163c.027 0 .049.006.066.018.017.011.026.032.028.061l.028.483c.138-.188.3-.338.485-.449s.393-.167.623-.167c.385 0 .684.133.897.399.213.266.32.664.32 1.196 0 .228-.03.44-.089.638s-.147.37-.262.515c-.115.146-.257.26-.425.344-.168.083-.362.125-.582.125-.213 0-.397-.039-.553-.116-.155-.078-.289-.193-.401-.345V61.7h-.298zm1.308-4.039c-.207 0-.395.054-.563.162-.168.108-.318.258-.447.451v1.638c.119.18.251.306.397.379s.311.11.498.11c.184 0 .345-.033.483-.1s.253-.162.347-.284c.093-.123.163-.269.21-.439.047-.17.071-.358.071-.563 0-.465-.085-.806-.256-1.025s-.417-.329-.74-.329zM11.951 56.03v4.566h-.298V56.03h.298zM14.81 57.423c.224 0 .424.038.601.114s.326.185.447.325c.122.14.214.309.278.507.064.197.096.418.096.664 0 .245-.032.466-.096.662-.064.197-.156.365-.278.505-.121.14-.271.248-.447.323s-.377.113-.601.113c-.224 0-.424-.038-.601-.113s-.326-.183-.449-.323-.215-.309-.279-.505c-.063-.196-.096-.417-.096-.662 0-.245.032-.466.096-.664s.157-.367.279-.507c.123-.141.272-.249.449-.325s.377-.114.601-.114zm0 2.978c.187 0 .349-.032.488-.095.139-.064.255-.156.348-.275s.163-.263.209-.432.069-.357.069-.566c0-.207-.023-.396-.069-.565s-.116-.314-.209-.435c-.093-.121-.209-.213-.348-.278s-.302-.098-.488-.098-.349.033-.488.098-.255.157-.349.278c-.093.12-.163.265-.21.435-.047.169-.071.358-.071.565 0 .209.023.398.071.566.047.168.117.313.21.432.093.119.209.211.349.275.139.064.302.095.488.095zM17.574 60.596v-3.123h.157c.036 0 .061.008.077.022.016.015.024.04.026.076l.025.659c.1-.253.234-.452.401-.595.167-.144.374-.215.618-.215.094 0 .181.01.261.03.08.02.155.049.226.086l-.041.207c-.006.034-.027.05-.063.05-.013 0-.031-.004-.054-.012-.023-.009-.052-.018-.086-.028-.034-.011-.077-.02-.127-.029-.05-.008-.108-.012-.172-.012-.237 0-.431.073-.583.22-.151.146-.274.358-.369.634v2.031h-.296zM21.829 57.423c.176 0 .339.03.488.091s.279.149.389.265.196.259.257.429c.062.169.093.364.093.583 0 .046-.007.078-.021.094s-.035.025-.064.025h-2.253v.06c0 .234.027.44.082.618.055.178.132.327.232.448.101.12.222.21.364.271.143.061.302.091.478.091.157 0 .292-.017.408-.052s.212-.073.291-.116c.078-.043.141-.082.187-.116.046-.034.08-.052.101-.052.027 0 .048.011.063.031l.082.101c-.05.063-.116.121-.199.176-.083.055-.175.101-.276.14-.102.039-.21.07-.327.093s-.233.034-.35.034c-.213 0-.408-.037-.583-.111s-.327-.183-.453-.325c-.125-.142-.223-.316-.292-.522-.069-.206-.104-.442-.104-.708 0-.224.032-.431.096-.62.063-.189.156-.353.276-.49.121-.137.268-.244.442-.322.173-.077.371-.116.593-.116zm.005.223c-.161 0-.305.025-.433.075s-.237.123-.331.217c-.093.094-.168.207-.226.339s-.096.279-.114.442h2.056c0-.167-.023-.317-.069-.45-.046-.133-.111-.246-.194-.337-.084-.092-.184-.163-.301-.212-.117-.049-.246-.074-.388-.074zM26.544 57.599c0 .044-.015.084-.044.119l-1.955 2.643h1.921v.235h-2.282v-.12c0-.035.016-.074.047-.116l1.961-2.652h-1.905v-.235h2.256v.126zM30.746 60.596h-.264l-1.318-3.123h.235c.029 0 .053.008.071.023s.031.033.039.052l1.03 2.463c.021.048.037.094.047.138.011.044.021.088.031.132.011-.044.021-.088.033-.133.011-.045.026-.09.045-.137l1.036-2.463c.011-.023.024-.042.042-.055.018-.013.039-.021.064-.021h.226l-1.317 3.124zM34.445 57.423c.224 0 .424.038.601.114s.326.185.447.325c.122.14.214.309.278.507.064.197.096.418.096.664 0 .245-.032.466-.096.662-.064.197-.156.365-.278.505s-.271.248-.447.323-.377.113-.601.113c-.224 0-.424-.038-.601-.113s-.326-.183-.449-.323c-.122-.14-.215-.309-.279-.505-.063-.196-.096-.417-.096-.662 0-.245.032-.466.096-.664s.157-.367.279-.507c.123-.141.272-.249.449-.325s.378-.114.601-.114zm0 2.978c.187 0 .349-.032.488-.095.139-.064.255-.156.348-.275s.163-.263.209-.432c.046-.168.069-.357.069-.566 0-.207-.023-.396-.069-.565-.046-.169-.116-.314-.209-.435-.093-.121-.209-.213-.348-.278s-.302-.098-.488-.098-.349.033-.488.098-.255.157-.349.278c-.093.12-.163.265-.21.435-.047.169-.071.358-.071.565 0 .209.023.398.071.566.047.168.117.313.21.432.093.119.209.211.349.275.14.064.302.095.488.095zM38.061 60.646c-.211 0-.376-.059-.493-.176s-.176-.298-.176-.543v-2.134h-.449c-.023 0-.042-.006-.056-.019-.015-.013-.022-.031-.022-.054v-.116l.533-.038.075-1.117c.002-.019.01-.036.023-.05.014-.015.032-.022.055-.022h.14v1.193h.982v.223h-.983v2.119c0 .085.011.16.033.221.022.062.053.112.091.152.039.04.084.069.136.087.053.019.109.028.17.028.075 0 .14-.011.194-.033s.102-.046.141-.072c.04-.026.072-.05.097-.072.025-.022.045-.033.06-.033.017 0 .033.01.05.031l.082.132c-.08.088-.181.158-.303.212-.122.055-.249.081-.38.081zM39.996 60.596v-3.123h.157c.036 0 .062.008.077.022.016.015.024.04.027.076l.025.659c.101-.253.234-.452.402-.595.167-.144.374-.215.618-.215.094 0 .181.01.26.03.08.02.155.049.226.086l-.041.207c-.006.034-.027.05-.063.05-.012 0-.03-.004-.053-.012-.023-.009-.052-.018-.086-.028-.035-.011-.077-.02-.127-.029-.05-.008-.108-.012-.173-.012-.236 0-.43.073-.582.22s-.275.358-.369.634v2.031h-.298zM44.25 57.423c.176 0 .338.03.488.091.149.061.279.149.389.265.109.116.195.259.257.429.062.169.092.364.092.583 0 .046-.007.078-.021.094-.013.017-.035.025-.064.025H43.14v.06c0 .234.027.44.082.618.054.178.132.327.232.448.101.12.222.21.364.271.142.061.301.091.477.091.157 0 .293-.017.408-.052.115-.035.212-.073.29-.116.079-.043.141-.082.187-.116.046-.034.08-.052.101-.052.027 0 .048.011.063.031l.082.101c-.05.063-.117.121-.199.176-.083.055-.175.101-.276.14-.102.039-.21.07-.326.093s-.233.034-.35.034c-.213 0-.408-.037-.584-.111-.175-.074-.326-.183-.452-.325s-.223-.316-.292-.522-.103-.442-.103-.708c0-.224.032-.431.096-.62s.156-.353.276-.49c.12-.137.268-.244.442-.322.173-.077.371-.116.592-.116zm.005.223c-.161 0-.305.025-.433.075s-.238.123-.331.217c-.093.094-.168.207-.226.339-.058.132-.096.279-.114.442h2.055c0-.167-.023-.317-.069-.45-.046-.133-.11-.246-.194-.337-.083-.092-.184-.163-.301-.212s-.245-.074-.387-.074zM49.797 60.596h-.264l-1.318-3.123h.235c.03 0 .053.008.071.023s.031.033.039.052l1.03 2.463c.021.048.037.094.047.138.011.044.021.088.032.132.01-.044.021-.088.033-.133.011-.045.027-.09.045-.137l1.036-2.463c.01-.023.025-.042.042-.055.018-.013.039-.021.064-.021h.226l-1.318 3.124zM52.825 56.397c0 .038-.008.073-.023.105-.016.033-.036.061-.062.086-.025.025-.054.045-.087.06-.034.015-.069.022-.107.022s-.073-.007-.107-.022c-.033-.015-.063-.035-.087-.06-.025-.025-.045-.054-.06-.086-.015-.032-.022-.067-.022-.105s.007-.074.022-.108c.015-.035.035-.064.06-.089.025-.025.054-.045.087-.06.034-.014.069-.022.107-.022s.073.008.107.022c.033.015.063.035.087.06.025.025.045.055.062.089.015.034.023.07.023.108zm-.132 1.076v3.123h-.298v-3.123h.298zM54.617 56.03v4.566h-.298V56.03h.298zM56.541 56.03v4.566h-.298V56.03h.298zM59.652 57.423c.176 0 .338.03.488.091.149.061.279.149.389.265s.195.259.257.429c.062.169.093.364.093.583 0 .046-.007.078-.021.094s-.035.025-.064.025h-2.253v.06c0 .234.027.44.082.618.055.178.132.327.232.448.101.12.222.21.364.271.143.061.301.091.478.091.157 0 .292-.017.408-.052s.212-.073.291-.116c.078-.043.14-.082.187-.116.046-.034.08-.052.101-.052.027 0 .048.011.063.031l.082.101c-.05.063-.117.121-.199.176s-.174.101-.276.14c-.102.039-.21.07-.327.093s-.233.034-.35.034c-.213 0-.408-.037-.583-.111s-.327-.183-.453-.325c-.125-.142-.223-.316-.292-.522-.068-.206-.103-.442-.103-.708 0-.224.032-.431.096-.62.063-.189.156-.353.276-.49.12-.137.268-.244.442-.322.172-.077.371-.116.592-.116zm.005.223c-.161 0-.305.025-.433.075s-.238.123-.331.217c-.093.094-.168.207-.226.339-.058.132-.096.279-.114.442h2.056c0-.167-.023-.317-.069-.45-.046-.133-.111-.246-.194-.337-.084-.092-.184-.163-.301-.212-.116-.049-.246-.074-.388-.074zM66.041 60.596c-.063 0-.102-.029-.116-.088l-.045-.398c-.086.083-.171.159-.256.226-.084.067-.173.124-.265.17-.092.046-.191.081-.298.105-.106.024-.224.036-.352.036-.106 0-.21-.016-.311-.047-.1-.031-.189-.079-.267-.145-.078-.064-.14-.148-.187-.25-.047-.101-.071-.223-.071-.365 0-.132.038-.254.113-.367s.193-.211.353-.295c.16-.084.366-.151.618-.201.252-.05.555-.079.909-.088v-.326c0-.289-.062-.511-.187-.667s-.309-.234-.554-.234c-.15 0-.279.021-.384.063-.105.042-.195.088-.268.139-.073.05-.133.096-.179.138s-.084.063-.116.063c-.042 0-.073-.019-.094-.057l-.054-.091c.164-.163.334-.287.515-.371.18-.083.383-.125.611-.125.167 0 .314.027.439.08.126.053.23.129.313.229s.145.22.187.361c.042.142.063.299.063.473v2.034h-.117zm-1.256-.166c.121 0 .233-.013.334-.039.102-.026.196-.063.283-.11s.167-.103.243-.168c.075-.065.149-.135.223-.21v-.813c-.297.008-.553.031-.767.067-.215.037-.392.086-.531.149s-.241.138-.308.225c-.066.086-.099.186-.099.296 0 .104.017.195.052.271.035.077.08.139.137.188.056.049.123.086.198.108.075.024.154.036.235.036zM67.929 57.473v1.996c0 .293.067.523.202.689.135.167.339.25.614.25.204 0 .394-.052.57-.155.177-.104.335-.247.476-.432v-2.348h.298v3.123h-.165c-.058 0-.087-.027-.09-.082l-.028-.465c-.145.18-.312.325-.501.433-.19.109-.401.164-.634.164-.174 0-.326-.027-.456-.082-.13-.055-.238-.133-.324-.236-.086-.102-.15-.226-.195-.37-.044-.144-.066-.308-.066-.49v-1.996h.299zM72.514 60.646c-.211 0-.376-.059-.493-.176-.117-.117-.176-.298-.176-.543v-2.134h-.449c-.023 0-.042-.006-.057-.019s-.022-.031-.022-.054v-.116l.534-.038.074-1.117c.002-.019.01-.036.023-.05s.032-.022.055-.022h.14v1.193h.982v.223h-.982v2.119c0 .085.011.16.033.221s.052.112.091.152c.039.04.084.069.137.087.052.019.109.028.169.028.075 0 .14-.011.194-.033.055-.022.102-.046.142-.072.04-.026.072-.05.097-.072s.045-.033.06-.033c.017 0 .033.01.05.031l.082.132c-.08.088-.181.158-.303.212-.123.055-.249.081-.381.081zM74.449 60.596v-3.123h.157c.036 0 .061.008.077.022.016.015.025.04.027.076l.025.659c.1-.253.234-.452.402-.595.167-.144.373-.215.618-.215.094 0 .181.01.261.03.08.02.155.049.226.086l-.042.207c-.006.034-.027.05-.063.05-.013 0-.03-.004-.054-.012-.023-.009-.052-.018-.086-.028-.034-.011-.077-.02-.126-.029-.051-.008-.108-.012-.173-.012-.236 0-.431.073-.583.22-.151.146-.274.358-.369.634v2.031h-.297zM78.704 57.423c.176 0 .338.03.488.091s.279.149.389.265.195.259.257.429c.062.169.093.364.093.583 0 .046-.007.078-.021.094s-.035.025-.064.025h-2.254v.06c0 .234.027.44.082.618.055.178.132.327.232.448.101.12.222.21.364.271.143.061.302.091.478.091.157 0 .293-.017.408-.052.115-.035.212-.073.291-.116.078-.043.141-.082.187-.116.046-.034.08-.052.101-.052.027 0 .048.011.063.031l.082.101c-.05.063-.117.121-.199.176s-.174.101-.276.14c-.102.039-.21.07-.327.093-.116.023-.233.034-.35.034-.213 0-.408-.037-.583-.111s-.327-.183-.453-.325c-.125-.142-.223-.316-.292-.522-.068-.206-.103-.442-.103-.708 0-.224.032-.431.096-.62.063-.189.156-.353.276-.49.12-.137.268-.244.442-.322.173-.077.371-.116.593-.116zm.004.223c-.161 0-.305.025-.433.075s-.238.123-.331.217c-.093.094-.168.207-.226.339s-.096.279-.114.442h2.056c0-.167-.023-.317-.069-.45-.046-.133-.111-.246-.194-.337-.084-.092-.184-.163-.301-.212-.116-.049-.245-.074-.388-.074zM81.335 60.596v-3.123h.163c.054 0 .085.026.094.079l.028.452c.06-.086.125-.165.194-.235.069-.071.143-.133.221-.184.079-.051.162-.091.251-.12.089-.028.183-.042.281-.042.228 0 .41.066.546.199.136.133.228.317.276.554.038-.129.09-.242.158-.335.068-.095.146-.172.233-.234.088-.062.183-.108.287-.138s.209-.045.318-.045c.155 0 .294.025.417.077s.228.127.315.228.153.224.199.37c.046.146.069.314.069.502v1.996h-.298V58.6c0-.306-.066-.538-.198-.698s-.32-.24-.565-.24c-.109 0-.213.02-.313.06-.099.04-.187.099-.263.177-.077.079-.137.177-.182.294-.044.117-.066.252-.066.407v1.996h-.298V58.6c0-.303-.061-.536-.182-.697-.121-.161-.298-.242-.53-.242-.169 0-.327.051-.471.152-.145.102-.273.242-.386.422v2.36h-.298zM88.071 57.423c.176 0 .338.03.488.091.15.061.279.149.389.265s.196.259.257.429c.062.169.093.364.093.583 0 .046-.007.078-.021.094s-.035.025-.064.025H86.96v.06c0 .234.027.44.082.618.054.178.131.327.232.448.101.12.222.21.364.271.142.061.301.091.477.091.157 0 .293-.017.408-.052.115-.035.211-.073.29-.116s.141-.082.187-.116c.046-.034.08-.052.101-.052.027 0 .048.011.063.031l.082.101c-.05.063-.116.121-.199.176-.083.055-.174.101-.276.14-.102.039-.21.07-.326.093-.116.023-.233.034-.351.034-.213 0-.408-.037-.583-.111-.175-.074-.327-.183-.452-.325-.126-.142-.224-.316-.292-.522-.069-.206-.103-.442-.103-.708 0-.224.032-.431.096-.62.063-.189.156-.353.276-.49.121-.137.268-.244.443-.322.172-.077.37-.116.592-.116zm.005.223c-.161 0-.305.025-.432.075s-.238.123-.331.217c-.093.094-.168.207-.226.339s-.096.279-.114.442h2.056c0-.167-.023-.317-.069-.45-.046-.133-.111-.246-.194-.337-.083-.092-.184-.163-.301-.212s-.247-.074-.389-.074zM90.702 60.596v-3.123h.163c.054 0 .086.026.094.079l.028.471c.142-.18.308-.325.497-.435.19-.11.4-.165.633-.165.171 0 .322.027.453.082.131.054.239.133.325.235.085.103.15.226.194.371s.066.308.066.49v1.996h-.298V58.6c0-.293-.067-.522-.201-.689s-.339-.25-.615-.25c-.205 0-.396.053-.571.159-.176.105-.333.25-.471.435v2.341h-.297z"/><g><path d="M95.506 60.646c-.211 0-.375-.059-.493-.176s-.176-.298-.176-.543v-2.134h-.449c-.023 0-.042-.006-.057-.019s-.022-.031-.022-.054v-.116l.534-.038.075-1.117c.002-.019.01-.036.023-.05s.032-.022.055-.022h.14v1.193h.982v.223h-.982v2.119c0 .085.011.16.033.221s.052.112.091.152c.039.04.084.069.136.087.052.019.109.028.169.028.075 0 .14-.011.194-.033.055-.022.102-.046.142-.072.04-.026.072-.05.097-.072.025-.022.045-.033.06-.033.017 0 .034.01.05.031l.082.132c-.08.088-.181.158-.303.212-.122.055-.249.081-.381.081z"/></g><g><path d="M99.419 60.354c0-.04.007-.077.022-.113s.035-.066.061-.093c.026-.026.057-.047.091-.063.035-.016.073-.023.115-.023.04 0 .077.008.113.023.036.016.066.037.093.063s.047.057.063.093.023.074.023.113c0 .042-.008.08-.023.115-.016.034-.037.064-.063.091s-.057.046-.093.061-.073.022-.113.022c-.082 0-.15-.027-.206-.083-.055-.055-.083-.124-.083-.206zm.446-4.199v1.795c0 .094 0 .183-.003.267-.002.083-.004.169-.008.256-.003.086-.008.178-.014.274s-.013.203-.019.32h-.204c-.006-.117-.013-.224-.019-.32s-.011-.188-.014-.274c-.003-.087-.006-.172-.008-.256-.002-.084-.003-.173-.003-.267v-1.795h.292z"/></g><g><path d="M2.379 46.856v4.458H.023V38.649h4.125c.847 0 1.58.099 2.198.298.619.199 1.13.476 1.533.832s.701.783.894 1.279c.192.496.289 1.04.289 1.629 0 .613-.102 1.175-.307 1.686-.205.511-.511.95-.919 1.318-.409.368-.92.654-1.533.858-.613.205-1.332.307-2.155.307H2.379zm0-1.839h1.77c.432 0 .809-.054 1.13-.162.321-.108.587-.263.797-.464.21-.201.368-.447.473-.736s.158-.611.158-.968c0-.338-.053-.645-.158-.919s-.263-.508-.473-.701c-.21-.193-.476-.34-.797-.442-.321-.102-.698-.153-1.13-.153h-1.77v4.545zM10.77 51.314V38.299h2.163V43.3c.351-.333.736-.602 1.156-.806.42-.205.914-.307 1.48-.307.491 0 .926.083 1.305.25s.696.4.95.701c.254.301.447.66.578 1.077.131.418.197.877.197 1.38v5.719h-2.164v-5.719c0-.549-.127-.974-.381-1.274s-.635-.451-1.143-.451c-.374 0-.724.084-1.051.254-.327.169-.637.4-.929.692v6.499H10.77zM24.564 42.188c.671 0 1.28.108 1.826.324.546.216 1.012.522 1.397.919.386.397.683.882.894 1.454.21.572.315 1.211.315 1.918 0 .712-.105 1.354-.315 1.927-.21.572-.508 1.06-.894 1.463-.385.403-.851.712-1.397.928-.546.216-1.155.324-1.826.324s-1.282-.108-1.831-.324c-.549-.216-1.018-.525-1.406-.928s-.689-.891-.902-1.463c-.213-.572-.32-1.214-.32-1.927 0-.707.106-1.346.32-1.918.213-.572.514-1.057.902-1.454s.857-.704 1.406-.919c.55-.217 1.16-.324 1.831-.324zm0 7.593c.748 0 1.301-.251 1.66-.753s.539-1.238.539-2.207-.18-1.708-.539-2.216c-.359-.508-.913-.762-1.66-.762-.759 0-1.319.255-1.682.767-.362.511-.543 1.248-.543 2.211s.181 1.698.543 2.203c.363.505.924.757 1.682.757zM30.687 51.314v-8.986h1.322c.28 0 .464.131.552.394l.149.709c.181-.187.373-.356.574-.508.202-.152.415-.283.639-.395.225-.111.466-.195.723-.254.257-.058.537-.087.841-.087.491 0 .926.083 1.305.25s.696.4.95.701c.254.301.447.66.578 1.077.131.418.197.877.197 1.38v5.719h-2.164v-5.719c0-.549-.127-.974-.381-1.274s-.635-.451-1.143-.451c-.374 0-.724.084-1.051.254-.327.169-.636.4-.928.692v6.499h-2.163z"/><g><path d="M44.263 42.188c.566 0 1.087.09 1.563.271.476.181.886.445 1.23.792.344.348.613.774.806 1.279.193.505.289 1.082.289 1.73 0 .164-.007.299-.022.407s-.041.193-.079.254c-.038.062-.089.105-.153.131-.064.026-.146.04-.245.04h-5.553c.064.922.313 1.6.745 2.032.432.433 1.004.648 1.717.648.35 0 .652-.041.906-.123.254-.082.476-.172.666-.271.19-.1.356-.19.5-.272.143-.082.282-.123.416-.123.087 0 .164.018.228.053s.12.085.167.149l.63.788c-.239.28-.508.516-.806.705-.298.19-.608.342-.933.456s-.654.194-.99.241c-.336.047-.661.07-.977.07-.625 0-1.206-.104-1.743-.311-.538-.207-1.005-.514-1.402-.919s-.709-.908-.937-1.507c-.228-.598-.341-1.292-.341-2.08 0-.613.099-1.189.297-1.73.199-.54.483-1.01.854-1.41.371-.4.824-.717 1.358-.951.534-.233 1.137-.349 1.809-.349zm.043 1.55c-.63 0-1.124.178-1.48.534-.356.356-.584.861-.683 1.515h4.064c0-.28-.038-.544-.114-.792-.076-.248-.193-.466-.351-.652-.158-.187-.356-.334-.596-.442-.238-.109-.519-.163-.84-.163zM65.52 44.981c0 .566-.058 1.108-.175 1.625-.117.517-.285 1-.504 1.45s-.486.863-.801 1.239c-.315.377-.674.708-1.077.994l3.214 3.503h-1.945c-.28 0-.533-.038-.757-.114-.225-.076-.431-.216-.618-.42L61 51.209c-.297.082-.603.143-.915.184-.313.041-.638.061-.977.061-.958 0-1.832-.162-2.623-.486-.792-.324-1.469-.775-2.032-1.354s-1-1.263-1.309-2.054c-.31-.792-.464-1.651-.464-2.58s.155-1.788.464-2.58c.309-.791.746-1.476 1.309-2.054s1.241-1.029 2.032-1.353c.791-.324 1.666-.486 2.623-.486s1.831.164 2.619.491c.789.327 1.463.778 2.023 1.353s.996 1.258 1.305 2.049c.31.793.465 1.653.465 2.581zm-2.418 0c0-.695-.092-1.318-.275-1.87-.184-.552-.448-1.021-.793-1.406-.344-.385-.763-.68-1.257-.884-.494-.205-1.049-.307-1.668-.307s-1.177.102-1.673.307c-.497.204-.918.499-1.266.884-.347.385-.615.854-.802 1.406-.187.552-.28 1.175-.28 1.87s.094 1.318.28 1.87c.187.552.455 1.019.802 1.401.348.382.769.676 1.266.88.496.205 1.054.307 1.673.307s1.175-.102 1.668-.307c.494-.204.913-.498 1.257-.88.345-.383.609-.85.793-1.401.183-.551.275-1.175.275-1.87zM69.242 42.328v5.71c0 .549.127.974.381 1.274s.635.451 1.143.451c.374 0 .724-.083 1.051-.25.327-.167.636-.396.928-.688v-6.499h2.164v8.986h-1.323c-.28 0-.464-.131-.552-.394l-.149-.718c-.187.187-.38.358-.578.512-.199.155-.41.286-.635.394-.225.108-.467.193-.727.254-.26.062-.539.092-.837.092-.49 0-.924-.083-1.3-.25-.377-.167-.693-.402-.95-.705-.257-.304-.451-.665-.583-1.082-.132-.417-.197-.877-.197-1.379v-5.71h2.164zM80.902 42.188c.567 0 1.088.09 1.563.271.476.181.886.445 1.231.792.344.348.613.774.806 1.279.193.505.289 1.082.289 1.73 0 .164-.007.299-.022.407s-.041.193-.079.254c-.038.062-.089.105-.153.131-.064.026-.146.04-.246.04h-5.553c.064.922.313 1.6.745 2.032.432.433 1.004.648 1.717.648.35 0 .652-.041.906-.123.254-.082.476-.172.666-.271.189-.1.356-.19.5-.272.143-.082.282-.123.416-.123.087 0 .164.018.228.053s.12.085.167.149l.631.788c-.24.28-.508.516-.806.705-.298.19-.609.342-.933.456-.324.114-.654.194-.99.241-.336.047-.661.07-.977.07-.625 0-1.206-.104-1.743-.311s-1.004-.514-1.401-.919-.709-.908-.937-1.507c-.228-.598-.342-1.292-.342-2.08 0-.613.099-1.189.298-1.73.199-.54.483-1.01.854-1.41.371-.4.823-.717 1.358-.951.533-.233 1.136-.349 1.807-.349zm.044 1.55c-.63 0-1.124.178-1.48.534-.356.356-.584.861-.683 1.515h4.064c0-.28-.038-.544-.114-.792-.076-.248-.193-.466-.351-.652-.158-.187-.356-.334-.596-.442-.238-.109-.518-.163-.84-.163zM91.765 46.878c-.207-.184-.442-.336-.705-.456s-.531-.227-.806-.32-.543-.18-.806-.258c-.263-.079-.498-.168-.705-.267-.208-.099-.374-.215-.5-.346s-.188-.293-.188-.486c0-.292.123-.529.368-.709.245-.181.581-.271 1.007-.271.274 0 .512.029.714.087.201.059.381.124.539.197.158.073.296.139.416.197.12.059.232.087.337.087.099 0 .181-.019.246-.057.064-.038.125-.104.184-.197l.49-.779c-.339-.333-.762-.602-1.27-.806-.508-.205-1.072-.307-1.69-.307-.555 0-1.043.074-1.467.223-.424.149-.777.348-1.06.596s-.498.539-.644.872c-.146.333-.219.683-.219 1.051 0 .397.063.736.188 1.016s.292.517.499.709c.208.193.444.352.709.477.266.126.538.235.815.329.277.094.549.18.814.258.265.079.502.168.709.268.207.099.374.216.499.35s.188.307.188.517c0 .14-.028.276-.083.407-.055.132-.143.247-.263.346s-.271.18-.455.241c-.184.062-.405.092-.662.092-.327 0-.597-.038-.81-.114-.213-.076-.398-.158-.556-.245s-.296-.169-.416-.245-.247-.114-.381-.114-.245.026-.333.079-.164.128-.228.228l-.499.824c.175.158.378.304.609.438.23.134.481.251.753.35.272.099.555.177.85.232.295.055.597.083.907.083.578 0 1.09-.074 1.537-.224.447-.148.822-.356 1.125-.622.303-.266.534-.581.692-.946.158-.365.236-.764.236-1.196 0-.362-.063-.671-.188-.928-.123-.257-.29-.477-.497-.661zM98.846 49.606c-.046-.064-.09-.112-.131-.145-.041-.032-.094-.048-.158-.048-.053 0-.105.016-.158.048s-.113.065-.18.101c-.067.035-.146.069-.236.101-.091.032-.203.048-.337.048-.233 0-.42-.079-.561-.236s-.21-.376-.21-.657v-4.87h2.365v-1.542h-2.365v-2.829h-1.121c-.129 0-.235.032-.32.097s-.139.155-.162.271l-.456 2.452-1.445.237v.858c0 .152.042.266.127.341.084.076.185.114.302.114h.911v5.019c0 .776.21 1.385.63 1.826.421.441 1.019.662 1.796.662.438 0 .861-.067 1.27-.202s.771-.333 1.086-.596l-.647-1.05z"/></g></g>
  </symbol>
  <symbol id="logo-shawork" viewBox="0 0 100 100">
    <path d="M66.577 71.672l.914-6.424-.232-.033-.914 6.422c-.14-.016-.281-.024-.425-.024-2.123 0-3.844 1.72-3.844 3.844 0 2.122 1.721 3.843 3.844 3.843s3.844-1.721 3.844-3.843c0-1.9-1.378-3.473-3.187-3.785zM82.461 28.556c-2.419 0-4.38 1.96-4.38 4.378 0 1.616.878 3.024 2.181 3.783l-6.753 12.375.207.112 6.753-12.374c.598.306 1.273.483 1.992.483 2.418 0 4.378-1.96 4.378-4.379 0-2.418-1.96-4.378-4.378-4.378zM31.173 28.403c0-3.815-3.093-6.909-6.909-6.909-3.815 0-6.909 3.094-6.909 6.909 0 3.816 3.094 6.909 6.909 6.909 2.398 0 4.509-1.222 5.748-3.077l26.023 16.72.127-.198-26.028-16.723c.655-1.055 1.039-2.297 1.039-3.631zM.62 60.5c.656.328 1.316.565 1.981.713.664.146 1.272.22 1.825.22.776 0 1.354-.182 1.735-.545.379-.362.57-.83.57-1.4 0-.467-.155-.856-.466-1.168-.311-.311-.699-.593-1.165-.843-.466-.252-.968-.498-1.502-.739-.535-.242-1.036-.528-1.502-.856-.465-.328-.854-.73-1.165-1.207-.311-.476-.466-1.077-.466-1.803 0-.416.09-.831.272-1.246.181-.415.444-.786.79-1.115.345-.329.776-.597 1.294-.804.519-.208 1.113-.312 1.787-.312.5 0 1.044.048 1.631.145.587.096 1.243.276 1.968.538l-.595 1.7c-.553-.189-1.058-.324-1.515-.401-.458-.078-.867-.117-1.229-.117-.604 0-1.101.139-1.489.415-.389.275-.583.681-.583 1.216 0 .467.155.852.466 1.152.311.303.699.579 1.166.828.466.251.967.501 1.501.752.535.25 1.036.543 1.501.88.466.337.854.755 1.166 1.256.311.501.466 1.123.466 1.864 0 .501-.117.972-.35 1.411-.233.44-.553.828-.958 1.165-.406.336-.868.603-1.386.801-.518.198-1.061.298-1.631.298-.656 0-1.359-.056-2.11-.168C1.876 63.018 1 62.711 0 62.211L.62 60.5zM11.986 63.038V43.413h2.407v19.625h-2.407zm8.362-9.735c0-.604-.117-1.096-.349-1.476-.233-.38-.6-.57-1.101-.57-.208 0-.376.022-.505.064-.129.044-.315.091-.557.144-.5.121-.958.129-1.372.025-.414-.103-.802-.345-1.165-.725.915-.534 1.674-.897 2.278-1.087.604-.189 1.148-.285 1.631-.285.5 0 .971.064 1.411.194.441.129.824.358 1.153.686.327.328.586.76.776 1.295.19.534.285 1.2.285 1.993v9.477h-2.486l.001-9.735zM36.634 58.61c0 1.036.039 1.921.116 2.654.078.734.177 1.325.298 1.774h-1.76c-.242-.139-.432-.324-.57-.558-.138-.232-.259-.487-.362-.764l-.026-.466-.285.466c-.656.656-1.265 1.084-1.825 1.282-.561.197-1.152.297-1.773.297-.673 0-1.278-.095-1.813-.285-.535-.189-.992-.447-1.372-.775-.38-.328-.669-.717-.868-1.166-.199-.448-.298-.932-.298-1.449 0-.656.125-1.226.375-1.709s.656-.897 1.217-1.243 1.299-.635 2.214-.867c.915-.233 2.037-.428 3.366-.583-.035.155-.082.337-.143.544-.061.206-.165.41-.311.608-.147.198-.333.375-.557.531-.225.155-.509.259-.854.311-.57.087-1.032.206-1.385.362-.354.155-.634.333-.841.53-.207.199-.346.415-.415.647-.069.233-.104.471-.104.713 0 .535.19.996.57 1.385s.897.582 1.554.582c.586 0 1.178-.146 1.774-.44.595-.293 1.143-.768 1.644-1.424v-4.842c0-1.018-.251-1.851-.751-2.498-.501-.647-1.338-.972-2.512-.972-.466 0-.928.049-1.385.143-.457.095-.997.255-1.619.479l-.595-1.605c.845-.362 1.593-.6 2.24-.712.647-.112 1.255-.168 1.825-.168 1.674 0 2.965.479 3.871 1.437.906.958 1.36 2.318 1.36 4.078v3.703zM46.861 63.038H44.4l-4.737-13.386h2.589l3.314 10.434.181.647.182-.647 2.356-6.317c.189.207.358.475.505.803.146.327.25.687.311 1.074.061.389.078.794.052 1.217-.026.424-.108.842-.246 1.256l-2.046 4.919zm6.11 0l-4.712-13.386h2.588l3.315 10.434.181.647.181-.647 3.288-10.434h2.46L55.56 63.038h-2.589zM79.08 49.652c.275.294.47.609.582.945.112.337.211.712.298 1.127v.466l.207-.466c.345-.657.828-1.195 1.45-1.619.621-.422 1.285-.634 1.993-.634.345 0 .768.069 1.269.207l-.311 2.021c-.276-.068-.515-.112-.712-.13-.198-.017-.376-.025-.531-.025-.397 0-.794.081-1.19.244-.397.165-.752.42-1.063.765-.31.346-.565.795-.763 1.346-.199.553-.298 1.218-.298 1.993v7.147h-2.305v-8.855c0-.793-.035-1.596-.104-2.407-.069-.812-.173-1.519-.311-2.124h1.789zM90.135 63.038h-2.407V43.413h2.407v19.625zm4.816-8.674L100 63.038h-2.745l-3.831-6.991L91.43 58.3c-.103-.259-.168-.544-.194-.854-.025-.311-.008-.635.053-.972.06-.336.159-.673.297-1.009.138-.337.328-.644.57-.92l4.22-4.894h2.849l-4.274 4.713zM61.306 56.315c0-2.021.636-3.693 1.905-5.017 1.288-1.324 2.907-1.986 4.857-1.986 1.949 0 3.559.662 4.829 1.986 1.288 1.323 1.932 2.995 1.932 5.017 0 2.039-.644 3.713-1.932 5.019-1.271 1.324-2.88 1.985-4.829 1.985-1.951 0-3.569-.661-4.857-1.985-1.27-1.325-1.905-2.996-1.905-5.019zm2.468 0c0 1.413.412 2.56 1.234 3.436s1.842 1.314 3.06 1.314c1.216 0 2.234-.438 3.059-1.314.822-.876 1.233-2.022 1.233-3.436 0-1.395-.411-2.531-1.233-3.407-.841-.895-1.861-1.342-3.059-1.342-1.199 0-2.219.447-3.06 1.342-.821.876-1.234 2.013-1.234 3.407z"/>
  </symbol>
  <symbol id="logo-missionlocale" viewBox="0 0 100 100">
    <path d="M89.207 30.958c-.148.189-.148.168-.004 1.146.084.557.033 1.35-.16 2.57-.113.712-.123 2.375-.015 2.483.196.196.556-.033.675-.428.092-.31.045-.507-.123-.507-.067 0-.121-.021-.121-.047.002-.085.124-1.476.234-2.669.214-2.298.039-3.215-.486-2.548m-1.182.493c-.178.125-.303.492-.221.646.206.386.188 2.456-.027 3.052-.088.244-.146 2.298-.07 2.458.164.344.592.16.734-.316.086-.29.008-.563-.163-.563-.099 0-.103-.131-.021-.948.033-.33.089-.998.125-1.484.035-.487.094-1.083.129-1.327.147-1.016-.101-1.79-.486-1.518m-4.304 1.344c-.113.099-.135.233-.195 1.248-.037.625-.127 1.649-.201 2.274-.198 1.706-.133 3.506.127 3.506.239 0 .916-1.202.959-1.706.005-.052.033.072.063.276.125.85.842 1.117 1.131.42.061-.148.109-.185.199-.157.463.147 1.793-1.219 1.67-1.714-.062-.242-.18-.182-.5.254-.508.691-.863.914-.863.541 0-.208.069-.286.534-.592.448-.295.603-.617.603-1.25 0-1.071-.71-1.023-1.148.077-.088.224-.227.563-.305.754-.081.197-.171.602-.205.934-.059.537-.078.596-.241.712l-.181.128-.07-.133c-.046-.084-.07-.501-.065-1.139.007-1.175.028-1.148-.516-.666-.106.094-.235.391-.419.956-.453 1.405-.47 1.327-.23-1.076.086-.869.157-1.911.157-2.316 0-.723.003-.736.136-.701.127.033.135.018.098-.202-.077-.473-.29-.642-.538-.428m7.242.442c-.176.206-.354.551-.514.995-.088.244-.201.542-.254.664-.139.325-.197 1.317-.09 1.516.123.229.524.214.814-.029.63-.527 1.147-1.309 1.044-1.577-.067-.177-.194-.105-.452.255-.34.474-.782.879-.867.793-.132-.132.002-.487.222-.592.708-.338 1.13-1.399.8-2.014-.087-.164-.566-.171-.703-.011m.234.889c-.037.171-.286.48-.286.356 0-.093.266-.606.298-.575.016.018.012.116-.012.219m-4.485 2.085c-.022.104-.101.24-.173.305-.129.116-.13.115-.082-.041.133-.44.341-.655.255-.264m-4.468.94c-.618.639-.922 3.207-.402 3.406.415.159 1.299-.801 1.299-1.41 0-.276-.203-.291-.314-.023-.105.252-.544.718-.646.685-.135-.044-.129-.552.014-1.256.158-.777.211-.857.307-.471.123.483.452.221.449-.357-.005-.742-.306-.987-.707-.574m-4.599.469c-1.538.18-2.401.857-2.401 1.884 0 .284.259.635.469.635.179 0 .133.432-.052.478-.343.086-.443.786-.113.786h.182l-.117.616c-.166.864-.14 1.241.087 1.267.29.034.381-.153.509-1.045.063-.443.139-.829.168-.857.058-.058.957.273 1.211.445.867.589.857.586 1.327.426.251-.086.292-.129.39-.404.18-.503.057-.607-.332-.281l-.197.167-.189-.14c-.459-.34-.774-.528-1.11-.665l-.36-.146.339-.172c1.028-.521 1.667-1.712 1.414-2.637-.089-.309-.532-.438-1.225-.357m2.781.534c-.137.124-.266.273-.284.332s-.13.167-.245.242c-.477.308-.49 2.802-.016 2.802.164 0 .518-.326.581-.533.021-.072.089-.188.149-.257.408-.471.742-2.247.504-2.691-.106-.199-.402-.154-.689.105m-2.239.3c.452.389-.323 1.407-1.45 1.905l-.356.158.002-.299c.001-.165.044-.355.095-.422.274-.362.047-.823-.263-.533-.173.162-.339.117-.339-.091-.001-.505 1.88-1.089 2.311-.718m2.574.323c.048.124-.024.543-.118.698-.043.07-.154.333-.248.584-.229.609-.287.623-.287.067 0-.555.078-.858.251-.979.07-.049.128-.157.128-.239 0-.131.064-.201.199-.217.021-.003.055.036.075.086m-12.183 2.837c-.142.217-.183.543-.104.829.053.193.033.483-.099 1.418-.092.655-.177 1.602-.192 2.139-.034 1.185-.01 1.201.731.517.495-.456.954-.784 1.763-1.257.471-.276.584-.445.584-.873.002-.286-.352-.21-.883.19-.088.066-.4.276-.695.469-.296.192-.596.404-.668.47-.266.246-.281.018-.088-1.27.324-2.147.314-2.732-.047-2.768-.155-.015-.222.015-.302.136m4.123-.017c-.406.237-1.126 2.535-1.049 3.35.06.621.829.036 1.168-.888.043-.12.145-.268.225-.328l.145-.11.019.379.019.379.231-.02c.283-.023.521-.328.521-.668 0-.201-.013-.216-.161-.188-.146.027-.158.014-.131-.135.144-.772.042-1.461-.215-1.461-.068 0-.125-.038-.125-.085 0-.228-.401-.369-.647-.225m25.108.521c-.248.264-.123.865.18.865.26 0 .425-.702.215-.912-.137-.136-.234-.125-.395.047m-24.94.557c.042.319-.33 1.271-.676 1.726-.194.255.094-1.098.364-1.708.189-.427.257-.431.312-.018m26.462.397c-.688.579-.767 1.661-.158 2.18l.293.25-.175.067c-.096.037-.296.066-.443.066-.285 0-.482.237-.482.579 0 .41 1.3-.05 1.521-.538.191-.42.163-.52-.26-.923-.469-.447-.543-.697-.293-.986.191-.224.252-.188.168.104-.119.413.072.652.252.316.441-.826.149-1.597-.423-1.115m-1.511.526c-.195.13-.348.786-.203.875.07.044.061.429-.049 1.879l-.043.559.151-.021c.248-.035.358-.371.505-1.531.19-1.508.078-2.054-.361-1.761m-3.16 1.265c-.365.294-.521.939-.211.877l.189-.038v1.232c0 1.089.012 1.237.104 1.272.198.076.411-.121.525-.486.06-.191.225-.604.366-.917.141-.313.291-.689.334-.837.115-.388.152-.338.234.316.096.772.529 1.147.982.85.254-.167.389-.803.17-.803-.07 0-.127.027-.127.061s-.061.093-.134.133c-.214.115-.292-.036-.372-.73-.137-1.187-.628-1.399-.983-.426-.06.165-.198.512-.306.773l-.195.474-.036-.79c-.05-1.1-.147-1.276-.54-.961m-92.142.343c-4.972 5.297-2.516 9.054 6.8 10.404 2.866.415 4.376.509 9.381.576 16.263.221 28.215.7 38.665 1.55 1.061.086 1.979.164 2.043.172.082.012-.156.266-.813.869-5.522 5.064-5.261 8.869.706 10.301 4.505 1.082 12.121.733 18.219-.833 5.311-1.364 7.855-3.302 6.7-5.104-1.418-2.21-8.854-4.115-20.853-5.343-.886-.091-1.75-.186-1.92-.209l-.309-.045.814-.637c1.236-.967 1.974-1.512 3.151-2.335 1.099-.767 3.034-2.052 3.093-2.052.018 0-.338.585-.788 1.299-.905 1.434-.947 1.545-.579 1.545.342 0 .327.018 1.52-1.888 1.274-2.035 1.26-1.986.594-1.946-.809.048-6.166.734-6.229.797-.094.094.004.257.15.257.141 0 4.223-.477 4.609-.538.197-.031.17-.004-.254.264-2.033 1.283-4.543 3.057-6.152 4.343l-1.018.813-.854-.07c-8.744-.731-17.498-1.172-29.061-1.463-4.333-.109-9.092-.189-11.277-.189-15.319-.003-21.192-3.64-15.863-9.824.671-.778.683-.876.116-.903-.377-.018-.405-.009-.591.189m73.543.161c-.979.841-1.197 1.107-1.197 1.466 0 .46.264.277 1.351-.94.667-.748.554-1.135-.154-.526m13.473.253c-.071.165-.162.485-.202.711-.04.226-.145.716-.232 1.09l-.159.679-.295.001c-.335.001-.367.018-.563.296-.272.389.027.834.346.516.176-.175.271-.014.176.3-.143.474-.605 1.745-.702 1.929-.157.299-.118.875.059.875.24 0 .427-.263.522-.737.049-.237.224-.839.389-1.336l.3-.905.18.036c.228.045.589.217 1.138.541.912.538 1.133.091.682-1.381-.397-1.294-.514-1.733-.514-1.934 0-.104-.084-.367-.188-.584l-.186-.395h-.312c-.31-.002-.311-.002-.439.298m4.068.347c-.051.079-.303.597-.56 1.153-.257.556-.501 1.082-.541 1.169-.099.21-.04-.488.089-1.062.203-.902-.087-1.59-.473-1.124-.09.108-.221 3.197-.139 3.278.215.216 1.001-.567 1.014-1.009.002-.077.033-.157.07-.18.037-.023.144-.202.237-.399l.17-.357.019.616.018.616h.184c.299 0 .654-.625.408-.719-.112-.043-.111-.176.012-1.666l.039-.458h-.228c-.167 0-.252.039-.319.142m-8.061.346c-.42.075-.984 1.281-.601 1.281.138 0 .348-.231.348-.382 0-.174.28-.449.409-.4.34.13.555.992.525 2.108l-.019.727-.112-.205c-.471-.861-1.182.581-1.183 2.396 0 .764.017.811.301.811 1.133 0 1.933-4.099 1.173-6.009-.128-.324-.36-.413-.841-.327m4.537.257c.061.158.454 1.624.556 2.067.042.183.039.186-.078.082-.066-.059-.354-.184-.642-.278-.598-.197-.576-.133-.328-.968.105-.354.209-.77.23-.925.041-.309.139-.301.262.022m-2.951.219c-.226.691.108 2.046.381 1.552.116-.209.115-1.512 0-1.652-.143-.172-.307-.128-.381.1m-60.739-.015c-.674.53-.073 1.596.748 1.325.498-.165.663-.891.286-1.268-.235-.236-.769-.266-1.034-.057m15.795 0c-.669.526-.066 1.594.748 1.325.499-.165.663-.891.287-1.268-.238-.236-.771-.266-1.035-.057m30.249-.058c-1.463.194-2.26.779-2.347 1.724-.038.406.131.717.419.775.105.021.189.07.189.109-.002.197-.09.349-.217.38-.344.086-.434.796-.1.796.104 0 .191.014.191.032 0 .018-.059.293-.13.612-.181.813-.152 1.213.087 1.24.27.031.398-.128.445-.544.068-.622.179-1.259.23-1.344.076-.123 1.026.265 1.482.605.627.47 1.218.424 1.438-.112.204-.496.06-.659-.294-.331-.218.203-.196.207-.639-.125-.208-.156-.556-.361-.772-.457-.479-.209-.477-.196-.045-.422.637-.333 1.357-1.307 1.404-1.897.071-.868-.328-1.176-1.341-1.041m-49.415.066c-.038.047-.506 1.2-1.041 2.562-.534 1.361-.99 2.456-1.013 2.432s-.482-1.152-1.019-2.507l-.978-2.464-.607-.018-.608-.018V54.986h.596c.328 0 .609-.021.625-.048.015-.026.001-1.226-.031-2.665s-.05-2.659-.04-2.71c.01-.051.372.814.803 1.923 1.009 2.59.888 2.362 1.262 2.362.399 0 .311.157 1.296-2.306l.859-2.148-.032.758c-.017.417-.05 1.676-.073 2.798l-.042 2.039.625-.018.625-.018.016-4.091.016-4.091h-.269c-.148 0-.412-.018-.587-.039-.227-.026-.334-.013-.383.05m51.994.661c-.319.338-.513.771-.62 1.387-.262 1.5.093 2.098.891 1.503.521-.39.652-.538.943-1.073.428-.785.345-1.275-.104-.608-.24.36-.939 1.09-1.043 1.09-.188 0-.139-.276.098-.562.309-.37.51-.77.51-1.012 0-.104.031-.26.07-.345.257-.563-.303-.848-.745-.38m-1.955.13c.195.195.185.273-.108.771-.26.441-.589.719-1.211 1.023l-.506.247-.02-.257c-.011-.147.02-.315.07-.394.312-.478.119-.947-.248-.603-.172.162-.339.117-.339-.091 0-.527 1.954-1.104 2.362-.696m2.126.679c-.041.124-.096.238-.121.254-.068.042-.004-.36.072-.456.105-.131.127-.038.049.202m-44.574.857c-.719.284-1.109.843-1.157 1.658-.064 1.119.292 1.439 2.021 1.817 1.279.28 1.596.509 1.334.966-.384.67-1.569.646-2.132-.041-.285-.348-.297-.35-.823-.09-.855.422-.265 1.338 1.049 1.63 1.827.406 3.212-.405 3.213-1.883.001-1.033-.354-1.339-1.972-1.694-.963-.211-1.3-.359-1.409-.619-.367-.873 1.412-1.142 2.088-.316.273.332.351.339.885.079 1.498-.73-1.441-2.16-3.097-1.507m6.349-.066c-.875.268-1.345.906-1.351 1.836-.006 1.034.366 1.351 1.993 1.703 1.425.308 1.72.568 1.249 1.105-.486.553-1.424.475-2.019-.169l-.307-.333-.478.236c-1.663.823 1.451 2.271 3.173 1.476.649-.3.997-.81 1.066-1.568.103-1.124-.365-1.515-2.328-1.944-.918-.201-1.286-.526-1.059-.936.322-.582 1.521-.538 2.061.075.307.348.4.359.907.103 1.369-.692-1.217-2.1-2.907-1.584m9.622.056c-.671.238-1.102.671-1.313 1.318-.178.544-.116 3.033.087 3.481.796 1.761 3.878 1.593 4.436-.243.2-.659.16-2.965-.06-3.452-.45-.994-1.966-1.525-3.15-1.104m-20.333.09c-.017.043-.023 1.358-.014 2.922l.017 2.844.616.018.616.018v-5.879h-.602c-.424-.002-.611.022-.633.077m15.795 0c-.017.043-.023 1.358-.014 2.922l.017 2.844.616.018.616.018v-5.879h-.602c-.424-.002-.612.022-.633.077m9.889 2.86v2.938h1.264v-1.93c0-1.791.01-1.947.124-2.172.359-.704 1.116-.868 1.688-.366.391.343.399.399.399 2.538v1.93h1.263v-2.082c0-2.323-.021-2.471-.465-3.054-.521-.685-1.932-.959-2.75-.535-.409.212-.386.213-.386-.016v-.19H51.93v2.939m-3.917-1.83c.512.258.632.608.632 1.839 0 .885-.015 1.022-.135 1.271-.404.836-1.514.842-1.958.013-.152-.282-.175-2.206-.031-2.544.251-.586.944-.856 1.492-.579m37.78.092c.044.104.116.189.162.189.105 0-.244 1.072-.418 1.279l-.118.143-.003-.348c-.002-.404.178-1.453.25-1.453.027 0 .084.086.127.19m-2.938.312c-.81.344-.979 1.792-.273 2.35l.266.211-.248.075c-.137.041-.338.06-.447.042-.227-.037-.402.211-.402.566v.188l.332-.043c1.18-.149 1.599-.92.877-1.613-.453-.435-.51-.68-.23-.994l.158-.178-.041.369c-.065.6.215.514.375-.116.195-.775.079-1.047-.367-.857m-1.832 1.42c-.09.118-.182.324-.203.457-.063.398-.905 2.038-.901 1.758 0-.034.044-.218.099-.409.053-.19.113-.71.134-1.153l.038-.805h-.156c-.321 0-.41.209-.454 1.062-.022.427-.067.831-.103.896-.035.066-.064.405-.064.755v.636h.217c.264 0 .598-.35.83-.871.082-.185.207-.408.278-.498.07-.09.128-.219.128-.285s.025-.106.056-.088c.294.182.234 3.95-.069 4.316-.34.412-1.244-.25-1.248-.916-.004-.477-.291-.197-.352.342-.15 1.326 1.52 1.95 2.051.767.377-.841.41-1.388.271-4.409-.083-1.76-.181-2.04-.552-1.555m-6.291.286c-1.66.304-2.901 1.153-2.901 1.985 0 .398.425.355.622-.064.146-.309 1.002-.907 1.52-1.064l.151-.046-.142.149c-.121.129-.135.193-.102.465.023.174.057.473.076.664l.035.35-.394.188c-.433.207-.693.51-.693.804 0 .222.11.226.562.015.424-.197.406-.245.2.539-.226.863-.296 1.568-.161 1.62.25.097.51-.312.63-.988.021-.122.115-.542.208-.935l.168-.712.874-.544c1.017-.631 1.148-.777 1.291-1.433.099-.454.098-.487-.006-.603-.295-.326-1.241-.517-1.938-.39m2.917.689c-.485.517-1.118 2.855-.915 3.385.097.253.597-.035.813-.469.062-.121.147-.264.19-.316.044-.052.101-.166.126-.252.146-.493.411-.512.411-.028 0 .495.331.511.623.028.198-.326.186-.656-.021-.617-.172.033-.171.043-.058-.698.04-.258-.142-.833-.263-.833-.049 0-.131-.082-.182-.182-.174-.341-.416-.347-.724-.018m-1.996.064c.462.21.483.301.149.604-.238.216-.971.668-1.08.668-.018 0-.046-.21-.066-.467-.042-.568-.118-.73-.348-.74-.283-.013.414-.17.776-.175.182-.003.426.045.569.11m2.263.846c.036.346-.018.508-.45 1.361-.339.67-.373.321-.069-.714.277-.944.462-1.176.519-.647M17.64 61.633l.017 4.125.473.02c.26.01.537.002.616-.018l.144-.036-.017-4.089-.016-4.09-.616-.019-.617-.019.016 4.126m6.998-4.043c0 .06.157.127.468.2 2.34.552 4.033 2.87 3.701 5.066-.294 1.946-1.744 3.532-3.647 3.991-.71.172-.629.299.158.248 5.027-.328 6.364-6.958 1.831-9.08-.761-.355-2.511-.652-2.511-.425m20.132-.035c-.023.023-.042 1.871-.042 4.105v4.064l.143.035c.079.02.355.027.616.018l.473-.02.017-4.123.016-4.121h-.59c-.325.001-.61.019-.633.042m18.064.685c12.646 1.318 19.916 3.277 20.59 5.547.996 3.353-14.572 6.743-22.927 4.994-5.665-1.186-6.353-4.286-1.966-8.861.698-.729 1.992-1.901 2.096-1.901.042 0 1.035.1 2.207.221m-39.501 1.174c-3.231.541-3.411 4.947-.234 5.774.852.222 1.62.062.852-.179-2.706-.843-2.716-4.443-.015-5.355.724-.245.341-.397-.603-.24m10.342.375c-.71.15-1.206.542-1.513 1.195-.255.545-.255 3.127.001 3.674.698 1.488 3.246 1.688 4.179.329.32-.467.303-.528-.219-.796-.6-.307-.668-.301-.958.078-.541.709-1.446.602-1.817-.215-.184-.403-.173-2.157.015-2.546.375-.774 1.213-.846 1.82-.155l.313.358.509-.249c1.362-.662-.564-2.046-2.33-1.673m5.637.029c-.517.145-.927.447-1.24.915-.199.298-.142.415.32.661.544.289.643.285.899-.033.708-.881 1.9-.496 1.923.621l.007.363-1.074.032c-1.73.051-2.344.567-2.222 1.873.119 1.272 1.685 1.966 2.979 1.317.208-.104.4-.199.426-.211s.048.064.048.168c0 .229.08.264.589.264.603-.002.56.182.536-2.282l-.02-2.175-.208-.422c-.468-.955-1.758-1.43-2.963-1.091m10.265-.029c-1.302.328-1.712 1.02-1.741 2.924-.03 2.055.256 2.651 1.463 3.053 1.643.545 4.021-.887 2.633-1.586-.567-.287-.637-.281-.895.061-.722.963-1.95.464-1.95-.791v-.375l1.721-.016 1.723-.018v-.821c0-1.761-1.316-2.845-2.954-2.431m-22.744.635c-.326.19-.395.773-.126 1.07.484.538 1.383.102 1.25-.607-.079-.423-.731-.692-1.124-.463m23.96.651c.271.18.525.599.494.817-.026.182-2.108.254-2.176.076-.267-.695.981-1.357 1.682-.893m-9.562 2.55c-.176 1.086-2.063 1.47-2.063.42 0-.563.167-.652 1.224-.654l.877-.002-.038.236"/>
  </symbol>
  <symbol id="logo-kyoso" viewBox="0 0 100 36.8">
    <path d="M100 14.59a14.58 14.58 0 01-24.27 10.9c.4-.23.77-.5 1.12-.8a13.27 13.27 0 108.56-23.36c-5.32 0-9.93 3.16-12.03 7.7-.44-.1-.9-.18-1.36-.22A14.59 14.59 0 01100 14.59zM31.2 33.57c-.42-.41-.63-.99-.63-1.72s.2-1.3.63-1.71 1-.63 1.75-.63c.54 0 .95.1 1.22.29.28.18.42.41.42.68 0 .2-.07.37-.19.49a.65.65 0 01-.48.18l-.24-.02-.1-.03v-1.32l-.13-.05c-.1-.02-.2-.04-.32-.04-.34 0-.6.16-.78.48-.19.31-.28.88-.28 1.68 0 .79.1 1.34.28 1.65.18.32.44.47.78.47a1.3 1.3 0 001.1-.6c.12-.17.18-.36.18-.55h.22c0 .24-.07.46-.21.68a1.5 1.5 0 01-.6.5c-.25.13-.54.2-.87.2-.75 0-1.34-.22-1.76-.63zM35.87 33.57c-.41-.41-.62-.99-.62-1.72s.2-1.3.62-1.71.99-.63 1.72-.63 1.3.21 1.71.63c.42.41.63.98.63 1.71s-.21 1.3-.63 1.72c-.41.41-.98.62-1.71.62s-1.3-.2-1.72-.62zm2.31-.05c.17-.33.25-.88.25-1.67s-.08-1.34-.25-1.67c-.16-.33-.36-.49-.6-.49s-.43.17-.59.5c-.16.32-.24.88-.24 1.66s.08 1.34.24 1.67c.16.33.36.5.6.5s.43-.17.6-.5zM40.63 33.93l.53-.13V29.9l-.53-.13v-.13h.8c.34 0 .62.1.82.33.07.09.14.2.2.33a1.34 1.34 0 011.28-.8c.32 0 .62.07.88.21.26.14.47.32.61.55.15.22.22.45.22.7v2.83l.53.13v.13h-1.14c-.53 0-.8-.26-.8-.8v-2.29c0-.37-.06-.65-.2-.85-.13-.2-.28-.3-.46-.3-.22 0-.42.12-.6.36-.08.1-.14.22-.2.35v3.27l.54.13v.13h-2.48v-.13zM47.6 33.95a1.47 1.47 0 01-.35-.24 1.15 1.15 0 01-.48.4h-.22v-1.5h.35c.08.24.19.47.34.68.3.46.7.68 1.16.68.25 0 .44-.06.56-.18s.2-.3.2-.52a.6.6 0 00-.27-.5c-.17-.13-.44-.29-.81-.48-.32-.16-.58-.3-.78-.43-.2-.13-.36-.29-.5-.48s-.2-.41-.2-.67c0-.36.14-.64.45-.86s.77-.34 1.4-.34c.3 0 .6.09.86.25l.34.24c.07-.1.18-.2.3-.3l.18-.1h.22v1.5H50c-.09-.25-.2-.48-.33-.68-.3-.45-.64-.68-1.05-.68-.16 0-.3.05-.4.17s-.17.27-.17.44c0 .23.1.41.28.56s.48.33.86.52c.31.16.56.3.74.42s.35.27.48.45a1 1 0 01.2.61c0 .86-.68 1.29-2.03 1.29-.37 0-.7-.09-.98-.25zM52.5 33.98a1.62 1.62 0 01-.61-.54 1.27 1.27 0 01-.22-.7V29.9l-.53-.13v-.13h1.15c.53 0 .79.26.79.8v2.29c0 .37.07.65.2.85s.29.3.46.3c.22 0 .42-.13.6-.36.06-.09.13-.2.2-.35V29.9l-.53-.13v-.14h2.47v.14l-.53.13v4.2h-.09c-.43 0-.76-.13-.98-.36a.91.91 0 01-.21-.35c-.08.14-.18.28-.3.4-.26.26-.59.4-.98.4-.33 0-.63-.08-.89-.22zM57 33.93l.54-.13v-5.65L57 28v-.13h1.15c.53 0 .8.27.8.8v5.12l.52.13v.13h-2.47v-.13zM61.3 33.98c-.29-.14-.5-.33-.66-.58a1.56 1.56 0 01-.23-.84v-2.7h-.62v-.21h.62v-.45c0-.53.26-.79.8-.79h.61v1.24h1.24v.22h-1.24v2.69c0 .54.06.91.17 1.11.11.2.27.3.5.3.2 0 .39-.1.55-.3.16-.21.24-.5.24-.84h.22c0 .43-.11.77-.33 1s-.5.36-.86.36c-.4 0-.73-.07-1.01-.2zM63.98 33.93l.53-.13V29.9l-.53-.13v-.13h1.15c.53 0 .8.26.8.8v3.35l.53.13v.13h-2.48v-.13zm.71-4.99a.6.6 0 01-.18-.44.6.6 0 01.18-.44.6.6 0 01.44-.18c.18 0 .33.06.44.18s.18.26.18.44a.6.6 0 01-.62.62.6.6 0 01-.44-.18zM66.99 33.93l.53-.13V29.9l-.53-.13v-.13h.8c.34 0 .61.1.81.33.08.09.14.2.2.33.08-.15.18-.29.29-.4.26-.26.6-.4.99-.4.33 0 .62.07.88.21.27.14.47.32.62.55.14.22.22.45.22.7v2.83l.53.13v.13h-1.15c-.53 0-.8-.26-.8-.8v-2.29c0-.37-.06-.65-.2-.85-.13-.2-.28-.3-.46-.3-.22 0-.42.12-.6.36-.07.1-.14.22-.2.35v3.27l.54.13v.13h-2.47v-.13zM73.65 35.82a1.6 1.6 0 01-.7-.37.66.66 0 01-.23-.46c0-.2.07-.36.19-.48a.65.65 0 01.48-.19l.25.03.1.02v1.24a4.32 4.32 0 001.1.17c.72 0 1.25-.1 1.58-.3s.5-.46.5-.76c0-.38-.36-.57-1.06-.57h-1.68c-.44 0-.78-.1-1.01-.28a.85.85 0 01-.36-.7c0-.28.14-.53.42-.74.1-.09.25-.16.42-.22-.22-.14-.37-.3-.47-.49-.1-.18-.15-.4-.15-.66 0-.44.17-.79.5-1.06.33-.27.81-.4 1.44-.4.28 0 .54.03.77.08.23.06.42.14.56.23.05-.1.1-.19.19-.27.17-.17.39-.26.65-.26.2 0 .37.07.5.2s.2.33.2.55c0 .17-.04.31-.13.42s-.21.15-.35.15l-.22-.01-.09-.03V29.6c-.15 0-.3.07-.43.22a.7.7 0 00-.14.22c.29.26.44.6.44 1.02 0 .43-.17.79-.5 1.05-.33.27-.81.4-1.45.4-.42 0-.8-.07-1.14-.22l-.18.1a.58.58 0 00-.13.1.17.17 0 00-.05.11c0 .1.05.18.16.23.1.05.28.08.55.08h1.68c.44 0 .78.13 1.03.38.25.26.38.62.38 1.08 0 .47-.2.85-.59 1.14-.39.3-.97.45-1.75.45-.52 0-.95-.05-1.28-.14zm1.78-3.76c.11-.2.16-.52.16-1s-.05-.81-.16-1c-.1-.19-.26-.28-.45-.28s-.35.1-.46.28c-.1.19-.16.52-.16 1s.05.8.16 1c.1.18.26.28.46.28s.34-.1.45-.28zM1.34 24.13l1.61-.4V6.52l-1.6-.4v-.41H9v.4l-1.61.4v8.44l6.58-8.03-2.01-.8v-.41h5.1v.4l-2.15.8-4.7 5.79 7.25 11.01 1.35.4v.4h-3.76c-.8 0-1.5-.2-2.06-.6a6.5 6.5 0 01-1.57-1.68l-4.03-6.18v7.66l1.61.4v.4H1.34v-.4z"/><path d="M19.35 29.66a2.34 2.34 0 01-.68-1.77c0-.68.19-1.21.56-1.59.36-.37.85-.56 1.46-.56.14 0 .29.01.43.04s.24.04.3.04l.34.05v3.63c.52-.09.98-.38 1.38-.86.39-.48.83-1.32 1.31-2.5L25 24.8 18 11.9l-1.34-.4v-.4h3.36c.93 0 1.67.19 2.22.57a4.7 4.7 0 011.4 1.7l3.37 6.22 2.82-7.29-2.02-.8v-.4h4.97v.4l-2.15.8-5.37 13.84a9.52 9.52 0 01-1.83 3.19c-.64.65-1.38.98-2.2.98-.8 0-1.44-.22-1.88-.65zM34.68 23.04c-1.27-1.26-1.9-3-1.9-5.23s.63-3.96 1.9-5.22c1.26-1.27 3-1.9 5.22-1.9s3.97.63 5.23 1.9c1.26 1.26 1.9 3 1.9 5.22s-.64 3.97-1.9 5.23c-1.27 1.26-3 1.9-5.23 1.9s-3.96-.64-5.22-1.9zm7.04-.15c.49-1 .74-2.7.74-5.08s-.25-4.07-.74-5.08c-.5-1-1.1-1.5-1.82-1.5-.71 0-1.32.5-1.81 1.5-.5 1-.74 2.7-.74 5.08s.25 4.08.74 5.08c.5 1 1.1 1.5 1.81 1.5.72 0 1.32-.5 1.82-1.5zM52.5 24.2a4.54 4.54 0 01-1.04-.74 3.5 3.5 0 01-1.48 1.2h-.67V20.1h1.07c.23.75.57 1.45 1.02 2.1.95 1.37 2.13 2.06 3.55 2.06.75 0 1.32-.18 1.7-.55.39-.37.58-.9.58-1.6 0-.59-.26-1.09-.79-1.49-.53-.4-1.36-.9-2.48-1.5-.97-.47-1.76-.9-2.36-1.3a5.6 5.6 0 01-1.53-1.44 3.41 3.41 0 01-.63-2.06 3.1 3.1 0 011.39-2.62c.92-.67 2.34-1 4.25-1 .95 0 1.83.24 2.64.75.4.23.73.47 1.02.72.23-.32.54-.62.94-.91.3-.18.48-.28.54-.3h.67v4.57H59.8a9.7 9.7 0 00-1-2.07c-.89-1.4-1.95-2.1-3.19-2.1-.48 0-.9.19-1.24.54-.34.36-.5.8-.5 1.35 0 .68.28 1.25.85 1.7.58.46 1.45.98 2.6 1.58.96.48 1.72.9 2.28 1.27.56.37 1.05.82 1.45 1.36.4.54.6 1.16.6 1.88 0 2.6-2.05 3.9-6.17 3.9-1.12 0-2.1-.25-2.99-.73zM65.58 23.04c-1.27-1.26-1.9-3-1.9-5.23s.63-3.96 1.9-5.22c1.26-1.27 3-1.9 5.22-1.9s3.96.63 5.23 1.9c1.26 1.26 1.9 3 1.9 5.22s-.64 3.97-1.9 5.23c-1.27 1.26-3 1.9-5.23 1.9s-3.96-.64-5.22-1.9zm7.04-.15c.49-1 .73-2.7.73-5.08s-.24-4.07-.73-5.08c-.5-1-1.1-1.5-1.82-1.5s-1.32.5-1.81 1.5c-.5 1-.74 2.7-.74 5.08s.25 4.08.74 5.08c.5 1 1.1 1.5 1.81 1.5.72 0 1.32-.5 1.82-1.5z"/>
  </symbol>
  <symbol id="logo-kosmo" viewBox="0 0 100 17.17">
    <path d="M85.04 5.19c-.4-.49-.84-.85-1.36-1.05a4.62 4.62 0 00-3.66.2 4.2 4.2 0 00-1.49 1.53 3.23 3.23 0 00-1-1.4c-.53-.4-1.3-.61-2.18-.61-.96 0-1.73.24-2.33.68-.36.28-.68.73-1.08 1.33V4.34c0-.12-.09-.2-.2-.2H69.2a.27.27 0 00-.28.28v11.26c0 .16.12.28.28.28h2.65c.13 0 .2-.08.2-.2V8.85c0-.65.09-1.13.25-1.45.28-.56.88-.85 1.77-.85.76 0 1.28.29 1.53.85.12.32.2.84.2 1.53v6.83c0 .12.08.2.2.2h2.69c.12 0 .2-.08.2-.2V8.93c0-.53.08-1.01.24-1.37.32-.68.93-1.05 1.77-1.05.77 0 1.25.25 1.53.8.12.29.2.65.2 1.1v7.27c0 .12.08.2.2.2h2.77c.12 0 .2-.08.2-.2l.05-7.24c0-.76-.05-1.32-.13-1.73a3.54 3.54 0 00-.68-1.52zM62.97 8.77a20.9 20.9 0 01-3.22-.85.82.82 0 01-.44-.76c0-.28.16-.53.44-.73s.77-.32 1.45-.32c.8 0 1.4.24 1.73.65.16.2.28.44.32.76.04.08.12.16.2.16h2.58c.15 0 .32-.16.28-.32-.2-1.29-.73-2.17-1.57-2.74a6.52 6.52 0 00-3.62-.88A5.2 5.2 0 0057.5 4.9a3.77 3.77 0 00-1.28 2.8c0 .94.24 1.66.8 2.14.56.48 1.53.93 2.85 1.25 1.85.44 2.94.76 3.22.92.28.2.44.44.44.8 0 .37-.16.65-.52.81-.36.2-.84.28-1.45.28-1.04 0-1.73-.2-2.13-.6-.2-.2-.32-.56-.4-1-.04-.09-.12-.17-.2-.17v-.04h-2.7c-.16 0-.28.16-.28.32a3.87 3.87 0 001.33 2.7c.89.76 2.25 1.16 4.1 1.16 1.85 0 3.18-.4 4.06-1.12a3.53 3.53 0 001.33-2.86 3 3 0 00-.92-2.2 5.61 5.61 0 00-2.78-1.33zM48.37 3.7c-2.05 0-3.53.64-4.54 1.89A6.84 6.84 0 0042.34 10c0 1.77.48 3.22 1.49 4.46 1 1.25 2.53 1.85 4.54 1.85 2.05 0 3.54-.6 4.55-1.85a7.1 7.1 0 001.48-4.46c0-1.69-.48-3.17-1.48-4.42s-2.54-1.9-4.55-1.9zm2.05 9.04c-.48.65-1.16.97-2.09.97-.92 0-1.6-.32-2.09-.97a4.51 4.51 0 01-.72-2.73c0-1.16.24-2.09.72-2.73.48-.65 1.2-.97 2.1-.97.92 0 1.6.32 2.08.97.49.64.73 1.57.73 2.73a4.5 4.5 0 01-.73 2.73zM37.24 8.52l3.9-4.06c.12-.12 0-.32-.17-.32H37.6L33.7 8.6V.28a.28.28 0 00-.28-.28h-2.46a.27.27 0 00-.28.28V15.6c0 .16.12.28.28.28h2.46c.16 0 .28-.12.28-.28v-3.42l1.28-1.33 2.86 5.03h3.3a.3.3 0 00.24-.44l-4.14-6.92zM98.51 5.59c-1-1.25-2.53-1.9-4.54-1.9-2.05 0-3.54.65-4.54 1.9a6.84 6.84 0 00-1.5 4.42c0 1.77.49 3.22 1.5 4.46 1 1.25 2.53 1.85 4.54 1.85 2.05 0 3.54-.6 4.54-1.85a6.86 6.86 0 001.49-4.46c0-1.69-.48-3.17-1.49-4.42zm-2.45 7.15c-.48.65-1.2.97-2.1.97-.92 0-1.6-.32-2.08-.97a4.5 4.5 0 01-.73-2.73c0-1.16.25-2.09.73-2.73.48-.65 1.2-.97 2.09-.97.93 0 1.6.32 2.1.97.47.64.71 1.57.71 2.73 0 1.17-.24 2.1-.72 2.73zM13.23 8.64c0 .53.08 1.01.2 1.5.08-.05.12-.05.2-.09A43.17 43.17 0 0022 6.23c.28-.16.52-.32.76-.48.36-.24.6-.56.36-.8a5.64 5.64 0 00-9.9 3.7z"/><path d="M6.8 11.9c1.93-.36 4.14-.93 6.2-1.6-.05-.2-.13-.45-.13-.65 0-.08-.04-.16-.04-.24s0-.16-.04-.24c0-.16-.04-.36-.04-.52 0-.13 0-.29.04-.4 0-.25.04-.45.04-.65v-.16c.04-.2.04-.36.08-.57v-.04l.12-.56c0-.04.04-.08.04-.16.04-.16.08-.32.16-.44 0-.04 0-.04.04-.08.04-.16.12-.32.2-.48 0-.04.04-.08.04-.12.09-.12.13-.25.2-.37 0-.03.05-.03.05-.08l.24-.4c.04-.04.04-.08.08-.08.08-.12.16-.2.2-.28 0-.04.04-.04.04-.08.12-.08.2-.2.28-.28l.08-.08.24-.24.04-.04.28-.24c.04 0 .04-.04.08-.04.09-.08.17-.12.25-.2l.04-.05c.12-.11.2-.2.28-.23 0 0 .04 0 .04-.05.08-.04.16-.12.24-.16h.04c.2-.12.36-.2.52-.28a8.57 8.57 0 00-13.3 9.4c.43.7 1.8.9 3.37.7z"/><path d="M24.9 4.34c0-.2-.05-.4-.17-.6a1.4 1.4 0 00-.4-.44c-.16-.12-.4-.25-.64-.32-.24-.13-.57-.17-.89-.25-.12 0-.24-.04-.36-.04s-.24 0-.4-.04h-.85c.13.04.29.04.4.08.13.04.29.04.4.08l.37.12c.12.05.24.09.36.17.2.03.4.08.57.12.16.04.28.12.4.2s.2.16.24.28c.04.12.08.24.08.36 0 .4-.2.89-.64 1.4S22.28 6.6 21.44 7.2c-.85.6-1.85 1.28-3.02 1.93-1.2.68-2.53 1.32-4.02 1.97-.97.44-1.97.8-2.9 1.16-.96.36-1.93.65-2.81.89a18.95 18.95 0 01-4.82.88c-.37 0-.69 0-.97-.04s-.56-.08-.76-.16c-.2-.08-.4-.16-.53-.28a1.04 1.04 0 01-.28-.44.98.98 0 010-.48c.04-.17.12-.37.24-.57.13-.2.29-.4.49-.64s.44-.44.68-.68c0-.04 0-.09-.04-.09 0-.04 0-.08-.04-.12v-.24c-.44.4-.85.77-1.2 1.13a6.9 6.9 0 00-.9 1.08c-.23.37-.4.69-.47.97-.08.32-.13.6-.04.84.08.24.2.49.4.69.2.2.48.32.8.44.36.16.77.24 1.2.28a17.98 17.98 0 003.82-.28l.19-.04a8.54 8.54 0 0011.28-.8 5.83 5.83 0 01-3.34-1.8l.2-.1.3-.13a5.63 5.63 0 004 1.7 5.64 5.64 0 005.15-7.92c-.04.04-.08.08-.12.1.1-.1.2-.23.28-.34.48-.64.72-1.25.68-1.77z"/>
  </symbol>
  <symbol id="la-rochelle" viewBox="0 0 500 260">
    <path d="M178.934 69.57c-2.148 1.494-2.268 2.271-2.002 14.648l.27 13.041-3.197.948c-3.15.907-3.152.928-.414 1.005 5.102.171 5.592-.492 5.225-7.009-.463-8.08 5.076-11.669 11.377-7.375 8.541 5.788 14.842 2.715 14.357-6.982-.172-3.708-.563-6.735-.855-6.737-.293 0-2.053.439-3.932.978-2.93.832-3.787.612-6.152-1.563-3.25-3.024-11.015-3.518-14.677-.954m12.55 2.176c2.635 2.199 4 2.613 7.223 2.177l3.959-.517v5.666c0 7.836-3.055 9.496-9.426 5.08-2.34-1.613-3.811-3.203-3.295-3.543.533-.34 1.316-1.803 1.756-3.224.805-2.61.783-2.61-1.438-.632-1.221 1.1-2.223 2.684-2.223 3.516 0 1.121-.73 1.34-2.734.83-1.809-.463-3.344-.145-4.539.95-2.199 1.979-2.564-7.3-.371-9.62 1.467-1.563 2.813-1.753 1.904-.267-.363.584-.215 1.049.322 1.049.557 0 1.242-.95 1.537-2.099.757-2.858 3.47-2.634 7.325.634M94.537 91.545c-9.791 1.929-14.09 4.444-14.09 8.25 0 1.856-1.928 1.638-7.666-.899-11.646-5.15-29.226 11.889-25.243 24.461l.73 2.293 33.062-.684c18.186-.369 35.887-1.1 39.33-1.609 4.76-.687 2.879-.807-7.838-.442-31.373 1.024-54.543.707-55.492-.777-1.347-2.147-1.077-4.007.586-4.007.9-.046 1.73-.486 2.266-1.218.444-.736.272-.909-.463-.445-.688.418-1.217.124-1.217-.707 0-.804 1.189-2.075 2.611-2.854 1.439-.758 2.611-1.783 2.611-2.27 0-.466.734-.857 1.635-.857 1.025 0 1.342-.486.854-1.315-.559-.903-.266-.858.953.12 4.002 3.247 19.043 1.025 15.697-2.314-.365-.369.051-.664.932-.664.898 0 2.213.709 2.945 1.588 1.082 1.317 1.033 1.488-.289.977-.879-.341-1.883-.17-2.221.389-.926 1.469 3.471 2.299 8.199 1.543 3.326-.537 3.74-.81 2.082-1.465-1.832-.709-1.76-.808.561-.882 1.904-.071 2.223-.34 1.174-1.001-.785-.51-1.131-1.393-.779-2 .365-.587.09-1.707-.639-2.466-1.734-1.833-2.17-4.714-.828-5.544.607-.367 1.072.271 1.072 1.488 0 1.176.609 2.15 1.344 2.15 1.563 0 5.541 4.299 5.148 5.566-.268.854 5.645-.049 7.496-1.125.492-.314.125-.998-.807-1.514-.951-.535-1.438-1.439-1.072-2.025.391-.637-.293-.928-1.709-.73-1.295.195-2.564-.224-2.809-.953-.268-.76.441-1.316 1.732-1.316 1.197 0 2.174-.514 2.174-1.148 0-.634-.707-.879-1.563-.541-.953.366-1.563 0-1.563-.947 0-2.004 4.057-1.98 4.836.045.34.856 1.242 1.563 2.002 1.563 2.174 0 6.418 6.204 10.229 14.993 3.783 8.689 4.859 10.374 4.859 7.543 0-1.002-2.102-6.227-4.688-11.6-6.929-14.426-14.113-19.014-26.144-16.65m75.949 10.962c-.977 1.564-1.168 4.518-.656 10.84l.709 8.69-6.666 1.103a519.007 519.007 0 0 1-11.596 1.826c-7.695 1.076-9.234 7.447-4.201 17.313 1.928 3.759 3.295 34.666 1.879 42.231l-.682 3.594h-7.959c-10.477 0-9.037 1.244 1.754 1.516l8.398.219v-4.908c0-4.686.148-4.953 3.395-5.715l3.395-.805-3.373-.633-3.369-.635.246-15.406c.125-8.471-.119-15.405-.539-15.405-2.24 0-.656-6.372 1.809-7.3 4.787-1.83 34.789-3.467 41.166-2.266 3.221.629 8.91 1.385 12.645 1.704 6.152.513 14.674 2.368 18.846 4.103 1.297.537 1.518-.074 1.201-3.369a26.26 26.26 0 0 1 .658-7.813c.756-2.712.707-4.053-.17-4.762-1.369-1.122-17.652-4.322-21.973-4.322-1.66 0-2.76-.558-2.662-1.316.486-3.688-.199-9.133-1.148-9.133-.686 0-.83 1.859-.391 5.225l.688 5.225-8.744-.023c-9.961-.022-11.643-.707-11.938-4.857-.488-6.74-.002-7.154 7.91-6.96 8.469.197 16.16-1.388 8.859-1.828a127.569 127.569 0 0 0-10.182.022l-6.027.269v-3.708c0-3.298-1.098-5.496-2.197-4.398-.221.221-.172 4.908.121 10.425.365 7.032.17 10.011-.658 10.01-.656 0-2.662.294-4.488.659l-3.301.658.73-11.107c.757-11.746.636-12.38-1.489-8.963m-88.185 1.565c-.34.342-1.973.438-3.588.219l-2.977-.393 2.613-1.146c2.444-1.051 5.348-.096 3.952 1.32m21.654 3.609c-.387.59.662 1.03 2.473 1.03 1.73 0 3.438-.465 3.783-1.03.387-.609-.66-1.048-2.488-1.048-1.715-.002-3.422.464-3.768 1.048m342.1 8.031c-.006 5.057-.732 11.771-1.596 14.943-.879 3.152-2.268 8.793-3.076 12.527-.826 3.732-2.949 12.84-4.729 20.237-1.764 7.396-2.984 13.671-2.715 13.941.273.291 1.025-1.539 1.682-4.029 3.006-11.695 2.467-11.063 10.232-11.719 12.063-1.023 13.379-.418 13.695 6.129.096 1.928-.682 2.121-10.348 2.416-9.674.316-10.381.197-9.818-1.563.514-1.586.438-1.635-.512-.34-.613.877-1.127 1.854-1.146 2.195-.025 1.096 8.982 2.688 11.033 1.953 1.365-.486 2.246-.17 2.732.977.637 1.539.709 1.539.781-.023.074-2.027 4.025-2.98 7.277-1.781 1.777.658 2.25 1.559 2.002 3.736-.174 1.585.168 2.805.762 2.707.604-.117 1.164.756 1.236 1.902.125 1.736-.1 1.861-1.393.787-.857-.709-3.199-1.223-5.221-1.148-2.861.117-3.838-.365-4.588-2.176-.713-1.781-.936-1.9-.982-.512-.07 1.54-1.096 1.807-6.787 1.711-5.32-.074-6.592-.416-6.152-1.563.373-1.004.029-1.271-1.123-.809-.928.344-1.684 1.053-1.684 1.565 0 .533-.707.949-1.563.949-.877 0-1.584.516-1.584 1.146 0 .758 2.611 1.072 7.59.902a328.27 328.27 0 0 1 14.623-.119l7.057.145v3.713c0 2.221-.416 3.465-1.047 3.074-.564-.363-1.047-1.561-1.047-2.684 0-1.104-.494-2.027-1.105-2.027-.607 0-.83.439-.508.998.32.518.146 1.227-.391 1.566-.539.34-1.195-.445-1.441-1.738-.391-2.07-.465-1.998-.588.49-.146 3.125-2.195 4.031-2.297 1.049-.07-1.635-.166-1.635-.852.123-.729 1.854-.879 1.854-2.541.193-1.563-1.561-1.777-1.582-1.777-.143 0 2.586-2.074 1.924-2.182-.709-.117-2.227-.145-2.223-.85.268-.709 2.518-.76 2.541-1.955.516-1.051-1.832-1.221-1.855-1.246-.248-.043 2.053-2.1 2.543-2.143.516-.004-.805-.299-.902-.783-.268-1.271 1.734-6.498 1.363-6.521-.469a6.848 6.848 0 0 0-1.102-3.172c-.779-1.121-.9 1.418-.412 8.74.51 7.398.371 10.109-.443 9.596-1.799-1.1-1.365.879.664 3.174 6.254 7.08 6.125 6.301 1.66 8.664-2.199 1.15-3.395 2.127-2.658 2.15.752.025 2.803-.686 4.537-1.588 3.955-2.049 3.684-2.512 4.271 7.107.367 6.029.193 7.855-.707 7.104-.877-.709-1.197-.023-1.197 2.492 0 2.461.414 3.346 1.367 2.979.758-.293 1.346.219 1.346 1.17 0 .928-.705 1.684-1.564 1.684-.979 0-1.564.979-1.564 2.637 0 1.465.709 2.91 1.564 3.248 3.711 1.418 1.781 4.859-2.344 4.176a57.796 57.796 0 0 0-5.102-.658c-.76 0-1.418-4.98-1.928-14.625-.395-8.055-1.176-14.895-1.709-15.232-.582-.344-.686 1.854-.248 5.469.684 5.855.637 6.006-1.17 4.195-2.174-2.172-4.174-.973-3.391 2.055.41 1.563.533 1.467.631-.465.053-1.318.586-2.123 1.154-1.779 1.459.9 1.314 4.709-.172 4.709-.666 0-.859.344-.439.779.436.418 1.459-.123 2.268-1.244 1.416-1.928 1.49-1.877 1.66 1.051.758 13.916.631 14.334-4.467 13.844l-3.543-.318-.807-17.16-.826-17.139 2.904-3.199c1.879-2.074 2.074-2.512.559-1.225l-2.363 1.957v-5.396c0-4.225-.469-5.787-2.199-7.203a99.901 99.901 0 0 1-3.541-3.078c-.732-.703-3.225-2.246-5.564-3.467-2.318-1.219-4.783-2.879-5.469-3.709-.684-.828-1.953-1.49-2.811-1.49-2.002 0 1.76 3.008 7.57 6.084 9.594 5.072 9.521 4.9 9.717 24.24.119 9.473.486 20.143.854 23.73.635 6.424.611 6.52-1.951 6.52-3.072 0-3.883-3.195-3.885-15.402-.021-4.154-.367-7.57-.805-7.57s-.539 4.98-.268 11.082c.563 11.863.51 12.111-2.934 11.209-2.074-.539-2.293-1.316-2.391-8.57a277.667 277.667 0 0 0-.971-17.381c-.617-7.008-.711-4.934-.324 8.201.49 16.648.416 17.555-1.391 17.045-1.049-.271-11.184-1.102-22.533-1.811-19.826-1.244-20.631-1.391-20.652-3.49-.076-10.891-1.369-28.492-2.148-29.297-.607-.609-.977-.146-.977 1.244 0 2.76-.336 2.977-6.666 3.883l-5.104.73.49-16.26c.387-12.551.854-16.678 2.096-18.094.879-1.022 1.865-4.002 2.223-6.641l.611-4.809-5.959-.951-5.979-.932-.318-5.758c-.586-10.329.32-12.725 4.547-11.94 3.145.605 3.607.414 3.607-1.416 0-2.343-2.27-3.64-6.537-3.787l-2.863-.096V164.609l-15.939.076c-8.988.049-18.313.66-21.41 1.416l-5.473 1.34v4.35c0 2.414.711 5.396 1.611 6.664 1.271 1.83 1.539 4.785 1.295 14.064l-.313 11.785-8.617.295-8.6.295.123 2.832c.072 1.707.297 2.123.586 1.047.611-2.342 4.811-3.004 16.775-2.662 5.322.146 9.668-.094 9.668-.512 0-.438-1.881-.783-4.176-.783h-4.176V181.02l3.734-.439c4.764-.561 42.07-.314 42.604.291.219.246 0 3.494-.463 7.23-.488 3.734-.609 14.084-.291 22.975.826 22.605.83 23.922.117 24.633-.357.363-8.594-.193-18.309-1.221l-17.676-1.855-.219-12.061c-.295-16.09-1.148-16.285-1.148-.248 0 14.209.295 13.748-8.227 12.061-3.197-.652-3.27-.803-3.293-6.539-.004-4.18-.297-5.42-1.025-4.301-.541.855-1.025 3.566-1.025 6.006l-.002 4.426h-13.5c-16.922 0-16.75.07-16.971-6.621l-.193-5.393-.416 4.688c-.393 4.563-3.66 9.449-4.908 7.42-.338-.535-1.414-.783-2.414-.607a52.271 52.271 0 0 1-3.395.537c-.855.119 1.49.801 5.225 1.537 3.734.754 7.152 1.125 7.594.875 1.051-.631 19.48-.514 37.328.223 14.916.611 25.654 1.563 47.117 4.1 7.229.855 22.512 2.027 33.957 2.613 11.43.586 22.197 1.316 23.928 1.635 1.711.299 5.957.805 9.4 1.1s10.031 1.225 14.625 2.1c4.59.854 10.473 1.811 13.061 2.08 2.586.289 9.158 1.412 14.625 2.486a2699.145 2699.145 0 0 0 19.334 3.736c7.939 1.486 14.457 3.074 22.453 5.416.961.27.84-.016-.313-.758-3.781-2.414-15.303-5.102-44.814-10.498l-12.211-2.242-.588-5.373c-.316-2.955-.805-12.348-1.074-20.848l-.512-15.477 6.861-3.076c9.004-4.027 10.254-4.004 9.42.193a38.932 38.932 0 0 0-.684 6.006c-.023 2.369-.172 2.49-1.098.904-.588-1-1.834-1.813-2.783-1.813-1.486 0-1.443.178.221 1.416 1.25.906 1.686 2.057 1.242 3.248-.512 1.297-.291 1.662.758 1.271 1.172-.461 1.588 1.641 2.105 10.576 1.117 18.77 1.85 25.266 2.826 25.266 1.219 0 1.193-2.59-.123-9.473-.584-3.076-1.123-14.527-1.195-25.486-.092-10.939-.334-19.361-.557-18.703-.223.635-4.377 2.709-9.234 4.59-7.885 3.031-8.838 3.709-8.838 6.059v2.658l-2.998-2.834c-2.684-2.584-2.982-3.586-3.105-10.156l-.145-7.32 13.035.146 13.037.146-.588 2.76c-.514 2.439-.414 2.563.811 1.07.9-1.096 5.318-2.393 12.105-3.588 5.885-1.025 10.328-2.27 9.861-2.732-.463-.463-2.467-.369-4.465.195-6.982 2-7.078 1.902-7.57-7.572-.686-12.939-4.123-22.165-5.105-13.742-.531 4.441-2.73 4.246-3.535-.316-.389-2.176-2.117-9.377-3.832-15.993-1.73-6.615-3.566-13.819-4.1-16.039-.52-2.221-1.639-5.37-2.494-7.006-.922-1.76-1.531-5.883-1.531-10.254 0-4.026-.469-7.594-1.033-7.959-.665-.417-1.034 2.684-1.053 8.563m-339.58-5.687c-1.342 4.369-.414 5.203 3.734 3.371 3.076-1.345 3.078-1.369.516-1.469-2.076-.095-2.295-.314-1.029-1.121 1.248-.808 1.102-1.021-.801-1.025-1.274-.002-2.374.098-2.42.244m-22.12 2.541c-1.002.268-1.83.975-1.83 1.563s.754.805 1.658.441c.902-.344 2.318-.635 3.127-.635.826 0 1.488-.466 1.488-1.029-.001-1.073-1.228-1.17-4.443-.34m-71.93 3.857c-8.908 3.176-12.399 8.081-12.42 17.43l-.001 3.713 10.647.27c5.859.146 11.031.488 11.472.777.442.271 4.298.176 8.57-.217l7.764-.707.46-3.783c.518-4.498-.754-10.895-2.293-11.426-.609-.197-1.101-1.052-1.101-1.883.002-4.296-15.131-7.029-23.098-4.174m22.32 7.543c4.543 8.109 3.736 11.16-3.271 12.279-6.959 1.1-17.505-.363-17.065-2.363.221-1.031-.806-1.271-4.175-.904-2.466.269-3.689.293-2.734.07 1.755-.418 4.878-3.439 3.562-3.439-.388 0-.095-.637.637-1.418 1.123-1.199 1.538-1.17 2.613.248 1.146 1.508 1.293 1.414 1.319-.66.024-1.635.661-2.344 2.098-2.344 1.314 0 1.855-.515 1.512-1.42-.808-2.121 2.374-2.927 4.229-1.072.878.877 1.608 1.123 1.608.559 0-.583.828-1.268 1.831-1.534 1.122-.293.71-.517-1.05-.589-3.489-.146-3.69-1.339-.518-2.807 3.641-1.687 6.277-.194 9.404 5.394m17.212-.949c-.976.975-2.122 1.416-2.54.998-.438-.438-.096-1.22.757-1.756 2.541-1.609 3.664-1.126 1.783.758m125.635 5.028c0 2.587.023 5.054.049 5.492.045.418-1.371 1.075-3.127 1.42l-3.195.655-.193-5.348-.178-5.348-.389 5.543-.389 5.543-3.859-.318c-3.635-.313-3.904-.582-4.492-4.494l-.654-4.195-.146 4.342c-.123 3.736-.514 4.42-2.883 5.006-3.25.828-2.932 1.172-4.348-4.639l-1.146-4.709.195 5.223c.172 4.611-.072 5.271-2.006 5.543-1.949.289-4.586-5.227-4.586-9.55 0-.288 3.416-1.044 7.57-1.704 4.172-.641 9.467-1.587 11.764-2.054 2.295-.466 5.936-.925 8.084-.978l3.928-.123.001 4.693m8.351 1.047c0 8.646-5.836 9.036-6.422.419-.416-6.156-.414-6.177 3.467-6.177 2.905.002 2.955.146 2.955 5.758m13.668.515c.051 4.127.318 5.151.953 3.662.488-1.148.615-3.857.318-6.007-.514-3.589-.363-3.927 1.906-3.907 3.609.002 15.426 1.98 19.996 3.346l3.93 1.15-.613 5.321c-.877 7.47-1.072 7.835-3.66 7.177-2.123-.562-2.246-1.074-1.732-6.98.342-3.907.24-5.35-.291-3.762-.443 1.438-.881 4.147-.932 6.006-.24 7.229-4.25 4.42-4.49-3.125l-.195-6.541-.369 6.078c-.563 9.033-5.662 8.789-6.639-.32l-.611-5.758-.172 5.637-.168 5.617-3.908-.658a50.07 50.07 0 0 0-6.273-.641c-2.123-.021-2.369-.58-2.539-5.514l-.193-5.472-.391 4.958c-.611 7.766-6.545 7.691-6.545-.096 0-6.299.07-6.351 6.908-6.106l5.639.194.071 5.741m249.246 3.394c.293-.729.955-1.049 1.488-.729 1.834 1.146.93 2.562-1.658 2.562-1.807 0-2.611-.563-2.59-1.832.004-1.565.15-1.61 1.123-.267.831 1.194 1.223 1.265 1.637.266m5.543 12.67c.023 1.563-.27 1.709-1.438.734-1.125-.93-1.611-.904-2.102.143-.342.736-.396-.17-.123-2.046.66-4.445-.465-7.861-1.635-4.886-.734 1.859-.805 1.855-.875-.244-.105-3.809 2.436-3.467 4.346.563.995 2.074 1.804 4.662 1.827 5.736m-5.462-2.394c-1.006.586-1.834 1.736-1.834 2.564 0 .854-.516 1.533-1.15 1.533s-.875-.754-.516-1.658c.342-.9.617-2.074.617-2.609s1.068-.951 2.361-.93c2.104.03 2.156.149.522 1.1m-105.426 2.003c.439 1.32.268 1.346-1.172.17-.93-.757-2.174-1.097-2.783-.73-.59.367-1.078.146-1.078-.512.001-1.708 4.445-.781 5.033 1.072m-119.584 3.127c-.631 2.295-.779 4.176-.361 4.176.438 0 1.266-1.881 1.832-4.176.584-2.295.752-4.175.34-4.175-.393 0-1.198 1.88-1.811 4.175m225.931.196l5.352-.293.705 3.977c.389 2.176.93 4.715 1.195 5.619.688 2.366-11.207 2.268-12.281-.098-.564-1.271-.709-1.223-.777.268-.08 2.147-2.736 2.465-3.52.441-.877-2.275 1.561-11.161 2.832-10.331.633.37 3.561.563 6.494.417m-226.904 29.321c.391 13.354.902 25.705 1.145 27.418.223 1.73.709 8.199 1.051 14.377l.613 11.232-10.232-.076c-5.639-.049-17.771.393-26.975.979-9.182.586-24.465 1.393-33.939 1.779-9.492.393-19.357 1.076-21.945 1.539-5.354.955 13.232.441 45.971-1.266a1156.848 1156.848 0 0 1 45.07-1.248c13.033-.096 23.459-.512 23.191-.93-.268-.438-4.686-.801-9.813-.801-8.814 0-9.352-.123-9.84-2.346-.881-3.908-1.492-16.604-2.225-46.482-.439-17.678-1.1-28.469-1.756-28.469-.662.002-.783 8.446-.316 24.294m-51.467-13.574c.125 4.104.27 4.566.584 1.832.857-7.594 6.568-8.596 6.568-1.15 0 5.494-1.125 6.693-5.295 5.615-1.615-.436-2.125-.242-1.592.588 2.959 4.808 8.965.244 8.965-6.836v-5.542h-9.4l.17 5.493m168.02 2.834c3.293.605-.756.875-13.309.877-10.205.021-18.018-.391-18.018-.93.003-1.174 24.831-1.123 31.327.053m7.619 5.783c-.32 1.709-1.002 3.589-1.494 4.148-1.293 1.417-18.969.661-19.941-.855-.518-.83-.781-.728-.787.365-.043 1.393-.146 1.393-1.047 0-.561-.875-1.025-1.074-1.025-.484-.023 1.61-26.928 1.586-27.539-.006-.266-.677-.24-2.462.053-4l.537-2.783 25.924.244 25.926.24-.607 3.131m120.701 2.879l-.191 5.473-.396-4.641c-.293-3.341-.684-4.222-1.385-3.146-.738 1.195-.955 1-.959-.832-.021-1.393.594-2.344 1.541-2.344 1.218-.001 1.533 1.22 1.39 5.49m-303.81 2.859c0 1.217 3.539 1.217 7.303 0 2.146-.684 1.705-.854-2.346-.93-2.735-.07-4.957.346-4.957.93m12.548.342c.828.781 21.949 1.607 21.463.83-.223-.391-5.273-.854-11.207-1.002-5.91-.17-10.525-.098-10.256.172m25.584.56c1.148.438 5.615.465 9.916.121l7.836-.684-9.934-.1c-5.447-.067-8.964.247-7.818.663m189.946 7.081l-3.959 4.836-10.25-.611c-6.439-.391-10.01-.246-9.617.367.34.559 4.467 1.021 9.178 1.023 8.887.047 28.912 1.709 29.709 2.492.244.244-.854 1.902-2.438 3.682-3.271 3.666-15.969 5.254-12.941 1.637.732-.879 1.051-1.875.711-2.197-.928-.949-2.832.588-2.832 2.273 0 1.121-1.369 1.512-5.223 1.512-3.154 0-5.225-.465-5.225-1.174 0-.826-.467-.779-1.543.102-1.025.855-4.322 1.17-9.914.904-4.613-.221-8.395-.025-8.395.412 0 .439 9.986.779 22.213.758l22.193-.047 2.881-4.154c2.004-2.926 2.488-4.316 1.563-4.611-1.268-.416-15.602-2.639-17.041-2.639-.391 0 .439-1.537 1.854-3.395 5.625-7.52 4.982-8.372-.924-1.17m-73.975.562c-1.637 4.488-1.025 8.691 1.293 9.033 2.029.293 2.369-.17 2.494-3.395.094-2.053.217-4.301.266-5.01.146-1.8-3.442-2.339-4.053-.628m-51.467 7.645c.049 4.025.27 5.563.49 3.393.438-4.078.607-4.199 6.564-4.346 3.027-.074 3.713-.516 4.004-2.588.293-2.002 0-2.367-1.439-1.809-1.102.363-2.322.146-3.271-.539-1.053-.879-1.805-.904-2.613-.096-.807.809-.049 1.342 2.734 1.855 2.809.535 3.564 1.049 2.713 1.879-.832.832-1.688.807-3.15-.121-1.467-.904-2.221-.932-2.736-.076-.438.688-1.244-.045-2.07-1.855-1.224-2.779-1.319-2.463-1.226 4.303m54.055-3.057c0 2.201-.416 3.465-1.029 3.076-.582-.363-1.047-2.047-1.047-3.732s.465-3.074 1.047-3.074c.564-.003 1.029 1.679 1.029 3.73m-193.58-2.024c-.365.367-1.492.754-2.516.852-2.904.27-20.287 6.01-19.754 6.543.441.443 25.807-6.811 26.686-7.641.244-.219-.51-.414-1.658-.414-1.147-.002-2.391.293-2.758.66m75.682 1.124c4.643.729 5.443 10.766.834 10.766-1.709 0-2.027-.756-2.027-4.762 0-6.543-1.781-4.953-1.93 1.734l-.121 5.371 3.811-.609c5.102-.83 5.443-1.369 4.807-7.742l-.559-5.49-3.785.146c-2.956.123-3.177.265-1.03.586m157.203 4.613c-2.393 2.805-3.736 5.418-3.66 7.104.096 2.146.221 2.271.635.635.293-1.146 2.174-4.08 4.221-6.566 4.788-5.863 3.714-6.911-1.196-1.173m66.726-3.272c-.346.584.07 1.049.926 1.049s1.855-.465 2.219-1.049c.346-.563-.07-1.027-.926-1.027-.871 0-1.855.465-2.219 1.027m48.582 2.1c-1.346.877-1.32 1.021.197 1.023 1.316.021 1.861 1.146 2.17 4.467.375 4.248.408 4.199.586-1.049.18-5.613-.214-6.203-2.953-4.441m-47.922 1.976c-.074 1.369-.957 3.125-1.957 3.883-1.02.758-1.313 1.414-.658 1.416 1.979.07 3.711-2.855 3.223-5.395l-.459-2.396-.149 2.492m-17.505 11.084c.004 6.322.172 8.766.389 5.445.197-3.32.197-8.496 0-11.498-.218-2.982-.389-.269-.389 6.053m54.712-10.279c1.979.805 1.605 6.35-.518 7.547-1.609.924-1.559 1.023.518.877 3.143-.221 3.656-9.18.531-9.033-1.095.051-1.314.293-.531.609m-374.13 4.102c-5.688 1.906-10.84 3.957-11.445 4.564-1.637 1.637.246 1.344 6.645-1.049a530.277 530.277 0 0 1 10.441-3.76c2.588-.9 5.133-2.051 5.691-2.564 1.443-1.365.248-1.072-11.332 2.809m93.388.15c-2.002.242-4.246.945-4.957 1.535-1.563 1.295-1.777 10.865-.244 11.814.586.363.734 1.174.344 1.807-.463.756-.074.906 1.121.463 1-.391 3.127-.709 4.736-.709h2.908l-.123-7.834-.125-7.666c0 .098-1.652.366-3.66.59m2.078 7.592c0 3.811-.391 5.225-1.467 5.225-.828 0-2.172.268-3.002.584-1.49.563-3.367-8.301-2.15-10.252 2.197-3.541 6.619-.563 6.619 4.443m81.688 1.904l-.193 7.664-3.395-.709c-2.221-.465-3.029-.365-2.346.297 1.395 1.389 25.783 2.486 27.713 1.244 1.047-.658-.367-.979-4.418-.98l-5.936-.021-.414-3.906-.414-3.93-.172 3.904-.172 3.904-4.443-.293-4.443-.313-.605-7.252-.59-7.252-.172 7.643m95.439-4.078c-.322.533-.15 1.121.387 1.295 1.418.533 2.635 6.104 1.318 6.104-.588 0-1.293-1.053-1.539-2.346-.41-2.102-.463-2.072-.605.393-.102 1.951.482 2.926 1.951 3.297 1.707.459 2.096.045 2.074-2.223-.025-5.743-1.927-9.205-3.586-6.52m10.664-.176c-2.832.639-2.609 8.158.248 8.158 1.586 0 2.072-.658 1.977-2.641-.074-1.777-.271-2.049-.588-.828-.75 2.809-2.418 2.176-2.418-.881 0-1.975.418-2.563 1.539-2.145.832.338 1.783.17 2.1-.342.754-1.217-.586-1.83-2.858-1.321m10.448-.068c-2.436.635-2.656 9.475-.266 10.396 3.201 1.225 4.18-.244 3.809-5.76-.195-2.953-.66-5.301-1.049-5.246-.365.075-1.49.362-2.494.61m8.795 4.174l.193 5.031.393-4.443c.219-2.441.879-4.424 1.488-4.424.658 0 .949 1.883.709 4.689-.221 2.781.072 4.688.711 4.688 2.41 0 1.068-9.891-1.393-10.254-2.101-.291-2.275.076-2.101 4.713m-6.741 1.467c.174 2.979-.125 4.125-1.045 3.832-1.814-.588-2.328-8.105-.566-8.082.879-.002 1.465 1.564 1.611 4.25m-308.57 4.613c0 4.611.193 6.348.414 3.904.219-2.467.219-6.227-.004-8.371-.238-2.148-.412-.123-.41 4.467m343.773-5.227c-.361 1.393-.391 3.129-.096 3.881.293.734.564.051.611-1.535.049-1.564.611-2.859 1.25-2.859.678 0 .971 1.076.678 2.568-.27 1.416-.096 2.34.412 2.025 1.475-.906.982-5.375-.678-6.01-1.028-.412-1.761.245-2.177 1.93m53.42-.611c-.322.516.299.711 1.391.42 2.271-.588 3.881 7.881 1.76 9.322-.658.441-.316.76.854.779 1.684.004 1.857-.537 1.316-3.902a48.447 48.447 0 0 1-.664-5.74c-.018-1.926-3.604-2.61-4.657-.879m-11.283 1.223c-2.072 1.195-2.363 3.834-.682 6.18.834 1.195.979.756.535-1.832-.439-2.543-.217-3.395.953-3.395 2.242 0 2.002 5.881-.291 7.348-1.707 1.1-1.703 1.125.092.563 1.055-.318 2.105-.588 2.35-.588s.438-2.123.438-4.709c-.002-4.911-.395-5.325-3.395-3.567m-106.93 4.345c.316 2.441.73 8.324.949 13.061l.369 8.596-5.828-.658c-3.205-.367-5.889-.709-5.941-.762-.072-.07-.438-5.371-.805-11.813l-.682-11.695 3.93-.395 5.709-.586c1.323-.142 1.885.909 2.299 4.252m-37.554-2.609c-.998.707-1.143 2.635-.631 9.18.393 5.195 4.346 2.73 4.346-2.713 0-2.832.023-5.516.049-5.936.074-1.117-2.442-1.463-3.764-.531m155.183 2.879c0 2.021.387 3.66.834 3.66.461 0 .65-1.637.41-3.66-.236-2.004-.611-3.66-.832-3.66-.222 0-.412 1.656-.412 3.66m-152.857 2.17c-.709 5.348-1.756 5.715-1.756.613 0-2.418.51-4.348 1.143-4.348.685 0 .929 1.442.613 3.735m111.863.269c.246 1.662 1.096 2.953 1.934 2.953 1.559 0 3.242-4.488 2.096-5.613-.361-.365-.637.365-.637 1.611s-.48 2.27-1.049 2.27c-.58 0-1.049-.949-1.049-2.098s-.389-2.076-.857-2.076c-.463-.002-.676 1.32-.438 2.953m10.158 1.246c-.361.586-.098.93.609.781 2.148-.488 3.174 5.275 1.148 6.469-.953.561-1.199 1.025-.559 1.051 2.51.051 3.582-2.664 2.387-6.082-1.188-3.365-2.413-4.123-3.585-2.219m9.204 3.075c1.246 3.322.219 5.668-1.395 3.129-.807-1.271-.977-1.244-.977.293-.021 1.145.76 1.83 2.074 1.83 1.514 0 2.078-.707 2.078-2.52 0-3.121-.979-5.832-2.104-5.832-.46 0-.315 1.391.324 3.1m-89.555-.198c-1.611 1.594-.512 8.354 1.441 8.865 2.713.709 3.197.049 3.197-4.518.003-3.659-2.755-6.245-4.638-4.347m10.549-.119c-1.414 1.414-.654 6.936 1.146 8.301 2.934 2.225 3.393 1.734 3.393-3.781 0-5.059-2-7.057-4.539-4.52m19.679.344c-.361.563.096 1.049.979 1.049 1.17 0 1.635 1.027 1.635 3.641 0 2.023-.465 3.662-1.049 3.662-.564 0-1.029-1.148-1.029-2.541 0-1.395-.484-2.834-1.051-3.197-1.285-.783-1.387 3.613-.121 5.588 1.857 2.932 4.787.902 4.811-3.346-.001-4.026-2.731-7.204-4.175-4.856m-16.187 3.734c0 4.732-2.467 4.369-2.953-.416-.244-2.463.098-3.318 1.316-3.318 1.174 0 1.637 1.049 1.637 3.734m7.105-.072c-.436 3.756.609 5.758 3.025 5.758.91 0 1.365-1.561 1.365-4.709-.015-6.178-3.683-7.059-4.39-1.049m-17.75.856c.25 2.172-.025 2.658-1.313 2.17-1.957-.758-2.275-6.029-.322-5.393.731.242 1.446 1.685 1.635 3.223m21.092.777c0 1.686-.482 3.057-1.049 3.057-.584 0-1.049-1.662-1.049-3.713 0-2.221.416-3.445 1.049-3.074.584.363 1.049 2.025 1.049 3.73m-310.57-1.367c-.223.418-.098 3.369.314 6.521l.734 5.738.146-6.521c.146-6.102-.171-7.639-1.194-5.738m355.152.681c-1.732 4.494.635 6.643 3.514 3.178 1.002-1.221 1.029-1.904.121-2.811-.924-.928-1.221-.854-1.289.295-.049.953-.369.775-.855-.49-.735-1.875-.833-1.877-1.491-.172m44.463-.754c1.361.344 1.828 1.561 1.828 4.588 0 4.91-1.563 5.422-2.471.785-.871-4.25-1.611-3.492-.945.953.434 2.805.996 3.395 3.145 3.395 2.393 0 2.564-.295 1.979-3.252a35.81 35.81 0 0 1-.656-5.225c0-1.389-.707-1.93-2.348-1.854-1.78.101-1.901.247-.532.61m-10.844 1.268c.953.59 1.293 2.322 1.021 5.203-.314 3.172-.041 4.297 1.027 4.297.895 0 1.195-.633.809-1.658-.346-.902-.637-3.248-.637-5.225 0-2.709-.439-3.545-1.83-3.541-1.417.002-1.511.217-.39.924m-358.179 8.037c-17.996 1.535-35.303 4.174-65.284 9.982-22.532 4.35-31.007 6.271-30.399 6.855.275.293 2.767.049 5.542-.537 2.742-.588 8.771-1.807 13.362-2.709 4.609-.924 11.661-2.34 15.673-3.17 16.993-3.516 53.757-8.813 67.915-9.766 6.305-.439 10.549-1.025 9.4-1.32-1.17-.29-8.448.005-16.209.665m326.683.416c.295 1.168.053 2.096-.555 2.096-.594 0-1.301-.828-1.568-1.832-.369-1.439-.492-1.363-.588.416-.121 2.174 2.156 4.002 3.42 2.732.973-.953.754-4.248-.32-4.908-.512-.336-.703.346-.389 1.496m10.477-.885c.73.713 1.344 2.516 1.389 3.979.072 2.393.152 2.443.902.564 1.027-2.611.418-4.344-1.852-5.201-1.394-.533-1.488-.41-.439.658m4.855.295c-1.27 3.299.031 6.348 2.732 6.348 1.443 0 2.563-.586 2.492-1.316a196.021 196.021 0 0 1-.246-3.908c-.189-2.926-3.954-3.76-4.978-1.124m3.764 2.762c0 4.004-2.447 3.637-2.932-.416-.244-1.979.145-2.787 1.299-2.787 1.139 0 1.633.98 1.633 3.203m-10.426 1.754c-.002 1.295.459 2.346 1.025 2.346 1.316 0 1.316-1.1 0-3.129-.808-1.266-1.005-1.117-1.025.783"/>
  </symbol>
</svg>
